G04 #@! TF.FileFunction,Copper,L1,Top,Signal*
%FSLAX46Y46*%
G04 Gerber Fmt 4.6, Leading zero omitted, Abs format (unit mm)*
G04 Created by KiCad (PCBNEW (2015-01-16 BZR 5376)-product) date 07/04/2015 12:08:15*
%MOMM*%
G01*
G04 APERTURE LIST*
%ADD10C,0.100000*%
%ADD11O,0.950000X1.250000*%
%ADD12O,1.550000X1.000000*%
%ADD13R,0.300000X0.850000*%
%ADD14R,0.850000X0.300000*%
%ADD15R,3.000000X2.000000*%
%ADD16R,0.750000X0.800000*%
%ADD17R,0.800000X0.750000*%
%ADD18R,1.200000X0.900000*%
%ADD19R,0.500000X0.900000*%
%ADD20R,0.900000X0.500000*%
%ADD21R,1.500000X0.300000*%
%ADD22R,0.300000X1.500000*%
%ADD23C,0.300000*%
%ADD24R,1.550000X0.600000*%
%ADD25R,1.000000X0.500000*%
%ADD26R,0.650000X0.750000*%
%ADD27R,0.800000X0.900000*%
%ADD28O,0.900000X0.250000*%
%ADD29O,0.250000X0.900000*%
%ADD30R,4.150000X4.150000*%
%ADD31C,1.000760*%
%ADD32C,0.800000*%
%ADD33R,0.300000X0.700000*%
%ADD34R,0.700000X0.300000*%
%ADD35R,3.400000X3.400000*%
%ADD36R,0.800000X0.350000*%
%ADD37R,0.350000X0.800000*%
%ADD38R,1.400000X1.200000*%
%ADD39R,1.400000X2.000000*%
%ADD40R,1.250000X1.100000*%
%ADD41C,0.889000*%
%ADD42C,0.254000*%
%ADD43C,0.203200*%
%ADD44C,0.381000*%
%ADD45C,0.177800*%
%ADD46C,0.152400*%
G04 APERTURE END LIST*
D10*
D11*
X74200000Y-39000000D03*
X74200000Y-34000000D03*
D12*
X71500000Y-40000000D03*
X71500000Y-33000000D03*
D13*
X75300000Y-44500000D03*
X75800000Y-44500000D03*
X76300000Y-44500000D03*
X76800000Y-44500000D03*
X77300000Y-44500000D03*
X77800000Y-44500000D03*
X78300000Y-44500000D03*
X78800000Y-44500000D03*
X78800000Y-47750000D03*
X78300000Y-47750000D03*
X77800000Y-47750000D03*
X77300000Y-47750000D03*
X76800000Y-47750000D03*
X76300000Y-47750000D03*
X75800000Y-47750000D03*
X75300000Y-47750000D03*
D14*
X74925000Y-45250000D03*
X74925000Y-47000000D03*
X79175000Y-45250000D03*
X79175000Y-47000000D03*
D15*
X77050000Y-46125000D03*
D16*
X91350000Y-27850000D03*
X91350000Y-26350000D03*
D17*
X78425000Y-35100000D03*
X76925000Y-35100000D03*
D16*
X76275000Y-37850000D03*
X76275000Y-39350000D03*
X78325000Y-38700000D03*
X78325000Y-40200000D03*
D17*
X83950000Y-26650000D03*
X85450000Y-26650000D03*
X83950000Y-25100000D03*
X85450000Y-25100000D03*
X83950000Y-23500000D03*
X85450000Y-23500000D03*
X84650000Y-42850000D03*
X86150000Y-42850000D03*
X84650000Y-44400000D03*
X86150000Y-44400000D03*
X84650000Y-45900000D03*
X86150000Y-45900000D03*
X84650000Y-47450000D03*
X86150000Y-47450000D03*
X72025000Y-45425000D03*
X73525000Y-45425000D03*
D16*
X71500000Y-37950000D03*
X71500000Y-36450000D03*
D17*
X73775000Y-50325000D03*
X72275000Y-50325000D03*
X96400000Y-28650000D03*
X94900000Y-28650000D03*
X96400000Y-30250000D03*
X94900000Y-30250000D03*
X89400000Y-23800000D03*
X87900000Y-23800000D03*
D16*
X89850000Y-25350000D03*
X89850000Y-26850000D03*
X99900000Y-24750000D03*
X99900000Y-23250000D03*
D17*
X97250000Y-21350000D03*
X98750000Y-21350000D03*
D16*
X93000000Y-27850000D03*
X93000000Y-26350000D03*
D17*
X94050000Y-21300000D03*
X92550000Y-21300000D03*
D16*
X77250000Y-22700000D03*
X77250000Y-21200000D03*
X78850000Y-22700000D03*
X78850000Y-21200000D03*
X80450000Y-22700000D03*
X80450000Y-21200000D03*
D17*
X98250000Y-42700000D03*
X99750000Y-42700000D03*
X94300000Y-37400000D03*
X95800000Y-37400000D03*
X98750000Y-37400000D03*
X97250000Y-37400000D03*
X94300000Y-39050000D03*
X95800000Y-39050000D03*
X97550000Y-51500000D03*
X99050000Y-51500000D03*
D16*
X100600000Y-51550000D03*
X100600000Y-50050000D03*
D17*
X90250000Y-50750000D03*
X88750000Y-50750000D03*
D18*
X84150000Y-50700000D03*
X86350000Y-50700000D03*
D16*
X82150000Y-22700000D03*
X82150000Y-24200000D03*
D19*
X72025000Y-47800000D03*
X73525000Y-47800000D03*
X97250000Y-39050000D03*
X98750000Y-39050000D03*
X96000000Y-40750000D03*
X97500000Y-40750000D03*
X91550000Y-51050000D03*
X93050000Y-51050000D03*
X93050000Y-49400000D03*
X94550000Y-49400000D03*
X97300000Y-49400000D03*
X95800000Y-49400000D03*
X83950000Y-21850000D03*
X85450000Y-21850000D03*
X74925000Y-43225000D03*
X76425000Y-43225000D03*
D20*
X80700000Y-45450000D03*
X80700000Y-46950000D03*
D19*
X78075000Y-50500000D03*
X79575000Y-50500000D03*
X99450000Y-47700000D03*
X97950000Y-47700000D03*
D21*
X91550000Y-39100000D03*
X91550000Y-38600000D03*
X91550000Y-38100000D03*
X91550000Y-37600000D03*
X91550000Y-37100000D03*
X91550000Y-36600000D03*
X91550000Y-36100000D03*
X91550000Y-35600000D03*
X91550000Y-35100000D03*
X91550000Y-34600000D03*
X91550000Y-34100000D03*
X91550000Y-33600000D03*
X91550000Y-33100000D03*
X91550000Y-32600000D03*
X91550000Y-32100000D03*
X91550000Y-31600000D03*
D22*
X89600000Y-29650000D03*
X89100000Y-29650000D03*
X88600000Y-29650000D03*
X88100000Y-29650000D03*
X87600000Y-29650000D03*
X87100000Y-29650000D03*
X86600000Y-29650000D03*
X86100000Y-29650000D03*
X85600000Y-29650000D03*
X85100000Y-29650000D03*
X84600000Y-29650000D03*
X84100000Y-29650000D03*
X83600000Y-29650000D03*
X83100000Y-29650000D03*
X82600000Y-29650000D03*
X82100000Y-29650000D03*
D21*
X80150000Y-31600000D03*
X80150000Y-32100000D03*
X80150000Y-32600000D03*
X80150000Y-33100000D03*
X80150000Y-33600000D03*
X80150000Y-34100000D03*
X80150000Y-34600000D03*
X80150000Y-35100000D03*
X80150000Y-35600000D03*
X80150000Y-36100000D03*
X80150000Y-36600000D03*
X80150000Y-37100000D03*
X80150000Y-37600000D03*
X80150000Y-38100000D03*
X80150000Y-38600000D03*
X80150000Y-39100000D03*
D22*
X82100000Y-41050000D03*
X82600000Y-41050000D03*
X83100000Y-41050000D03*
X83600000Y-41050000D03*
X84100000Y-41050000D03*
X84600000Y-41050000D03*
X85100000Y-41050000D03*
X85600000Y-41050000D03*
X86100000Y-41050000D03*
X86600000Y-41050000D03*
X87100000Y-41050000D03*
X87600000Y-41050000D03*
X88100000Y-41050000D03*
X88600000Y-41050000D03*
X89100000Y-41050000D03*
X89600000Y-41050000D03*
D23*
X76800000Y-50575000D03*
X76800000Y-50075000D03*
X76800000Y-49575000D03*
X76300000Y-50575000D03*
X76300000Y-50075000D03*
X76300000Y-49575000D03*
X75800000Y-50575000D03*
X75800000Y-50075000D03*
X75800000Y-49575000D03*
D24*
X94800000Y-31895000D03*
X94800000Y-33165000D03*
X94800000Y-34435000D03*
X94800000Y-35705000D03*
X100200000Y-35705000D03*
X100200000Y-34435000D03*
X100200000Y-33165000D03*
X100200000Y-31895000D03*
D25*
X93350000Y-29300000D03*
X93350000Y-30400000D03*
D26*
X88450000Y-25200000D03*
X88450000Y-26500000D03*
X87450000Y-25200000D03*
X87450000Y-26500000D03*
D27*
X99100000Y-45700000D03*
X99100000Y-44300000D03*
X100200000Y-45700000D03*
X100200000Y-44300000D03*
D28*
X72035000Y-25500000D03*
X72035000Y-26000000D03*
X72035000Y-26500000D03*
X72035000Y-27000000D03*
X72035000Y-27500000D03*
X72035000Y-28000000D03*
X72035000Y-28500000D03*
X72035000Y-29000000D03*
X72035000Y-29500000D03*
X72035000Y-30000000D03*
D29*
X72800000Y-30765000D03*
X73300000Y-30765000D03*
X73800000Y-30765000D03*
X74300000Y-30765000D03*
X74800000Y-30765000D03*
X75300000Y-30765000D03*
X75800000Y-30765000D03*
X76300000Y-30765000D03*
X76800000Y-30765000D03*
X77300000Y-30765000D03*
D28*
X78065000Y-30000000D03*
X78065000Y-29500000D03*
X78065000Y-29000000D03*
X78065000Y-28500000D03*
X78065000Y-28000000D03*
X78065000Y-27500000D03*
X78065000Y-27000000D03*
X78065000Y-26500000D03*
X78065000Y-26000000D03*
X78065000Y-25500000D03*
D29*
X77300000Y-24735000D03*
X76800000Y-24735000D03*
X76300000Y-24735000D03*
X75800000Y-24735000D03*
X75300000Y-24735000D03*
X74800000Y-24735000D03*
X74300000Y-24735000D03*
X73800000Y-24735000D03*
X73300000Y-24735000D03*
X72800000Y-24735000D03*
D30*
X75050000Y-27750000D03*
D31*
X73950700Y-21250000D03*
X75449300Y-21250000D03*
D32*
X88450000Y-45200000D03*
X97750000Y-28550000D03*
X93100000Y-40400000D03*
X89950000Y-42700000D03*
X109500000Y-50500000D03*
X108000000Y-50500000D03*
X106500000Y-50500000D03*
X107000000Y-41500000D03*
X109500000Y-41500000D03*
D33*
X95050000Y-42650000D03*
X94550000Y-42650000D03*
X94050000Y-42650000D03*
X93550000Y-42650000D03*
X93050000Y-42650000D03*
X92550000Y-42650000D03*
X92050000Y-42650000D03*
X91550000Y-42650000D03*
X91550000Y-47450000D03*
X92050000Y-47450000D03*
X92550000Y-47450000D03*
X93050000Y-47450000D03*
X93550000Y-47450000D03*
X94050000Y-47450000D03*
X94550000Y-47450000D03*
X95050000Y-47450000D03*
D34*
X90900000Y-43300000D03*
X90900000Y-43800000D03*
X90900000Y-44300000D03*
X90900000Y-44800000D03*
X90900000Y-45300000D03*
X90900000Y-45800000D03*
X90900000Y-46300000D03*
X90900000Y-46800000D03*
X95700000Y-46800000D03*
X95700000Y-46300000D03*
X95700000Y-45800000D03*
X95700000Y-45300000D03*
X95700000Y-44800000D03*
X95700000Y-44300000D03*
X95700000Y-43800000D03*
X95700000Y-43300000D03*
D35*
X93300000Y-45050000D03*
D36*
X98500000Y-25750000D03*
X98500000Y-25250000D03*
X98500000Y-24750000D03*
X98500000Y-24250000D03*
X98500000Y-23750000D03*
X98500000Y-23250000D03*
X94500000Y-23250000D03*
X94500000Y-23750000D03*
X94500000Y-24250000D03*
X94500000Y-24750000D03*
X94500000Y-25250000D03*
X94500000Y-25750000D03*
D37*
X96250000Y-26500000D03*
X96750000Y-26500000D03*
X97250000Y-26500000D03*
X95750000Y-26500000D03*
X97750000Y-26500000D03*
X95250000Y-26500000D03*
X97750000Y-22500000D03*
X97250000Y-22500000D03*
X96750000Y-22500000D03*
X96250000Y-22500000D03*
X95750000Y-22500000D03*
X95250000Y-22500000D03*
D38*
X111300000Y-47900000D03*
D39*
X105200000Y-47900000D03*
D18*
X107100000Y-44700000D03*
X109300000Y-44700000D03*
D40*
X109400000Y-43050000D03*
X107050000Y-43050000D03*
D41*
X74025000Y-49125000D03*
X97400000Y-36250000D03*
X74175000Y-42450000D03*
X74900000Y-41825000D03*
X75050000Y-48800000D03*
X100700000Y-48600000D03*
X98650000Y-33000000D03*
X78350000Y-24000000D03*
X76350000Y-29050000D03*
X72100000Y-31750000D03*
X75200000Y-33100000D03*
X82150000Y-21150000D03*
X87500000Y-47450000D03*
X87500000Y-45900000D03*
X93300000Y-45050000D03*
X98900000Y-50000000D03*
X96900000Y-42600000D03*
X87100000Y-31550000D03*
X86800000Y-22550000D03*
X92150000Y-25050000D03*
X91150000Y-21300000D03*
X89350000Y-34550000D03*
X75050000Y-27750000D03*
X71950000Y-23900000D03*
X72275000Y-51475000D03*
X74850000Y-46125000D03*
X71625000Y-35200000D03*
X72700000Y-35200000D03*
X100200000Y-41200000D03*
X91600000Y-41300000D03*
X87300000Y-34550000D03*
X87650000Y-50750000D03*
X79225000Y-46150000D03*
X96150000Y-25200000D03*
X96850000Y-33450000D03*
X99700000Y-25900000D03*
X98800000Y-49000000D03*
X75625000Y-35200000D03*
X79625000Y-39975000D03*
X97650000Y-29650000D03*
X89450000Y-22350000D03*
X96400000Y-35800000D03*
X80800000Y-50500000D03*
X100750000Y-21350000D03*
X72800000Y-37825000D03*
X77400000Y-43425000D03*
X96200000Y-48000000D03*
X97200000Y-46600000D03*
X71800000Y-42825000D03*
X72025000Y-43775000D03*
X83200000Y-45900000D03*
X85100000Y-28000000D03*
X100900000Y-25800000D03*
X100300000Y-38400000D03*
X84400000Y-38775000D03*
X93200000Y-23550000D03*
X86750000Y-21200000D03*
X98750000Y-31650000D03*
X83200000Y-47450000D03*
X77400000Y-32550000D03*
X76200000Y-32550000D03*
X71050000Y-31750000D03*
X79350000Y-24850000D03*
X95400000Y-41700000D03*
X98700000Y-41200000D03*
X90900000Y-40125000D03*
X82150000Y-25600000D03*
X86000000Y-38150000D03*
X71050000Y-28250000D03*
X71050000Y-29300000D03*
X73800000Y-23550000D03*
X74900000Y-23500000D03*
X98000000Y-45400000D03*
X98075000Y-43925000D03*
X88500000Y-39125000D03*
X87350000Y-44700000D03*
X89350000Y-44700000D03*
X87450000Y-38975000D03*
X87375000Y-37825000D03*
X82875000Y-38750000D03*
X81950000Y-38300000D03*
X97750000Y-32150000D03*
X96850000Y-34600000D03*
X82600000Y-31150000D03*
X82550000Y-26700000D03*
X80000000Y-30550000D03*
X79950000Y-25750000D03*
X82900000Y-34300000D03*
X80550000Y-41500000D03*
X76300000Y-51450000D03*
X80700000Y-39950000D03*
X81775000Y-34350000D03*
X74925000Y-51450000D03*
X77375000Y-48875000D03*
X82625000Y-49575000D03*
X88400000Y-46625000D03*
X89325000Y-38075000D03*
X81150000Y-43750000D03*
X77625000Y-51575000D03*
X84000000Y-34325000D03*
X90800000Y-29350000D03*
X91250000Y-23250000D03*
X81100000Y-29350000D03*
X81200000Y-26250000D03*
X71000000Y-27100000D03*
X71000000Y-25000000D03*
X71000000Y-26050000D03*
X73500000Y-32200000D03*
X74550000Y-32250000D03*
X88600000Y-43800000D03*
X83300000Y-44000000D03*
X89550000Y-46625000D03*
X82650000Y-50700000D03*
X78475000Y-48875000D03*
X90050000Y-38975000D03*
X79200000Y-42400000D03*
X84300000Y-33200000D03*
X79200000Y-43500000D03*
X85200000Y-32400000D03*
X90000000Y-31350000D03*
X90000000Y-32550000D03*
X93100000Y-35100000D03*
X93150000Y-36600000D03*
D42*
X75800000Y-49575000D02*
X74475000Y-49575000D01*
X74475000Y-49575000D02*
X74025000Y-49125000D01*
X97250000Y-37400000D02*
X97250000Y-36400000D01*
X97250000Y-36400000D02*
X97400000Y-36250000D01*
X74900000Y-41825000D02*
X74800000Y-41825000D01*
X74800000Y-41825000D02*
X74175000Y-42450000D01*
X75800000Y-44500000D02*
X75800000Y-42725000D01*
X75800000Y-42725000D02*
X74900000Y-41825000D01*
X75550000Y-48800000D02*
X75050000Y-48800000D01*
X75550000Y-48800000D02*
X75050000Y-48800000D01*
X75700000Y-48800000D02*
X75550000Y-48800000D01*
X75800000Y-48700000D02*
X75700000Y-48800000D01*
X75800000Y-47750000D02*
X75800000Y-48700000D01*
X98650000Y-33000000D02*
X100035000Y-33000000D01*
D43*
X87450000Y-26500000D02*
X87450000Y-26300000D01*
X87450000Y-26300000D02*
X88450000Y-25300000D01*
X88450000Y-25300000D02*
X88450000Y-25200000D01*
D42*
X94800000Y-35705000D02*
X94800000Y-34435000D01*
X73525000Y-45425000D02*
X74875000Y-46100000D01*
X76800000Y-24735000D02*
X76800000Y-23950000D01*
X78050000Y-23700000D02*
X78350000Y-24000000D01*
X77050000Y-23700000D02*
X78050000Y-23700000D01*
X76800000Y-23950000D02*
X77050000Y-23700000D01*
X76350000Y-29050000D02*
X75050000Y-27750000D01*
X72850000Y-31750000D02*
X72100000Y-31750000D01*
X73300000Y-31300000D02*
X72850000Y-31750000D01*
X73300000Y-31300000D02*
X73300000Y-30765000D01*
X72035000Y-29000000D02*
X73800000Y-29000000D01*
X73800000Y-29000000D02*
X75050000Y-27750000D01*
X73800000Y-30765000D02*
X73300000Y-30765000D01*
X75300000Y-30765000D02*
X75300000Y-33000000D01*
X75300000Y-33000000D02*
X75200000Y-33100000D01*
D43*
X76800000Y-30765000D02*
X76800000Y-29500000D01*
X76800000Y-29500000D02*
X75050000Y-27750000D01*
D42*
X72035000Y-26500000D02*
X73800000Y-26500000D01*
X73800000Y-26500000D02*
X75050000Y-27750000D01*
X76800000Y-24735000D02*
X76800000Y-26000000D01*
X76800000Y-26000000D02*
X75050000Y-27750000D01*
X74800000Y-24735000D02*
X74800000Y-27500000D01*
X74800000Y-27500000D02*
X75050000Y-27750000D01*
X77250000Y-21200000D02*
X78850000Y-21200000D01*
X80450000Y-21200000D02*
X80500000Y-21150000D01*
X80500000Y-21150000D02*
X82150000Y-21150000D01*
X95800000Y-39050000D02*
X95800000Y-37400000D01*
X95800000Y-37400000D02*
X97250000Y-37400000D01*
D44*
X86150000Y-47450000D02*
X87500000Y-47450000D01*
X86150000Y-45900000D02*
X87500000Y-45900000D01*
D42*
X91550000Y-42650000D02*
X91550000Y-43300000D01*
X91550000Y-43300000D02*
X93300000Y-45050000D01*
D45*
X92000000Y-46350000D02*
X93300000Y-45050000D01*
X92000000Y-47400000D02*
X92000000Y-46350000D01*
X92050000Y-47450000D02*
X92000000Y-47400000D01*
X91550000Y-47450000D02*
X92050000Y-47450000D01*
X94550000Y-46300000D02*
X93300000Y-45050000D01*
X94550000Y-47450000D02*
X94550000Y-46300000D01*
X94050000Y-44300000D02*
X93300000Y-45050000D01*
X94550000Y-43800000D02*
X93300000Y-45050000D01*
X95700000Y-43800000D02*
X94550000Y-43800000D01*
X94050000Y-44300000D02*
X93300000Y-45050000D01*
X95700000Y-44300000D02*
X94050000Y-44300000D01*
D42*
X98950000Y-50050000D02*
X98900000Y-50000000D01*
X100600000Y-50050000D02*
X98950000Y-50050000D01*
D45*
X95700000Y-44300000D02*
X95700000Y-43800000D01*
X96400000Y-43800000D02*
X96900000Y-43300000D01*
X96900000Y-43300000D02*
X96900000Y-42600000D01*
X95700000Y-43800000D02*
X96400000Y-43800000D01*
D42*
X100200000Y-43150000D02*
X100200000Y-44300000D01*
X99750000Y-42700000D02*
X100200000Y-43150000D01*
D44*
X86150000Y-44400000D02*
X86150000Y-42850000D01*
X86150000Y-45900000D02*
X86150000Y-44400000D01*
X86150000Y-47450000D02*
X86150000Y-45900000D01*
D42*
X85600000Y-42300000D02*
X86150000Y-42850000D01*
X85600000Y-41050000D02*
X85600000Y-42300000D01*
X85450000Y-25100000D02*
X85450000Y-23500000D01*
X85450000Y-26650000D02*
X85450000Y-25100000D01*
X85450000Y-23500000D02*
X85850000Y-23500000D01*
X87100000Y-29650000D02*
X87100000Y-31550000D01*
X85850000Y-23500000D02*
X86800000Y-22550000D01*
D43*
X88450000Y-25200000D02*
X89700000Y-25200000D01*
X88450000Y-25200000D02*
X89400000Y-24250000D01*
X92150000Y-26350000D02*
X93000000Y-26350000D01*
X92150000Y-26350000D02*
X92150000Y-25050000D01*
X92550000Y-21300000D02*
X91150000Y-21300000D01*
D42*
X95100000Y-25750000D02*
X94500000Y-25750000D01*
X94500000Y-25250000D02*
X95100000Y-25250000D01*
X90400000Y-35600000D02*
X89350000Y-34550000D01*
X91550000Y-35600000D02*
X90400000Y-35600000D01*
X72550000Y-24735000D02*
X72800000Y-24735000D01*
X71950000Y-24135000D02*
X71950000Y-23900000D01*
X72550000Y-24735000D02*
X71950000Y-24135000D01*
X74875000Y-46100000D02*
X74850000Y-46125000D01*
X72275000Y-50325000D02*
X72275000Y-51475000D01*
X80375000Y-44525000D02*
X80700000Y-44850000D01*
X78800000Y-44525000D02*
X80375000Y-44525000D01*
X71500000Y-35325000D02*
X71625000Y-35200000D01*
X71500000Y-36450000D02*
X71500000Y-35325000D01*
X99750000Y-41650000D02*
X99750000Y-42700000D01*
X99750000Y-41650000D02*
X100200000Y-41200000D01*
D43*
X91550000Y-41350000D02*
X91600000Y-41300000D01*
X91550000Y-41350000D02*
X91550000Y-42650000D01*
D42*
X99650000Y-21350000D02*
X99900000Y-21600000D01*
X99900000Y-21600000D02*
X99900000Y-23250000D01*
X98750000Y-21350000D02*
X99650000Y-21350000D01*
X100750000Y-21350000D02*
X98750000Y-21350000D01*
D43*
X100200000Y-44650000D02*
X100200000Y-44300000D01*
X99850000Y-45000000D02*
X100200000Y-44650000D01*
X99500000Y-45000000D02*
X99850000Y-45000000D01*
X99100000Y-45400000D02*
X99500000Y-45000000D01*
X99100000Y-45700000D02*
X99100000Y-45400000D01*
X87650000Y-50750000D02*
X88750000Y-50750000D01*
X86350000Y-50750000D02*
X87650000Y-50750000D01*
D42*
X95350000Y-25500000D02*
X95100000Y-25750000D01*
X95100000Y-25250000D02*
X95350000Y-25000000D01*
X80000000Y-46150000D02*
X79225000Y-46150000D01*
X95350000Y-25000000D02*
X95350000Y-25500000D01*
X95350000Y-24400000D02*
X95350000Y-25000000D01*
X95950000Y-25000000D02*
X96150000Y-25200000D01*
X95350000Y-25000000D02*
X95950000Y-25000000D01*
X94800000Y-33165000D02*
X96565000Y-33165000D01*
X96565000Y-33165000D02*
X96850000Y-33450000D01*
D43*
X89700000Y-25200000D02*
X89850000Y-25350000D01*
D42*
X97950000Y-25750000D02*
X96750000Y-24550000D01*
X96750000Y-24550000D02*
X96750000Y-22500000D01*
X98500000Y-25750000D02*
X97950000Y-25750000D01*
X95750000Y-23550000D02*
X96750000Y-24550000D01*
X98500000Y-25750000D02*
X98550000Y-25750000D01*
X99550000Y-25750000D02*
X99700000Y-25900000D01*
X98500000Y-25750000D02*
X99550000Y-25750000D01*
X95750000Y-22500000D02*
X95750000Y-23550000D01*
X99450000Y-48350000D02*
X98800000Y-49000000D01*
X99450000Y-47700000D02*
X99450000Y-48350000D01*
X100200000Y-33165000D02*
X100035000Y-33000000D01*
D43*
X91350000Y-26350000D02*
X92150000Y-26350000D01*
D42*
X75725000Y-35100000D02*
X75625000Y-35200000D01*
X76925000Y-35100000D02*
X75725000Y-35100000D01*
X76275000Y-39350000D02*
X77125000Y-40200000D01*
X77125000Y-40200000D02*
X78325000Y-40200000D01*
D43*
X79100000Y-40200000D02*
X78325000Y-40200000D01*
X79400000Y-40200000D02*
X79625000Y-39975000D01*
X96400000Y-29450000D02*
X96400000Y-28650000D01*
X97450000Y-29450000D02*
X97650000Y-29650000D01*
X96400000Y-29450000D02*
X97450000Y-29450000D01*
X96400000Y-30250000D02*
X96400000Y-29450000D01*
X89400000Y-24250000D02*
X89400000Y-23800000D01*
X89450000Y-23750000D02*
X89450000Y-22350000D01*
X89400000Y-23800000D02*
X89450000Y-23750000D01*
D42*
X78850000Y-21200000D02*
X80450000Y-21200000D01*
X80700000Y-45450000D02*
X80000000Y-46150000D01*
X80700000Y-44850000D02*
X80700000Y-45450000D01*
X94800000Y-35705000D02*
X96305000Y-35705000D01*
X96305000Y-35705000D02*
X96400000Y-35800000D01*
D46*
X76300000Y-50075000D02*
X76800000Y-49575000D01*
D42*
X78650000Y-49575000D02*
X79575000Y-50500000D01*
X76800000Y-49575000D02*
X78650000Y-49575000D01*
X79575000Y-50500000D02*
X80800000Y-50500000D01*
X95200000Y-24250000D02*
X95350000Y-24400000D01*
X94500000Y-24250000D02*
X95200000Y-24250000D01*
D43*
X79400000Y-40200000D02*
X79625000Y-39975000D01*
X79100000Y-40200000D02*
X79400000Y-40200000D01*
D42*
X90950000Y-28250000D02*
X91400000Y-27800000D01*
X88500000Y-28250000D02*
X90950000Y-28250000D01*
X88100000Y-28650000D02*
X88500000Y-28250000D01*
X88100000Y-29650000D02*
X88100000Y-28650000D01*
X80150000Y-35100000D02*
X78425000Y-35100000D01*
X73025000Y-37600000D02*
X72800000Y-37825000D01*
X80150000Y-37600000D02*
X73025000Y-37600000D01*
X82800000Y-37600000D02*
X83600000Y-38400000D01*
X83600000Y-38400000D02*
X83600000Y-41050000D01*
X80150000Y-37600000D02*
X82800000Y-37600000D01*
X71625000Y-37825000D02*
X71500000Y-37950000D01*
X72800000Y-37825000D02*
X71625000Y-37825000D01*
X77300000Y-43525000D02*
X77400000Y-43425000D01*
X77300000Y-44525000D02*
X77300000Y-43525000D01*
D43*
X73025000Y-37600000D02*
X72800000Y-37825000D01*
X76025000Y-37600000D02*
X73025000Y-37600000D01*
X76275000Y-37850000D02*
X76025000Y-37600000D01*
D42*
X78925000Y-38100000D02*
X78325000Y-38700000D01*
X80150000Y-38100000D02*
X78925000Y-38100000D01*
X83950000Y-23500000D02*
X83950000Y-21850000D01*
X83950000Y-27950000D02*
X83950000Y-26650000D01*
X84600000Y-28600000D02*
X83950000Y-27950000D01*
X84600000Y-30750000D02*
X84850000Y-31000000D01*
X84850000Y-31000000D02*
X86250000Y-31000000D01*
X86250000Y-31000000D02*
X86600000Y-30650000D01*
X86600000Y-30650000D02*
X86600000Y-29650000D01*
X84600000Y-29650000D02*
X84600000Y-30750000D01*
X84600000Y-29650000D02*
X84600000Y-28600000D01*
X83950000Y-25100000D02*
X83950000Y-23500000D01*
X83950000Y-26650000D02*
X83950000Y-25100000D01*
D43*
X95600000Y-48000000D02*
X96200000Y-48000000D01*
X95050000Y-47450000D02*
X95600000Y-48000000D01*
D45*
X96900000Y-46300000D02*
X97200000Y-46600000D01*
X95700000Y-46300000D02*
X96900000Y-46300000D01*
D42*
X97250000Y-24350000D02*
X97650000Y-24750000D01*
X97250000Y-22500000D02*
X97250000Y-24350000D01*
X74850000Y-43300000D02*
X74925000Y-43225000D01*
X74850000Y-43300000D02*
X72600000Y-43300000D01*
X72600000Y-43300000D02*
X72125000Y-43775000D01*
X71800000Y-42825000D02*
X72025000Y-43775000D01*
X72125000Y-43775000D02*
X72025000Y-43775000D01*
D44*
X84650000Y-45900000D02*
X83200000Y-45900000D01*
D42*
X85100000Y-41050000D02*
X85100000Y-36700000D01*
X85700000Y-36100000D02*
X91550000Y-36100000D01*
X85100000Y-36700000D02*
X85700000Y-36100000D01*
X98750000Y-37400000D02*
X98750000Y-38500000D01*
D44*
X84650000Y-47450000D02*
X84650000Y-45900000D01*
D42*
X85100000Y-42400000D02*
X85100000Y-41050000D01*
X85100000Y-29650000D02*
X85100000Y-28000000D01*
X97250000Y-22500000D02*
X97250000Y-21350000D01*
D43*
X85075000Y-36700000D02*
X83425000Y-35050000D01*
X83425000Y-35050000D02*
X81425000Y-35050000D01*
X81425000Y-35050000D02*
X80975000Y-34600000D01*
X80975000Y-34600000D02*
X80150000Y-34600000D01*
D42*
X85100000Y-41050000D02*
X85100000Y-36700000D01*
D43*
X85100000Y-36700000D02*
X85075000Y-36700000D01*
D42*
X99900000Y-24800000D02*
X100900000Y-25800000D01*
X99900000Y-24750000D02*
X99900000Y-24800000D01*
X98850000Y-38400000D02*
X100300000Y-38400000D01*
X98750000Y-38500000D02*
X98850000Y-38400000D01*
D44*
X84650000Y-45900000D02*
X84650000Y-44400000D01*
D42*
X98500000Y-24750000D02*
X99900000Y-24750000D01*
X97650000Y-24750000D02*
X98500000Y-24750000D01*
X93500000Y-23250000D02*
X93200000Y-23550000D01*
X94500000Y-23250000D02*
X93500000Y-23250000D01*
X86100000Y-21850000D02*
X85450000Y-21850000D01*
X86750000Y-21200000D02*
X86100000Y-21850000D01*
D43*
X100200000Y-31895000D02*
X98995000Y-31895000D01*
X98995000Y-31895000D02*
X98750000Y-31650000D01*
D44*
X84650000Y-44400000D02*
X84650000Y-42850000D01*
D42*
X84650000Y-42850000D02*
X85100000Y-42400000D01*
D44*
X84650000Y-47450000D02*
X83200000Y-47450000D01*
D42*
X72025000Y-47800000D02*
X72025000Y-45425000D01*
X72025000Y-44800000D02*
X72025000Y-45425000D01*
X72025000Y-43775000D02*
X72025000Y-45425000D01*
X72300000Y-44525000D02*
X72025000Y-44800000D01*
X75800000Y-30765000D02*
X76300000Y-30765000D01*
X76300000Y-31450000D02*
X77400000Y-32550000D01*
X76300000Y-30765000D02*
X76300000Y-31450000D01*
X75800000Y-32150000D02*
X76200000Y-32550000D01*
X75800000Y-32150000D02*
X75800000Y-30765000D01*
X72800000Y-30765000D02*
X72035000Y-30765000D01*
X72035000Y-30765000D02*
X71050000Y-31750000D01*
X79235000Y-24735000D02*
X79350000Y-24850000D01*
X79235000Y-24735000D02*
X77300000Y-24735000D01*
D43*
X95050000Y-42050000D02*
X95400000Y-41700000D01*
D45*
X98250000Y-42950000D02*
X98250000Y-42700000D01*
D42*
X98250000Y-41650000D02*
X98700000Y-41200000D01*
X98250000Y-42700000D02*
X98250000Y-41650000D01*
X98175000Y-42700000D02*
X98250000Y-42700000D01*
X96075000Y-44800000D02*
X98175000Y-42700000D01*
X95700000Y-44800000D02*
X96075000Y-44800000D01*
X90900000Y-40125000D02*
X90900000Y-43300000D01*
X98750000Y-38500000D02*
X98750000Y-39050000D01*
X75300000Y-44525000D02*
X72300000Y-44525000D01*
D43*
X95050000Y-42050000D02*
X95050000Y-42650000D01*
X82150000Y-25600000D02*
X82150000Y-24200000D01*
D42*
X75050000Y-50325000D02*
X75300000Y-50075000D01*
X75300000Y-50075000D02*
X75800000Y-50075000D01*
X73775000Y-50325000D02*
X75050000Y-50325000D01*
D43*
X94250000Y-29300000D02*
X94900000Y-28650000D01*
X91550000Y-30000000D02*
X92250000Y-29300000D01*
X92250000Y-29300000D02*
X93350000Y-29300000D01*
X91550000Y-31600000D02*
X91550000Y-30000000D01*
X93350000Y-29300000D02*
X94250000Y-29300000D01*
X94750000Y-30400000D02*
X94900000Y-30250000D01*
X92550000Y-32100000D02*
X93350000Y-31300000D01*
X93350000Y-31300000D02*
X93350000Y-30400000D01*
X91550000Y-32100000D02*
X92550000Y-32100000D01*
X93350000Y-30400000D02*
X94750000Y-30400000D01*
X87450000Y-24250000D02*
X87900000Y-23800000D01*
X85600000Y-28550000D02*
X86550000Y-27600000D01*
X86550000Y-27600000D02*
X86550000Y-25600000D01*
X86550000Y-25600000D02*
X86950000Y-25200000D01*
X86950000Y-25200000D02*
X87450000Y-25200000D01*
X85600000Y-29650000D02*
X85600000Y-28550000D01*
X87450000Y-25200000D02*
X87450000Y-24250000D01*
X89500000Y-26500000D02*
X89850000Y-26850000D01*
X86100000Y-28800000D02*
X87350000Y-27550000D01*
X87350000Y-27550000D02*
X87800000Y-27550000D01*
X87800000Y-27550000D02*
X88450000Y-26900000D01*
X88450000Y-26900000D02*
X88450000Y-26500000D01*
X86100000Y-29650000D02*
X86100000Y-28800000D01*
X88450000Y-26500000D02*
X89500000Y-26500000D01*
X93300000Y-27550000D02*
X95400000Y-27550000D01*
X93000000Y-27850000D02*
X93300000Y-27550000D01*
X95400000Y-27550000D02*
X95750000Y-27200000D01*
X95750000Y-27200000D02*
X95750000Y-26500000D01*
D42*
X95750000Y-21300000D02*
X94050000Y-21300000D01*
X96250000Y-21800000D02*
X95750000Y-21300000D01*
X96250000Y-22500000D02*
X96250000Y-21800000D01*
D43*
X86100000Y-38250000D02*
X86100000Y-41050000D01*
X86000000Y-38150000D02*
X86100000Y-38250000D01*
D42*
X72035000Y-28500000D02*
X71300000Y-28500000D01*
X71300000Y-28500000D02*
X71050000Y-28250000D01*
X77250000Y-22700000D02*
X73200000Y-22700000D01*
X73300000Y-24150000D02*
X73300000Y-24735000D01*
X73000000Y-23850000D02*
X73300000Y-24150000D01*
X73000000Y-22900000D02*
X73000000Y-23850000D01*
X73200000Y-22700000D02*
X73000000Y-22900000D01*
X78850000Y-22700000D02*
X77250000Y-22700000D01*
X77250000Y-22700000D02*
X76300000Y-23650000D01*
X76300000Y-23650000D02*
X76300000Y-24735000D01*
X80450000Y-22700000D02*
X78850000Y-22700000D01*
X82150000Y-22700000D02*
X80450000Y-22700000D01*
X72035000Y-29500000D02*
X71250000Y-29500000D01*
X71250000Y-29500000D02*
X71050000Y-29300000D01*
X73800000Y-24735000D02*
X73800000Y-23550000D01*
X74300000Y-24100000D02*
X74900000Y-23500000D01*
X74300000Y-24735000D02*
X74300000Y-24100000D01*
D43*
X100200000Y-46125000D02*
X100200000Y-45700000D01*
X99800000Y-46525000D02*
X100200000Y-46125000D01*
X95700000Y-45800000D02*
X97400000Y-45800000D01*
X97525000Y-45925000D02*
X98125000Y-46525000D01*
X97400000Y-45800000D02*
X97525000Y-45925000D01*
X98125000Y-46525000D02*
X99800000Y-46525000D01*
X97525000Y-45875000D02*
X98000000Y-45400000D01*
X97525000Y-45925000D02*
X97525000Y-45875000D01*
X98075000Y-43925000D02*
X98075000Y-44650000D01*
X97000000Y-45300000D02*
X97650000Y-44650000D01*
X97650000Y-44650000D02*
X98075000Y-44650000D01*
X95700000Y-45300000D02*
X97000000Y-45300000D01*
X98750000Y-44650000D02*
X99100000Y-44300000D01*
X98075000Y-44650000D02*
X98750000Y-44650000D01*
X94550000Y-42650000D02*
X94550000Y-41500000D01*
X94550000Y-41500000D02*
X95050000Y-41000000D01*
X95050000Y-41000000D02*
X95050000Y-38150000D01*
X95050000Y-38150000D02*
X94300000Y-37400000D01*
X94400000Y-41050000D02*
X94400000Y-39150000D01*
X94400000Y-39150000D02*
X94300000Y-39050000D01*
X94050000Y-41400000D02*
X94400000Y-41050000D01*
X94050000Y-42650000D02*
X94050000Y-41400000D01*
D42*
X97300000Y-51250000D02*
X97550000Y-51500000D01*
X97300000Y-49400000D02*
X97300000Y-51250000D01*
D45*
X99100000Y-51550000D02*
X99050000Y-51500000D01*
D42*
X100600000Y-51550000D02*
X99100000Y-51550000D01*
X90150000Y-50575000D02*
X91500000Y-50575000D01*
D43*
X89250000Y-49750000D02*
X90250000Y-50750000D01*
X85150000Y-49750000D02*
X89250000Y-49750000D01*
X84150000Y-50750000D02*
X85150000Y-49750000D01*
X93050000Y-48075000D02*
X92487500Y-48637500D01*
X93050000Y-47450000D02*
X93050000Y-48075000D01*
D42*
X91550000Y-50625000D02*
X91550000Y-51050000D01*
X91500000Y-50575000D02*
X91550000Y-50625000D01*
X91550000Y-49575000D02*
X91550000Y-51050000D01*
X92487500Y-48637500D02*
X91550000Y-49575000D01*
X73550000Y-47775000D02*
X73525000Y-47800000D01*
X75300000Y-47775000D02*
X73550000Y-47775000D01*
X97250000Y-39050000D02*
X97250000Y-40500000D01*
X97250000Y-40500000D02*
X97500000Y-40750000D01*
X95700000Y-43300000D02*
X95700000Y-42650000D01*
X96250000Y-42100000D02*
X96250000Y-41000000D01*
X95700000Y-42650000D02*
X96250000Y-42100000D01*
X96250000Y-41000000D02*
X96000000Y-40750000D01*
X93550000Y-48900000D02*
X93050000Y-49400000D01*
X93550000Y-47450000D02*
X93550000Y-48900000D01*
X93050000Y-49400000D02*
X93050000Y-51050000D01*
X94050000Y-48900000D02*
X94550000Y-49400000D01*
X94050000Y-47450000D02*
X94050000Y-48900000D01*
X94550000Y-49400000D02*
X95800000Y-49400000D01*
D43*
X90900000Y-44300000D02*
X90550000Y-44300000D01*
X90550000Y-44300000D02*
X88100000Y-41850000D01*
X88100000Y-41850000D02*
X88100000Y-41050000D01*
X88500000Y-39125000D02*
X88100000Y-39525000D01*
X88100000Y-39525000D02*
X88100000Y-41050000D01*
X90900000Y-45300000D02*
X89950000Y-45300000D01*
X87100000Y-44450000D02*
X87100000Y-41050000D01*
X87350000Y-44700000D02*
X87100000Y-44450000D01*
X89950000Y-45300000D02*
X89350000Y-44700000D01*
X87450000Y-38975000D02*
X87100000Y-39325000D01*
X87100000Y-39325000D02*
X87100000Y-41050000D01*
X87375000Y-37825000D02*
X86600000Y-38600000D01*
X86600000Y-38600000D02*
X86600000Y-41050000D01*
D42*
X76300000Y-43350000D02*
X76425000Y-43225000D01*
X76300000Y-44525000D02*
X76300000Y-43350000D01*
X80700000Y-47050000D02*
X79975000Y-47775000D01*
X80700000Y-46950000D02*
X80700000Y-47050000D01*
X79975000Y-47775000D02*
X78800000Y-47775000D01*
X82875000Y-38750000D02*
X82525000Y-39100000D01*
X80150000Y-39100000D02*
X82525000Y-39100000D01*
X77650000Y-50075000D02*
X78075000Y-50500000D01*
X76800000Y-50075000D02*
X77650000Y-50075000D01*
X81950000Y-38300000D02*
X81650000Y-38600000D01*
X81650000Y-38600000D02*
X80150000Y-38600000D01*
D45*
X96200000Y-46800000D02*
X97100000Y-47700000D01*
X97100000Y-47700000D02*
X97950000Y-47700000D01*
X95700000Y-46800000D02*
X96200000Y-46800000D01*
D43*
X98900000Y-28550000D02*
X98900000Y-30250000D01*
X97750000Y-27400000D02*
X97750000Y-26500000D01*
X98900000Y-28550000D02*
X97750000Y-27400000D01*
X97750000Y-31600000D02*
X97750000Y-32150000D01*
X98900000Y-30450000D02*
X97750000Y-31600000D01*
X98900000Y-30250000D02*
X98900000Y-30450000D01*
X95850000Y-33800000D02*
X93500000Y-33800000D01*
X93500000Y-33800000D02*
X92800000Y-33100000D01*
X92800000Y-33100000D02*
X91550000Y-33100000D01*
X100200000Y-35705000D02*
X97955000Y-35705000D01*
X97955000Y-35705000D02*
X96850000Y-34600000D01*
X96050000Y-33800000D02*
X95850000Y-33800000D01*
X96850000Y-34600000D02*
X96050000Y-33800000D01*
X97250000Y-27550000D02*
X97250000Y-26500000D01*
X97250000Y-28050000D02*
X97250000Y-27550000D01*
X98450000Y-29250000D02*
X97250000Y-28050000D01*
X98450000Y-30250000D02*
X98450000Y-29250000D01*
X96200000Y-32500000D02*
X98450000Y-30250000D01*
X98450000Y-30250000D02*
X98450000Y-30200000D01*
X96600000Y-32500000D02*
X96200000Y-32500000D01*
X100200000Y-34435000D02*
X98035000Y-34435000D01*
X98035000Y-34435000D02*
X97700000Y-34100000D01*
X97700000Y-34100000D02*
X97700000Y-33100000D01*
X97100000Y-32500000D02*
X96600000Y-32500000D01*
X97700000Y-33100000D02*
X97100000Y-32500000D01*
X96650000Y-32500000D02*
X96600000Y-32500000D01*
X92950000Y-32600000D02*
X91550000Y-32600000D01*
X93050000Y-32500000D02*
X92950000Y-32600000D01*
X96200000Y-32500000D02*
X93050000Y-32500000D01*
X97750000Y-28550000D02*
X98450000Y-29250000D01*
X84100000Y-29650000D02*
X84100000Y-28650000D01*
X82950000Y-27500000D02*
X78065000Y-27500000D01*
X84100000Y-28650000D02*
X82950000Y-27500000D01*
X79000000Y-27900000D02*
X78900000Y-28000000D01*
X78900000Y-28000000D02*
X78065000Y-28000000D01*
X83600000Y-29650000D02*
X83600000Y-28850000D01*
X82650000Y-27900000D02*
X79000000Y-27900000D01*
X83600000Y-28850000D02*
X82650000Y-27900000D01*
X83100000Y-29650000D02*
X83100000Y-28850000D01*
X78850000Y-28500000D02*
X78065000Y-28500000D01*
X79000000Y-28350000D02*
X78850000Y-28500000D01*
X82600000Y-28350000D02*
X79000000Y-28350000D01*
X83100000Y-28850000D02*
X82600000Y-28350000D01*
X82600000Y-31150000D02*
X82600000Y-29650000D01*
X78065000Y-27000000D02*
X82250000Y-27000000D01*
X82250000Y-27000000D02*
X82550000Y-26700000D01*
X80150000Y-30700000D02*
X80150000Y-31600000D01*
X80000000Y-30550000D02*
X80150000Y-30700000D01*
X78065000Y-26000000D02*
X79700000Y-26000000D01*
X79700000Y-26000000D02*
X79950000Y-25750000D01*
X82200000Y-33600000D02*
X82900000Y-34300000D01*
X76300000Y-51450000D02*
X76300000Y-50575000D01*
X80150000Y-33600000D02*
X82200000Y-33600000D01*
X80150000Y-34100000D02*
X81525000Y-34100000D01*
X81525000Y-34100000D02*
X81775000Y-34350000D01*
D42*
X75800000Y-50575000D02*
X74925000Y-51450000D01*
D43*
X82100000Y-41050000D02*
X82100000Y-42750000D01*
X89750000Y-48200000D02*
X89100000Y-48850000D01*
X89750000Y-48200000D02*
X91550000Y-48200000D01*
X81900000Y-48050000D02*
X82700000Y-48850000D01*
X81900000Y-42950000D02*
X81900000Y-48050000D01*
X82100000Y-42750000D02*
X81900000Y-42950000D01*
D45*
X92550000Y-47950000D02*
X92300000Y-48200000D01*
X92300000Y-48200000D02*
X91550000Y-48200000D01*
X92550000Y-47450000D02*
X92550000Y-47950000D01*
D43*
X89100000Y-48850000D02*
X82700000Y-48850000D01*
X88975000Y-48350000D02*
X90525000Y-46800000D01*
X90525000Y-46800000D02*
X90900000Y-46800000D01*
X82450000Y-47800000D02*
X82450000Y-42900000D01*
X82450000Y-42900000D02*
X82600000Y-42750000D01*
X82600000Y-41050000D02*
X82600000Y-42750000D01*
X83000000Y-48350000D02*
X82450000Y-47800000D01*
X83000000Y-48350000D02*
X88975000Y-48350000D01*
X87600000Y-43950000D02*
X87600000Y-41050000D01*
X88100000Y-44450000D02*
X87600000Y-43950000D01*
X88100000Y-44800000D02*
X88100000Y-44450000D01*
X89450000Y-45800000D02*
X89050000Y-45800000D01*
X90900000Y-45800000D02*
X89450000Y-45800000D01*
X89050000Y-45800000D02*
X88450000Y-45200000D01*
X88450000Y-45200000D02*
X88450000Y-45150000D01*
X88450000Y-45150000D02*
X88100000Y-44800000D01*
D42*
X77300000Y-47775000D02*
X77300000Y-48800000D01*
X77300000Y-48800000D02*
X77375000Y-48875000D01*
D43*
X89350000Y-38100000D02*
X89325000Y-38075000D01*
X91550000Y-38100000D02*
X89350000Y-38100000D01*
D42*
X76316512Y-49591512D02*
X76300000Y-49575000D01*
X76316512Y-47791512D02*
X76316512Y-49591512D01*
X76300000Y-47775000D02*
X76316512Y-47791512D01*
X76800000Y-47775000D02*
X76300000Y-47775000D01*
X76800000Y-50575000D02*
X76800000Y-50750000D01*
X77625000Y-51575000D02*
X76800000Y-50750000D01*
D43*
X80150000Y-33100000D02*
X82775000Y-33100000D01*
X82775000Y-33100000D02*
X84000000Y-34325000D01*
D42*
X89600000Y-29650000D02*
X90500000Y-29650000D01*
X90800000Y-29350000D02*
X90500000Y-29650000D01*
X92050000Y-22500000D02*
X91300000Y-23250000D01*
X91300000Y-23250000D02*
X91250000Y-23250000D01*
X92050000Y-22500000D02*
X95250000Y-22500000D01*
D43*
X108000000Y-49500000D02*
X106400000Y-47900000D01*
X106400000Y-47900000D02*
X105200000Y-47900000D01*
X108000000Y-50500000D02*
X108000000Y-49500000D01*
X110600000Y-47900000D02*
X111300000Y-47900000D01*
X109500000Y-49000000D02*
X110600000Y-47900000D01*
X109500000Y-50500000D02*
X109500000Y-49000000D01*
X77300000Y-30765000D02*
X77300000Y-31050000D01*
X77300000Y-31050000D02*
X78850000Y-32600000D01*
X78850000Y-32600000D02*
X80150000Y-32600000D01*
D44*
X107100000Y-43100000D02*
X107100000Y-44700000D01*
X107000000Y-43000000D02*
X107100000Y-43100000D01*
X107000000Y-41500000D02*
X107000000Y-43000000D01*
D43*
X78065000Y-30000000D02*
X78600000Y-30000000D01*
X79150000Y-32100000D02*
X80150000Y-32100000D01*
X78850000Y-31800000D02*
X79150000Y-32100000D01*
X78850000Y-30250000D02*
X78850000Y-31800000D01*
X78600000Y-30000000D02*
X78850000Y-30250000D01*
D44*
X109300000Y-43150000D02*
X109300000Y-44700000D01*
X109500000Y-42950000D02*
X109300000Y-43150000D01*
X109500000Y-41500000D02*
X109500000Y-42950000D01*
D43*
X78065000Y-26500000D02*
X80950000Y-26500000D01*
X81400000Y-29650000D02*
X82100000Y-29650000D01*
X81100000Y-29350000D02*
X81400000Y-29650000D01*
X80950000Y-26500000D02*
X81200000Y-26250000D01*
X92550000Y-42100000D02*
X93900000Y-40750000D01*
X93900000Y-40750000D02*
X93900000Y-39850000D01*
X92550000Y-42100000D02*
X92550000Y-42650000D01*
X93900000Y-39850000D02*
X93150000Y-39100000D01*
X91550000Y-39100000D02*
X93150000Y-39100000D01*
X93100000Y-40900000D02*
X93100000Y-40400000D01*
X92050000Y-42650000D02*
X92050000Y-41950000D01*
X92050000Y-41950000D02*
X93100000Y-40900000D01*
X90900000Y-43800000D02*
X90516976Y-43800000D01*
X89950000Y-43233024D02*
X89950000Y-42700000D01*
X90516976Y-43800000D02*
X89950000Y-43233024D01*
X71100000Y-27000000D02*
X71000000Y-27100000D01*
X71100000Y-27000000D02*
X72035000Y-27000000D01*
X71500000Y-25500000D02*
X71000000Y-25000000D01*
X72035000Y-25500000D02*
X71500000Y-25500000D01*
D42*
X106500000Y-51500000D02*
X106500000Y-50500000D01*
X111000000Y-51500000D02*
X106500000Y-51500000D01*
X111000000Y-49500000D02*
X111000000Y-51500000D01*
X112500000Y-49500000D02*
X111000000Y-49500000D01*
X113000000Y-49000000D02*
X112500000Y-49500000D01*
X113000000Y-47000000D02*
X113000000Y-49000000D01*
X112000000Y-46000000D02*
X113000000Y-47000000D01*
X104400000Y-46000000D02*
X112000000Y-46000000D01*
X103800000Y-46600000D02*
X104400000Y-46000000D01*
X103800000Y-49400000D02*
X103800000Y-46600000D01*
X104400000Y-50000000D02*
X103800000Y-49400000D01*
X106000000Y-50000000D02*
X104400000Y-50000000D01*
X106500000Y-50500000D02*
X106000000Y-50000000D01*
D43*
X72035000Y-26000000D02*
X71050000Y-26000000D01*
X71050000Y-26000000D02*
X71000000Y-26050000D01*
D42*
X74300000Y-30765000D02*
X74300000Y-31400000D01*
X74300000Y-31400000D02*
X73500000Y-32200000D01*
X74800000Y-30765000D02*
X74800000Y-32000000D01*
X74800000Y-32000000D02*
X74550000Y-32250000D01*
D43*
X83300000Y-44000000D02*
X83100000Y-43800000D01*
X88750000Y-43650000D02*
X88600000Y-43800000D01*
X90900000Y-44800000D02*
X90450000Y-44800000D01*
X90450000Y-44800000D02*
X89300000Y-43650000D01*
X89300000Y-43650000D02*
X88750000Y-43650000D01*
X83100000Y-43800000D02*
X83100000Y-41050000D01*
D42*
X78300000Y-48700000D02*
X78475000Y-48875000D01*
X78300000Y-47775000D02*
X78300000Y-48700000D01*
D43*
X90425000Y-38600000D02*
X90050000Y-38975000D01*
X91550000Y-38600000D02*
X90425000Y-38600000D01*
X87400000Y-33200000D02*
X89100000Y-31500000D01*
X89100000Y-31500000D02*
X89100000Y-29650000D01*
X84300000Y-33200000D02*
X87400000Y-33200000D01*
X78350000Y-43250000D02*
X79200000Y-42400000D01*
X77800000Y-44525000D02*
X77800000Y-44050000D01*
X77800000Y-44050000D02*
X78350000Y-43500000D01*
X78350000Y-43500000D02*
X78350000Y-43250000D01*
X78300000Y-44525000D02*
X78300000Y-44125000D01*
X78300000Y-44525000D02*
X78300000Y-44100000D01*
X78900000Y-43500000D02*
X79200000Y-43500000D01*
X78300000Y-44100000D02*
X78900000Y-43500000D01*
X87500000Y-32400000D02*
X88600000Y-31300000D01*
X88600000Y-31300000D02*
X88600000Y-29650000D01*
X85200000Y-32400000D02*
X87500000Y-32400000D01*
D42*
X90000000Y-31350000D02*
X89050000Y-32300000D01*
X89050000Y-32300000D02*
X89050000Y-33050000D01*
X89050000Y-33050000D02*
X90100000Y-34100000D01*
X90100000Y-34100000D02*
X91550000Y-34100000D01*
X90000000Y-32550000D02*
X90000000Y-33250000D01*
X90000000Y-33250000D02*
X90350000Y-33600000D01*
X90350000Y-33600000D02*
X91550000Y-33600000D01*
D43*
X93100000Y-35100000D02*
X91550000Y-35100000D01*
X93150000Y-36600000D02*
X91550000Y-36600000D01*
M02*
