M48
;DRILL file {kicad (2015-01-16 BZR 5376)-product} date 07/04/2015 12:08:59
;FORMAT={-:-/ absolute / inch / decimal}
FMAT,2
INCH,TZ
T1C0.020
T2C0.022
T3C0.024
T4C0.025
%
G90
G05
M72
T3
X2.9114Y-0.8366
X2.9704Y-0.8366
T4
X2.7953Y-0.9843
X2.7953Y-1.0256
X2.7953Y-1.0669
X2.7972Y-1.1122
X2.7972Y-1.1535
X2.7972Y-1.25
X2.8199Y-1.3858
X2.8268Y-1.686
X2.8327Y-0.9409
X2.8356Y-1.7234
X2.8386Y-1.25
X2.8455Y-2.0266
X2.8622Y-1.3858
X2.8661Y-1.4892
X2.8937Y-1.2677
X2.9055Y-0.9272
X2.9144Y-1.9341
X2.9203Y-1.6713
X2.935Y-1.2697
X2.9469Y-1.8159
X2.9488Y-0.9252
X2.9488Y-1.6467
X2.9498Y-2.0256
X2.9547Y-1.0925
X2.9547Y-1.9213
X2.9606Y-1.3031
X2.9774Y-1.3858
X3.Y-1.2815
X3.0039Y-2.0256
X3.0059Y-1.1437
X3.0463Y-1.9242
X3.0472Y-1.2815
X3.0472Y-1.7096
X3.0561Y-2.0305
X3.0846Y-0.9449
X3.0896Y-1.9242
X3.1181Y-1.6693
X3.1181Y-1.7126
X3.1191Y-1.8169
X3.124Y-0.9783
X3.1348Y-1.5738
X3.1476Y-1.0138
X3.1496Y-1.2028
X3.1713Y-1.6339
X3.1772Y-1.5728
X3.1811Y-1.9882
X3.1929Y-1.1555
X3.1949Y-1.7224
X3.1969Y-1.0335
X3.2195Y-1.3524
X3.2264Y-1.5079
X3.2343Y-0.8327
X3.2343Y-1.0079
X3.25Y-1.0512
X3.252Y-1.2264
X3.253Y-1.9518
X3.2539Y-1.9961
X3.2628Y-1.5256
X3.2638Y-1.3504
X3.2756Y-1.8071
X3.2756Y-1.8681
X3.2795Y-1.7323
X3.3071Y-1.3514
X3.3189Y-1.3071
X3.3228Y-1.5266
X3.3504Y-1.1024
X3.3543Y-1.2756
X3.3858Y-1.502
X3.4154Y-0.8346
X3.4173Y-0.8878
X3.4291Y-1.2421
X3.437Y-1.3602
X3.439Y-1.7598
X3.44Y-1.4892
X3.4429Y-1.5344
X3.4449Y-1.8071
X3.4449Y-1.8681
X3.4508Y-1.998
X3.4803Y-1.8356
X3.4843Y-1.5404
X3.4882Y-1.7244
X3.5167Y-1.499
X3.5177Y-1.3602
X3.5177Y-1.7598
X3.5217Y-0.8799
X3.5256Y-1.8356
X3.5433Y-1.2343
X3.5433Y-1.2815
X3.5453Y-1.5344
X3.5748Y-1.1555
X3.5787Y-1.5797
X3.5886Y-0.8386
X3.5925Y-0.9154
X3.6063Y-1.626
X3.628Y-0.9862
X3.6654Y-1.3819
X3.6673Y-1.4409
X3.6693Y-0.9272
X3.6732Y-1.7736
X3.7559Y-1.6417
X3.7854Y-0.9921
X3.7874Y-1.8898
X3.7953Y-1.4094
X3.813Y-1.3169
X3.813Y-1.3622
X3.815Y-1.6772
X3.8268Y-1.8346
X3.8346Y-1.4272
X3.8445Y-1.1673
X3.8484Y-1.2657
X3.8583Y-1.7874
X3.8612Y-1.7293
X3.8839Y-1.2992
X3.8858Y-1.622
X3.8878Y-1.2461
X3.8898Y-1.9291
X3.8937Y-1.9685
X3.9252Y-1.0197
X3.9449Y-1.622
X3.9488Y-1.5118
X3.9646Y-1.9134
X3.9665Y-0.8406
X3.9724Y-1.0157
T1
X2.8022Y-1.2992G85X2.8278Y-1.2992
G05
X2.8022Y-1.5748G85X2.8278Y-1.5748
G05
T2
X2.9213Y-1.3327G85X2.9213Y-1.3445
G05
X2.9213Y-1.5295G85X2.9213Y-1.5413
G05
T0
M30
