G04 #@! TF.FileFunction,Paste,Bot*
%FSLAX46Y46*%
G04 Gerber Fmt 4.6, Leading zero omitted, Abs format (unit mm)*
G04 Created by KiCad (PCBNEW 0.201509141501+6196~30~ubuntu14.04.1-product) date to 17. syyskuuta 2015 00.36.38*
%MOMM*%
G01*
G04 APERTURE LIST*
%ADD10C,0.100000*%
%ADD11R,1.080000X0.320000*%
%ADD12R,0.600000X0.640000*%
%ADD13R,0.640000X0.600000*%
%ADD14R,0.200000X1.280000*%
%ADD15R,1.200000X1.600000*%
%ADD16R,0.400000X0.720000*%
%ADD17R,0.440000X0.640000*%
%ADD18C,0.640000*%
%ADD19R,2.400000X0.800000*%
%ADD20R,0.800000X0.720000*%
G04 APERTURE END LIST*
D10*
D11*
X74200000Y-37800000D03*
X74200000Y-37150000D03*
X74200000Y-36500000D03*
X74200000Y-35850000D03*
X74200000Y-35200000D03*
D12*
X76200000Y-47950000D03*
X76200000Y-46450000D03*
X86075000Y-37000000D03*
X86075000Y-35500000D03*
X84575000Y-37375000D03*
X84575000Y-35875000D03*
D13*
X77800000Y-33950000D03*
X76300000Y-33950000D03*
X74950000Y-26350000D03*
X76450000Y-26350000D03*
D12*
X80550000Y-24350000D03*
X80550000Y-22850000D03*
D13*
X71300000Y-30450000D03*
X72800000Y-30450000D03*
X73450000Y-28950000D03*
X74950000Y-28950000D03*
D12*
X72400000Y-21250000D03*
X72400000Y-22750000D03*
X76950000Y-21300000D03*
X76950000Y-22800000D03*
D13*
X94225000Y-41375000D03*
X92725000Y-41375000D03*
X92050000Y-39750000D03*
X93550000Y-39750000D03*
X100750000Y-44550000D03*
X99250000Y-44550000D03*
X98250000Y-42650000D03*
X99750000Y-42650000D03*
D14*
X88100000Y-40700000D03*
X87600000Y-40700000D03*
X87100000Y-40700000D03*
X86600000Y-40700000D03*
X86100000Y-40700000D03*
X85600000Y-40700000D03*
X85100000Y-40700000D03*
X84600000Y-40700000D03*
X84100000Y-40700000D03*
X83600000Y-40700000D03*
D15*
X89700000Y-42000000D03*
X82000000Y-42000000D03*
D16*
X78300000Y-36025000D03*
X76800000Y-36025000D03*
X77450000Y-37675000D03*
X75950000Y-37675000D03*
X78700000Y-27300000D03*
X80200000Y-27300000D03*
D17*
X78175000Y-41875000D03*
X77225000Y-41875000D03*
X76275000Y-41875000D03*
X78175000Y-39475000D03*
X77225000Y-39475000D03*
X76275000Y-39475000D03*
D18*
X72100000Y-27450000D03*
X72050000Y-25100000D03*
X72100000Y-26250000D03*
X74050000Y-31150000D03*
X75350000Y-31150000D03*
D19*
X72700000Y-47825000D03*
X72700000Y-46325000D03*
D20*
X100500000Y-51450000D03*
X100500000Y-47350000D03*
X98900000Y-51450000D03*
X98900000Y-47350000D03*
X100500000Y-39800000D03*
X100500000Y-35700000D03*
X98900000Y-39800000D03*
X98900000Y-35700000D03*
X98900000Y-30100000D03*
X98900000Y-34200000D03*
X100500000Y-30100000D03*
X100500000Y-34200000D03*
X98950000Y-22900000D03*
X98950000Y-27000000D03*
X100550000Y-22900000D03*
X100550000Y-27000000D03*
M02*
