G04 #@! TF.FileFunction,Copper,L2,Inr,Plane*
%FSLAX46Y46*%
G04 Gerber Fmt 4.6, Leading zero omitted, Abs format (unit mm)*
G04 Created by KiCad (PCBNEW (2015-01-16 BZR 5376)-product) date 07/04/2015 12:08:15*
%MOMM*%
G01*
G04 APERTURE LIST*
%ADD10C,0.100000*%
%ADD11O,0.950000X1.250000*%
%ADD12O,1.550000X1.000000*%
%ADD13C,1.000760*%
%ADD14C,0.889000*%
%ADD15C,0.254000*%
G04 APERTURE END LIST*
D10*
D11*
X74200000Y-39000000D03*
X74200000Y-34000000D03*
D12*
X71500000Y-40000000D03*
X71500000Y-33000000D03*
D13*
X73950700Y-21250000D03*
X75449300Y-21250000D03*
D14*
X74025000Y-49125000D03*
X97400000Y-36250000D03*
X74175000Y-42450000D03*
X74900000Y-41825000D03*
X75050000Y-48800000D03*
X100700000Y-48600000D03*
X98650000Y-33000000D03*
X78350000Y-24000000D03*
X76350000Y-29050000D03*
X72100000Y-31750000D03*
X75200000Y-33100000D03*
X82150000Y-21150000D03*
X87500000Y-47450000D03*
X87500000Y-45900000D03*
X93300000Y-45050000D03*
X98900000Y-50000000D03*
X96900000Y-42600000D03*
X87100000Y-31550000D03*
X86800000Y-22550000D03*
X92150000Y-25050000D03*
X91150000Y-21300000D03*
X89350000Y-34550000D03*
X75050000Y-27750000D03*
X71950000Y-23900000D03*
X72275000Y-51475000D03*
X74850000Y-46125000D03*
X71625000Y-35200000D03*
X72700000Y-35200000D03*
X100200000Y-41200000D03*
X91600000Y-41300000D03*
X87300000Y-34550000D03*
X87650000Y-50750000D03*
X79225000Y-46150000D03*
X96150000Y-25200000D03*
X96850000Y-33450000D03*
X99700000Y-25900000D03*
X98800000Y-49000000D03*
X75625000Y-35200000D03*
X79625000Y-39975000D03*
X97650000Y-29650000D03*
X89450000Y-22350000D03*
X96400000Y-35800000D03*
X80800000Y-50500000D03*
X100750000Y-21350000D03*
X72800000Y-37825000D03*
X77400000Y-43425000D03*
X96200000Y-48000000D03*
X97200000Y-46600000D03*
X71800000Y-42825000D03*
X72025000Y-43775000D03*
X83200000Y-45900000D03*
X85100000Y-28000000D03*
X100900000Y-25800000D03*
X100300000Y-38400000D03*
X84400000Y-38775000D03*
X93200000Y-23550000D03*
X86750000Y-21200000D03*
X98750000Y-31650000D03*
X83200000Y-47450000D03*
X77400000Y-32550000D03*
X76200000Y-32550000D03*
X71050000Y-31750000D03*
X79350000Y-24850000D03*
X95400000Y-41700000D03*
X98700000Y-41200000D03*
X90900000Y-40125000D03*
X82150000Y-25600000D03*
X86000000Y-38150000D03*
X71050000Y-28250000D03*
X71050000Y-29300000D03*
X73800000Y-23550000D03*
X74900000Y-23500000D03*
X98000000Y-45400000D03*
X98075000Y-43925000D03*
X88500000Y-39125000D03*
X87350000Y-44700000D03*
X89350000Y-44700000D03*
X87450000Y-38975000D03*
X87375000Y-37825000D03*
X82875000Y-38750000D03*
X81950000Y-38300000D03*
X97750000Y-32150000D03*
X96850000Y-34600000D03*
X82600000Y-31150000D03*
X82550000Y-26700000D03*
X80000000Y-30550000D03*
X79950000Y-25750000D03*
X82900000Y-34300000D03*
X80550000Y-41500000D03*
X76300000Y-51450000D03*
X80700000Y-39950000D03*
X81775000Y-34350000D03*
X74925000Y-51450000D03*
X77375000Y-48875000D03*
X82625000Y-49575000D03*
X88400000Y-46625000D03*
X89325000Y-38075000D03*
X81150000Y-43750000D03*
X77625000Y-51575000D03*
X84000000Y-34325000D03*
X90800000Y-29350000D03*
X91250000Y-23250000D03*
X81100000Y-29350000D03*
X81200000Y-26250000D03*
X71000000Y-27100000D03*
X71000000Y-25000000D03*
X71000000Y-26050000D03*
X73500000Y-32200000D03*
X74550000Y-32250000D03*
X88600000Y-43800000D03*
X83300000Y-44000000D03*
X89550000Y-46625000D03*
X82650000Y-50700000D03*
X78475000Y-48875000D03*
X90050000Y-38975000D03*
X79200000Y-42400000D03*
X84300000Y-33200000D03*
X79200000Y-43500000D03*
X85200000Y-32400000D03*
X90000000Y-31350000D03*
X90000000Y-32550000D03*
X93100000Y-35100000D03*
X93150000Y-36600000D03*
D15*
G36*
X101373000Y-52315000D02*
X99779687Y-52315000D01*
X99779687Y-40986216D01*
X99615689Y-40589311D01*
X99312286Y-40285378D01*
X98915668Y-40120687D01*
X98486216Y-40120313D01*
X98089311Y-40284311D01*
X97929687Y-40443656D01*
X97929687Y-34386216D01*
X97765689Y-33989311D01*
X97462286Y-33685378D01*
X97065668Y-33520687D01*
X96636216Y-33520313D01*
X96239311Y-33684311D01*
X95935378Y-33987714D01*
X95770687Y-34384332D01*
X95770313Y-34813784D01*
X95934311Y-35210689D01*
X96237714Y-35514622D01*
X96634332Y-35679313D01*
X97063784Y-35679687D01*
X97460689Y-35515689D01*
X97764622Y-35212286D01*
X97929313Y-34815668D01*
X97929687Y-34386216D01*
X97929687Y-40443656D01*
X97785378Y-40587714D01*
X97620687Y-40984332D01*
X97620313Y-41413784D01*
X97784311Y-41810689D01*
X98087714Y-42114622D01*
X98484332Y-42279313D01*
X98913784Y-42279687D01*
X99310689Y-42115689D01*
X99614622Y-41812286D01*
X99779313Y-41415668D01*
X99779687Y-40986216D01*
X99779687Y-52315000D01*
X99154687Y-52315000D01*
X99154687Y-43711216D01*
X98990689Y-43314311D01*
X98687286Y-43010378D01*
X98290668Y-42845687D01*
X97861216Y-42845313D01*
X97464311Y-43009311D01*
X97160378Y-43312714D01*
X96995687Y-43709332D01*
X96995313Y-44138784D01*
X97159311Y-44535689D01*
X97248421Y-44624954D01*
X97085378Y-44787714D01*
X96920687Y-45184332D01*
X96920370Y-45547519D01*
X96589311Y-45684311D01*
X96479687Y-45793743D01*
X96479687Y-41486216D01*
X96315689Y-41089311D01*
X96012286Y-40785378D01*
X95615668Y-40620687D01*
X95186216Y-40620313D01*
X94789311Y-40784311D01*
X94485378Y-41087714D01*
X94320687Y-41484332D01*
X94320313Y-41913784D01*
X94484311Y-42310689D01*
X94787714Y-42614622D01*
X95184332Y-42779313D01*
X95613784Y-42779687D01*
X96010689Y-42615689D01*
X96314622Y-42312286D01*
X96479313Y-41915668D01*
X96479687Y-41486216D01*
X96479687Y-45793743D01*
X96285378Y-45987714D01*
X96120687Y-46384332D01*
X96120313Y-46813784D01*
X96164394Y-46920468D01*
X95986216Y-46920313D01*
X95589311Y-47084311D01*
X95285378Y-47387714D01*
X95120687Y-47784332D01*
X95120313Y-48213784D01*
X95284311Y-48610689D01*
X95587714Y-48914622D01*
X95984332Y-49079313D01*
X96413784Y-49079687D01*
X96810689Y-48915689D01*
X97114622Y-48612286D01*
X97279313Y-48215668D01*
X97279687Y-47786216D01*
X97235605Y-47679531D01*
X97413784Y-47679687D01*
X97810689Y-47515689D01*
X98114622Y-47212286D01*
X98279313Y-46815668D01*
X98279629Y-46452480D01*
X98610689Y-46315689D01*
X98914622Y-46012286D01*
X99079313Y-45615668D01*
X99079687Y-45186216D01*
X98915689Y-44789311D01*
X98826578Y-44700045D01*
X98989622Y-44537286D01*
X99154313Y-44140668D01*
X99154687Y-43711216D01*
X99154687Y-52315000D01*
X94279687Y-52315000D01*
X94279687Y-23336216D01*
X94115689Y-22939311D01*
X93812286Y-22635378D01*
X93415668Y-22470687D01*
X92986216Y-22470313D01*
X92589311Y-22634311D01*
X92287932Y-22935163D01*
X92165689Y-22639311D01*
X91862286Y-22335378D01*
X91465668Y-22170687D01*
X91036216Y-22170313D01*
X90639311Y-22334311D01*
X90335378Y-22637714D01*
X90170687Y-23034332D01*
X90170313Y-23463784D01*
X90334311Y-23860689D01*
X90637714Y-24164622D01*
X91034332Y-24329313D01*
X91463784Y-24329687D01*
X91860689Y-24165689D01*
X92162067Y-23864836D01*
X92284311Y-24160689D01*
X92587714Y-24464622D01*
X92984332Y-24629313D01*
X93413784Y-24629687D01*
X93810689Y-24465689D01*
X94114622Y-24162286D01*
X94279313Y-23765668D01*
X94279687Y-23336216D01*
X94279687Y-52315000D01*
X94229687Y-52315000D01*
X94229687Y-36386216D01*
X94065689Y-35989311D01*
X93901687Y-35825023D01*
X94014622Y-35712286D01*
X94179313Y-35315668D01*
X94179687Y-34886216D01*
X94015689Y-34489311D01*
X93712286Y-34185378D01*
X93315668Y-34020687D01*
X92886216Y-34020313D01*
X92489311Y-34184311D01*
X92185378Y-34487714D01*
X92020687Y-34884332D01*
X92020313Y-35313784D01*
X92184311Y-35710689D01*
X92348312Y-35874976D01*
X92235378Y-35987714D01*
X92070687Y-36384332D01*
X92070313Y-36813784D01*
X92234311Y-37210689D01*
X92537714Y-37514622D01*
X92934332Y-37679313D01*
X93363784Y-37679687D01*
X93760689Y-37515689D01*
X94064622Y-37212286D01*
X94229313Y-36815668D01*
X94229687Y-36386216D01*
X94229687Y-52315000D01*
X91979687Y-52315000D01*
X91979687Y-39911216D01*
X91879687Y-39669197D01*
X91879687Y-29136216D01*
X91715689Y-28739311D01*
X91412286Y-28435378D01*
X91015668Y-28270687D01*
X90586216Y-28270313D01*
X90189311Y-28434311D01*
X89885378Y-28737714D01*
X89720687Y-29134332D01*
X89720313Y-29563784D01*
X89884311Y-29960689D01*
X90187714Y-30264622D01*
X90202292Y-30270675D01*
X89786216Y-30270313D01*
X89389311Y-30434311D01*
X89085378Y-30737714D01*
X88920687Y-31134332D01*
X88920313Y-31563784D01*
X89080084Y-31950461D01*
X88920687Y-32334332D01*
X88920313Y-32763784D01*
X89084311Y-33160689D01*
X89387714Y-33464622D01*
X89784332Y-33629313D01*
X90213784Y-33629687D01*
X90610689Y-33465689D01*
X90914622Y-33162286D01*
X91079313Y-32765668D01*
X91079687Y-32336216D01*
X90919915Y-31949538D01*
X91079313Y-31565668D01*
X91079687Y-31136216D01*
X90915689Y-30739311D01*
X90612286Y-30435378D01*
X90597707Y-30429324D01*
X91013784Y-30429687D01*
X91410689Y-30265689D01*
X91714622Y-29962286D01*
X91879313Y-29565668D01*
X91879687Y-29136216D01*
X91879687Y-39669197D01*
X91815689Y-39514311D01*
X91512286Y-39210378D01*
X91129434Y-39051403D01*
X91129687Y-38761216D01*
X90965689Y-38364311D01*
X90662286Y-38060378D01*
X90404606Y-37953379D01*
X90404687Y-37861216D01*
X90240689Y-37464311D01*
X89937286Y-37160378D01*
X89540668Y-36995687D01*
X89111216Y-36995313D01*
X88714311Y-37159311D01*
X88410378Y-37462714D01*
X88401831Y-37483296D01*
X88290689Y-37214311D01*
X87987286Y-36910378D01*
X87590668Y-36745687D01*
X87161216Y-36745313D01*
X86764311Y-36909311D01*
X86488969Y-37184172D01*
X86279687Y-37097270D01*
X86279687Y-32186216D01*
X86179687Y-31944197D01*
X86179687Y-27786216D01*
X86015689Y-27389311D01*
X85712286Y-27085378D01*
X85315668Y-26920687D01*
X84886216Y-26920313D01*
X84489311Y-27084311D01*
X84185378Y-27387714D01*
X84020687Y-27784332D01*
X84020313Y-28213784D01*
X84184311Y-28610689D01*
X84487714Y-28914622D01*
X84884332Y-29079313D01*
X85313784Y-29079687D01*
X85710689Y-28915689D01*
X86014622Y-28612286D01*
X86179313Y-28215668D01*
X86179687Y-27786216D01*
X86179687Y-31944197D01*
X86115689Y-31789311D01*
X85812286Y-31485378D01*
X85415668Y-31320687D01*
X84986216Y-31320313D01*
X84589311Y-31484311D01*
X84285378Y-31787714D01*
X84147248Y-32120366D01*
X84086216Y-32120313D01*
X83689311Y-32284311D01*
X83679687Y-32293918D01*
X83679687Y-30936216D01*
X83629687Y-30815206D01*
X83629687Y-26486216D01*
X83465689Y-26089311D01*
X83218505Y-25841695D01*
X83229313Y-25815668D01*
X83229687Y-25386216D01*
X83065689Y-24989311D01*
X82762286Y-24685378D01*
X82365668Y-24520687D01*
X81936216Y-24520313D01*
X81539311Y-24684311D01*
X81235378Y-24987714D01*
X81159493Y-25170463D01*
X80986216Y-25170313D01*
X80894207Y-25208330D01*
X80865689Y-25139311D01*
X80562286Y-24835378D01*
X80429561Y-24780265D01*
X80429687Y-24636216D01*
X80265689Y-24239311D01*
X79962286Y-23935378D01*
X79565668Y-23770687D01*
X79136216Y-23770313D01*
X78739311Y-23934311D01*
X78435378Y-24237714D01*
X78270687Y-24634332D01*
X78270313Y-25063784D01*
X78434311Y-25460689D01*
X78737714Y-25764622D01*
X78870438Y-25819734D01*
X78870313Y-25963784D01*
X79034311Y-26360689D01*
X79337714Y-26664622D01*
X79734332Y-26829313D01*
X80163784Y-26829687D01*
X80255792Y-26791669D01*
X80284311Y-26860689D01*
X80587714Y-27164622D01*
X80984332Y-27329313D01*
X81413784Y-27329687D01*
X81608856Y-27249084D01*
X81634311Y-27310689D01*
X81937714Y-27614622D01*
X82334332Y-27779313D01*
X82763784Y-27779687D01*
X83160689Y-27615689D01*
X83464622Y-27312286D01*
X83629313Y-26915668D01*
X83629687Y-26486216D01*
X83629687Y-30815206D01*
X83515689Y-30539311D01*
X83212286Y-30235378D01*
X82815668Y-30070687D01*
X82386216Y-30070313D01*
X82179687Y-30155649D01*
X82179687Y-29136216D01*
X82015689Y-28739311D01*
X81712286Y-28435378D01*
X81315668Y-28270687D01*
X80886216Y-28270313D01*
X80489311Y-28434311D01*
X80185378Y-28737714D01*
X80020687Y-29134332D01*
X80020394Y-29470516D01*
X79786216Y-29470313D01*
X79389311Y-29634311D01*
X79085378Y-29937714D01*
X78920687Y-30334332D01*
X78920313Y-30763784D01*
X79084311Y-31160689D01*
X79387714Y-31464622D01*
X79784332Y-31629313D01*
X80213784Y-31629687D01*
X80610689Y-31465689D01*
X80914622Y-31162286D01*
X81079313Y-30765668D01*
X81079605Y-30429483D01*
X81313784Y-30429687D01*
X81710689Y-30265689D01*
X82014622Y-29962286D01*
X82179313Y-29565668D01*
X82179687Y-29136216D01*
X82179687Y-30155649D01*
X81989311Y-30234311D01*
X81685378Y-30537714D01*
X81520687Y-30934332D01*
X81520313Y-31363784D01*
X81684311Y-31760689D01*
X81987714Y-32064622D01*
X82384332Y-32229313D01*
X82813784Y-32229687D01*
X83210689Y-32065689D01*
X83514622Y-31762286D01*
X83679313Y-31365668D01*
X83679687Y-30936216D01*
X83679687Y-32293918D01*
X83385378Y-32587714D01*
X83220687Y-32984332D01*
X83220443Y-33264193D01*
X83115668Y-33220687D01*
X82686216Y-33220313D01*
X82289311Y-33384311D01*
X82281964Y-33391644D01*
X81990668Y-33270687D01*
X81561216Y-33270313D01*
X81164311Y-33434311D01*
X80860378Y-33737714D01*
X80695687Y-34134332D01*
X80695313Y-34563784D01*
X80859311Y-34960689D01*
X81162714Y-35264622D01*
X81559332Y-35429313D01*
X81988784Y-35429687D01*
X82385689Y-35265689D01*
X82393035Y-35258355D01*
X82684332Y-35379313D01*
X83113784Y-35379687D01*
X83420160Y-35253094D01*
X83784332Y-35404313D01*
X84213784Y-35404687D01*
X84610689Y-35240689D01*
X84914622Y-34937286D01*
X85079313Y-34540668D01*
X85079687Y-34111216D01*
X85031644Y-33994944D01*
X85214622Y-33812286D01*
X85352751Y-33479633D01*
X85413784Y-33479687D01*
X85810689Y-33315689D01*
X86114622Y-33012286D01*
X86279313Y-32615668D01*
X86279687Y-32186216D01*
X86279687Y-37097270D01*
X86215668Y-37070687D01*
X85786216Y-37070313D01*
X85389311Y-37234311D01*
X85085378Y-37537714D01*
X84960350Y-37838812D01*
X84615668Y-37695687D01*
X84186216Y-37695313D01*
X83789311Y-37859311D01*
X83650001Y-37998377D01*
X83487286Y-37835378D01*
X83090668Y-37670687D01*
X82846885Y-37670474D01*
X82562286Y-37385378D01*
X82165668Y-37220687D01*
X81736216Y-37220313D01*
X81339311Y-37384311D01*
X81035378Y-37687714D01*
X80870687Y-38084332D01*
X80870313Y-38513784D01*
X81034311Y-38910689D01*
X81050104Y-38926510D01*
X80915668Y-38870687D01*
X80486216Y-38870313D01*
X80089311Y-39034311D01*
X79785378Y-39337714D01*
X79620687Y-39734332D01*
X79620313Y-40163784D01*
X79784311Y-40560689D01*
X79873486Y-40650020D01*
X79635378Y-40887714D01*
X79470687Y-41284332D01*
X79470635Y-41343511D01*
X79415668Y-41320687D01*
X78986216Y-41320313D01*
X78589311Y-41484311D01*
X78285378Y-41787714D01*
X78120687Y-42184332D01*
X78120313Y-42613784D01*
X78123703Y-42621990D01*
X78012286Y-42510378D01*
X77615668Y-42345687D01*
X77186216Y-42345313D01*
X76789311Y-42509311D01*
X76485378Y-42812714D01*
X76320687Y-43209332D01*
X76320313Y-43638784D01*
X76484311Y-44035689D01*
X76787714Y-44339622D01*
X77184332Y-44504313D01*
X77613784Y-44504687D01*
X78010689Y-44340689D01*
X78271689Y-44080143D01*
X78284311Y-44110689D01*
X78587714Y-44414622D01*
X78984332Y-44579313D01*
X79413784Y-44579687D01*
X79810689Y-44415689D01*
X80114622Y-44112286D01*
X80123168Y-44091703D01*
X80234311Y-44360689D01*
X80537714Y-44664622D01*
X80934332Y-44829313D01*
X81363784Y-44829687D01*
X81760689Y-44665689D01*
X82064622Y-44362286D01*
X82220510Y-43986866D01*
X82220313Y-44213784D01*
X82384311Y-44610689D01*
X82687714Y-44914622D01*
X82722755Y-44929172D01*
X82589311Y-44984311D01*
X82285378Y-45287714D01*
X82120687Y-45684332D01*
X82120313Y-46113784D01*
X82284311Y-46510689D01*
X82448355Y-46675020D01*
X82285378Y-46837714D01*
X82120687Y-47234332D01*
X82120313Y-47663784D01*
X82284311Y-48060689D01*
X82587714Y-48364622D01*
X82984332Y-48529313D01*
X83413784Y-48529687D01*
X83810689Y-48365689D01*
X84114622Y-48062286D01*
X84279313Y-47665668D01*
X84279687Y-47236216D01*
X84115689Y-46839311D01*
X83951644Y-46674979D01*
X84114622Y-46512286D01*
X84279313Y-46115668D01*
X84279687Y-45686216D01*
X84115689Y-45289311D01*
X83812286Y-44985378D01*
X83777244Y-44970827D01*
X83910689Y-44915689D01*
X84214622Y-44612286D01*
X84379313Y-44215668D01*
X84379687Y-43786216D01*
X84215689Y-43389311D01*
X83912286Y-43085378D01*
X83515668Y-42920687D01*
X83086216Y-42920313D01*
X82689311Y-43084311D01*
X82385378Y-43387714D01*
X82229489Y-43763133D01*
X82229687Y-43536216D01*
X82065689Y-43139311D01*
X81762286Y-42835378D01*
X81365668Y-42670687D01*
X80936216Y-42670313D01*
X80539311Y-42834311D01*
X80235378Y-43137714D01*
X80226831Y-43158296D01*
X80140625Y-42949662D01*
X80279313Y-42615668D01*
X80279364Y-42556488D01*
X80334332Y-42579313D01*
X80763784Y-42579687D01*
X81160689Y-42415689D01*
X81464622Y-42112286D01*
X81629313Y-41715668D01*
X81629687Y-41286216D01*
X81465689Y-40889311D01*
X81376513Y-40799979D01*
X81614622Y-40562286D01*
X81779313Y-40165668D01*
X81779687Y-39736216D01*
X81615689Y-39339311D01*
X81599895Y-39323489D01*
X81734332Y-39379313D01*
X81978114Y-39379525D01*
X82262714Y-39664622D01*
X82659332Y-39829313D01*
X83088784Y-39829687D01*
X83485689Y-39665689D01*
X83624998Y-39526622D01*
X83787714Y-39689622D01*
X84184332Y-39854313D01*
X84613784Y-39854687D01*
X85010689Y-39690689D01*
X85314622Y-39387286D01*
X85439649Y-39086187D01*
X85784332Y-39229313D01*
X86213784Y-39229687D01*
X86370333Y-39165001D01*
X86370313Y-39188784D01*
X86534311Y-39585689D01*
X86837714Y-39889622D01*
X87234332Y-40054313D01*
X87663784Y-40054687D01*
X87832968Y-39984781D01*
X87887714Y-40039622D01*
X88284332Y-40204313D01*
X88713784Y-40204687D01*
X89110689Y-40040689D01*
X89350020Y-39801775D01*
X89437714Y-39889622D01*
X89820565Y-40048596D01*
X89820313Y-40338784D01*
X89984311Y-40735689D01*
X90287714Y-41039622D01*
X90684332Y-41204313D01*
X91113784Y-41204687D01*
X91510689Y-41040689D01*
X91814622Y-40737286D01*
X91979313Y-40340668D01*
X91979687Y-39911216D01*
X91979687Y-52315000D01*
X90685000Y-52315000D01*
X90685000Y-52000000D01*
X90632857Y-51737862D01*
X90629687Y-51733117D01*
X90629687Y-46411216D01*
X90465689Y-46014311D01*
X90162286Y-45710378D01*
X89947437Y-45621164D01*
X89960689Y-45615689D01*
X90264622Y-45312286D01*
X90429313Y-44915668D01*
X90429687Y-44486216D01*
X90265689Y-44089311D01*
X89962286Y-43785378D01*
X89679615Y-43668002D01*
X89679687Y-43586216D01*
X89515689Y-43189311D01*
X89212286Y-42885378D01*
X88815668Y-42720687D01*
X88386216Y-42720313D01*
X87989311Y-42884311D01*
X87685378Y-43187714D01*
X87520687Y-43584332D01*
X87520655Y-43620647D01*
X87136216Y-43620313D01*
X86739311Y-43784311D01*
X86435378Y-44087714D01*
X86270687Y-44484332D01*
X86270313Y-44913784D01*
X86434311Y-45310689D01*
X86737714Y-45614622D01*
X87134332Y-45779313D01*
X87563784Y-45779687D01*
X87960689Y-45615689D01*
X88264622Y-45312286D01*
X88350006Y-45106657D01*
X88434311Y-45310689D01*
X88706586Y-45583439D01*
X88615668Y-45545687D01*
X88186216Y-45545313D01*
X87789311Y-45709311D01*
X87485378Y-46012714D01*
X87320687Y-46409332D01*
X87320313Y-46838784D01*
X87484311Y-47235689D01*
X87787714Y-47539622D01*
X88184332Y-47704313D01*
X88613784Y-47704687D01*
X88975399Y-47555270D01*
X89334332Y-47704313D01*
X89763784Y-47704687D01*
X90160689Y-47540689D01*
X90464622Y-47237286D01*
X90629313Y-46840668D01*
X90629687Y-46411216D01*
X90629687Y-51733117D01*
X90627000Y-51729096D01*
X90627000Y-51373000D01*
X90270903Y-51373000D01*
X90262138Y-51367143D01*
X90000000Y-51315000D01*
X83561903Y-51315000D01*
X83564622Y-51312286D01*
X83729313Y-50915668D01*
X83729687Y-50486216D01*
X83572978Y-50106953D01*
X83704313Y-49790668D01*
X83704687Y-49361216D01*
X83540689Y-48964311D01*
X83237286Y-48660378D01*
X82840668Y-48495687D01*
X82411216Y-48495313D01*
X82014311Y-48659311D01*
X81710378Y-48962714D01*
X81545687Y-49359332D01*
X81545313Y-49788784D01*
X81702021Y-50168046D01*
X81570687Y-50484332D01*
X81570313Y-50913784D01*
X81734311Y-51310689D01*
X81781918Y-51358379D01*
X81737862Y-51367143D01*
X81729096Y-51373000D01*
X81373000Y-51373000D01*
X81373000Y-51729096D01*
X81367143Y-51737862D01*
X81315000Y-52000000D01*
X81315000Y-52315000D01*
X79554687Y-52315000D01*
X79554687Y-48661216D01*
X79390689Y-48264311D01*
X79087286Y-47960378D01*
X78690668Y-47795687D01*
X78261216Y-47795313D01*
X77924662Y-47934374D01*
X77590668Y-47795687D01*
X77161216Y-47795313D01*
X76764311Y-47959311D01*
X76460378Y-48262714D01*
X76295687Y-48659332D01*
X76295313Y-49088784D01*
X76459311Y-49485689D01*
X76762714Y-49789622D01*
X77159332Y-49954313D01*
X77588784Y-49954687D01*
X77925337Y-49815625D01*
X78259332Y-49954313D01*
X78688784Y-49954687D01*
X79085689Y-49790689D01*
X79389622Y-49487286D01*
X79554313Y-49090668D01*
X79554687Y-48661216D01*
X79554687Y-52315000D01*
X78411684Y-52315000D01*
X78539622Y-52187286D01*
X78704313Y-51790668D01*
X78704687Y-51361216D01*
X78540689Y-50964311D01*
X78237286Y-50660378D01*
X77840668Y-50495687D01*
X77411216Y-50495313D01*
X77029668Y-50652965D01*
X76912286Y-50535378D01*
X76515668Y-50370687D01*
X76086216Y-50370313D01*
X75689311Y-50534311D01*
X75612632Y-50610855D01*
X75537286Y-50535378D01*
X75301229Y-50437358D01*
X75301229Y-39301131D01*
X75301229Y-38698869D01*
X75301229Y-34301131D01*
X75152563Y-34127000D01*
X74327000Y-34127000D01*
X74327000Y-35092734D01*
X74497938Y-35219268D01*
X74871821Y-35035552D01*
X75159568Y-34711049D01*
X75301229Y-34301131D01*
X75301229Y-38698869D01*
X75159568Y-38288951D01*
X74871821Y-37964448D01*
X74497938Y-37780732D01*
X74327000Y-37907266D01*
X74327000Y-38873000D01*
X75152563Y-38873000D01*
X75301229Y-38698869D01*
X75301229Y-39301131D01*
X75152563Y-39127000D01*
X74327000Y-39127000D01*
X74327000Y-40092734D01*
X74497938Y-40219268D01*
X74871821Y-40035552D01*
X75159568Y-39711049D01*
X75301229Y-39301131D01*
X75301229Y-50437358D01*
X75140668Y-50370687D01*
X75104687Y-50370655D01*
X75104687Y-48911216D01*
X74940689Y-48514311D01*
X74637286Y-48210378D01*
X74240668Y-48045687D01*
X74073000Y-48045540D01*
X74073000Y-40092734D01*
X74073000Y-39127000D01*
X74073000Y-38873000D01*
X74073000Y-37907266D01*
X74073000Y-35092734D01*
X74073000Y-34127000D01*
X73247437Y-34127000D01*
X73098771Y-34301131D01*
X73240432Y-34711049D01*
X73528179Y-35035552D01*
X73902062Y-35219268D01*
X74073000Y-35092734D01*
X74073000Y-37907266D01*
X73902062Y-37780732D01*
X73879529Y-37791803D01*
X73879687Y-37611216D01*
X73715689Y-37214311D01*
X73412286Y-36910378D01*
X73015668Y-36745687D01*
X72869119Y-36745559D01*
X72586216Y-36745313D01*
X72189311Y-36909311D01*
X71885378Y-37212714D01*
X71720687Y-37609332D01*
X71720313Y-38038784D01*
X71884311Y-38435689D01*
X72187714Y-38739622D01*
X72584332Y-38904313D01*
X73013784Y-38904687D01*
X73206504Y-38825056D01*
X73247437Y-38873000D01*
X74073000Y-38873000D01*
X74073000Y-39127000D01*
X73247437Y-39127000D01*
X73098771Y-39301131D01*
X73240432Y-39711049D01*
X73528179Y-40035552D01*
X73902062Y-40219268D01*
X74073000Y-40092734D01*
X74073000Y-48045540D01*
X73811216Y-48045313D01*
X73414311Y-48209311D01*
X73400241Y-48223356D01*
X73387286Y-48210378D01*
X73104687Y-48093032D01*
X73104687Y-43561216D01*
X72940689Y-43164311D01*
X72861084Y-43084567D01*
X72879313Y-43040668D01*
X72879687Y-42611216D01*
X72869119Y-42585639D01*
X72869119Y-40301874D01*
X72869119Y-39698126D01*
X72667368Y-39287237D01*
X72326678Y-38999998D01*
X71902000Y-38865000D01*
X71627000Y-38865000D01*
X71627000Y-39873000D01*
X72742954Y-39873000D01*
X72869119Y-39698126D01*
X72869119Y-40301874D01*
X72742954Y-40127000D01*
X71627000Y-40127000D01*
X71627000Y-41135000D01*
X71902000Y-41135000D01*
X72326678Y-41000002D01*
X72667368Y-40712763D01*
X72869119Y-40301874D01*
X72869119Y-42585639D01*
X72715689Y-42214311D01*
X72412286Y-41910378D01*
X72015668Y-41745687D01*
X71586216Y-41745313D01*
X71189311Y-41909311D01*
X70885378Y-42212714D01*
X70720687Y-42609332D01*
X70720313Y-43038784D01*
X70884311Y-43435689D01*
X70963915Y-43515432D01*
X70945687Y-43559332D01*
X70945313Y-43988784D01*
X71109311Y-44385689D01*
X71412714Y-44689622D01*
X71809332Y-44854313D01*
X72238784Y-44854687D01*
X72635689Y-44690689D01*
X72939622Y-44387286D01*
X73104313Y-43990668D01*
X73104687Y-43561216D01*
X73104687Y-48093032D01*
X72990668Y-48045687D01*
X72561216Y-48045313D01*
X72164311Y-48209311D01*
X71860378Y-48512714D01*
X71695687Y-48909332D01*
X71695313Y-49338784D01*
X71859311Y-49735689D01*
X72162714Y-50039622D01*
X72559332Y-50204313D01*
X72988784Y-50204687D01*
X73385689Y-50040689D01*
X73399758Y-50026643D01*
X73412714Y-50039622D01*
X73809332Y-50204313D01*
X74238784Y-50204687D01*
X74635689Y-50040689D01*
X74939622Y-49737286D01*
X75104313Y-49340668D01*
X75104687Y-48911216D01*
X75104687Y-50370655D01*
X74711216Y-50370313D01*
X74314311Y-50534311D01*
X74010378Y-50837714D01*
X73845687Y-51234332D01*
X73845313Y-51663784D01*
X74009311Y-52060689D01*
X74263178Y-52315000D01*
X70685000Y-52315000D01*
X70685000Y-41003714D01*
X71098000Y-41135000D01*
X71373000Y-41135000D01*
X71373000Y-40127000D01*
X71353000Y-40127000D01*
X71353000Y-39873000D01*
X71373000Y-39873000D01*
X71373000Y-38865000D01*
X71098000Y-38865000D01*
X70685000Y-38996285D01*
X70685000Y-34003714D01*
X71098000Y-34135000D01*
X71373000Y-34135000D01*
X71373000Y-33127000D01*
X71353000Y-33127000D01*
X71353000Y-32873000D01*
X71373000Y-32873000D01*
X71373000Y-32853000D01*
X71627000Y-32853000D01*
X71627000Y-32873000D01*
X71647000Y-32873000D01*
X71647000Y-33127000D01*
X71627000Y-33127000D01*
X71627000Y-34135000D01*
X71902000Y-34135000D01*
X72326678Y-34000002D01*
X72667368Y-33712763D01*
X72869119Y-33301874D01*
X72742955Y-33127002D01*
X72910000Y-33127002D01*
X72910000Y-33123875D01*
X73258492Y-33268583D01*
X73240432Y-33288951D01*
X73098771Y-33698869D01*
X73247437Y-33873000D01*
X74073000Y-33873000D01*
X74073000Y-33853000D01*
X74327000Y-33853000D01*
X74327000Y-33873000D01*
X75152563Y-33873000D01*
X75301229Y-33698869D01*
X75159568Y-33288951D01*
X75079876Y-33199080D01*
X75160689Y-33165689D01*
X75249673Y-33076859D01*
X75284311Y-33160689D01*
X75587714Y-33464622D01*
X75984332Y-33629313D01*
X76413784Y-33629687D01*
X76800461Y-33469915D01*
X77184332Y-33629313D01*
X77613784Y-33629687D01*
X78010689Y-33465689D01*
X78314622Y-33162286D01*
X78479313Y-32765668D01*
X78479687Y-32336216D01*
X78315689Y-31939311D01*
X78012286Y-31635378D01*
X77615668Y-31470687D01*
X77186216Y-31470313D01*
X76799538Y-31630084D01*
X76415668Y-31470687D01*
X75986216Y-31470313D01*
X75979687Y-31473010D01*
X75979687Y-23286216D01*
X75815689Y-22889311D01*
X75512286Y-22585378D01*
X75115668Y-22420687D01*
X74686216Y-22420313D01*
X74289311Y-22584311D01*
X74289308Y-22584313D01*
X74015668Y-22470687D01*
X73586216Y-22470313D01*
X73189311Y-22634311D01*
X72885378Y-22937714D01*
X72720687Y-23334332D01*
X72720313Y-23763784D01*
X72884311Y-24160689D01*
X73187714Y-24464622D01*
X73584332Y-24629313D01*
X74013784Y-24629687D01*
X74410689Y-24465689D01*
X74410691Y-24465686D01*
X74684332Y-24579313D01*
X75113784Y-24579687D01*
X75510689Y-24415689D01*
X75814622Y-24112286D01*
X75979313Y-23715668D01*
X75979687Y-23286216D01*
X75979687Y-31473010D01*
X75589311Y-31634311D01*
X75500326Y-31723140D01*
X75465689Y-31639311D01*
X75162286Y-31335378D01*
X74765668Y-31170687D01*
X74336216Y-31170313D01*
X74085079Y-31274080D01*
X73715668Y-31120687D01*
X73286216Y-31120313D01*
X72889311Y-31284311D01*
X72585378Y-31587714D01*
X72420687Y-31984332D01*
X72420604Y-32079188D01*
X72326678Y-31999998D01*
X72129337Y-31937266D01*
X72129687Y-31536216D01*
X71965689Y-31139311D01*
X71662286Y-30835378D01*
X71265668Y-30670687D01*
X70836216Y-30670313D01*
X70685000Y-30732794D01*
X70685000Y-30317304D01*
X70834332Y-30379313D01*
X71263784Y-30379687D01*
X71660689Y-30215689D01*
X71964622Y-29912286D01*
X72129313Y-29515668D01*
X72129687Y-29086216D01*
X72000981Y-28774724D01*
X72129313Y-28465668D01*
X72129687Y-28036216D01*
X71965689Y-27639311D01*
X71951024Y-27624620D01*
X72079313Y-27315668D01*
X72079687Y-26886216D01*
X71950981Y-26574724D01*
X72079313Y-26265668D01*
X72079687Y-25836216D01*
X71950981Y-25524724D01*
X72079313Y-25215668D01*
X72079687Y-24786216D01*
X71915689Y-24389311D01*
X71612286Y-24085378D01*
X71215668Y-23920687D01*
X70786216Y-23920313D01*
X70685000Y-23962134D01*
X70685000Y-20685000D01*
X72955937Y-20685000D01*
X72815518Y-21023168D01*
X72815124Y-21474850D01*
X72987611Y-21892301D01*
X73306719Y-22211967D01*
X73723868Y-22385182D01*
X74175550Y-22385576D01*
X74593001Y-22213089D01*
X74699906Y-22106370D01*
X74805319Y-22211967D01*
X75222468Y-22385182D01*
X75674150Y-22385576D01*
X76091601Y-22213089D01*
X76411267Y-21893981D01*
X76584482Y-21476832D01*
X76584876Y-21025150D01*
X76444329Y-20685000D01*
X85794981Y-20685000D01*
X85670687Y-20984332D01*
X85670313Y-21413784D01*
X85834311Y-21810689D01*
X86137714Y-22114622D01*
X86534332Y-22279313D01*
X86963784Y-22279687D01*
X87360689Y-22115689D01*
X87664622Y-21812286D01*
X87829313Y-21415668D01*
X87829687Y-20986216D01*
X87705226Y-20685000D01*
X101315000Y-20685000D01*
X101315000Y-24803457D01*
X101115668Y-24720687D01*
X100686216Y-24720313D01*
X100289311Y-24884311D01*
X99985378Y-25187714D01*
X99820687Y-25584332D01*
X99820313Y-26013784D01*
X99984311Y-26410689D01*
X100287714Y-26714622D01*
X100684332Y-26879313D01*
X101113784Y-26879687D01*
X101315000Y-26796546D01*
X101315000Y-38029661D01*
X101215689Y-37789311D01*
X100912286Y-37485378D01*
X100515668Y-37320687D01*
X100086216Y-37320313D01*
X99829687Y-37426308D01*
X99829687Y-31436216D01*
X99665689Y-31039311D01*
X99362286Y-30735378D01*
X98965668Y-30570687D01*
X98536216Y-30570313D01*
X98139311Y-30734311D01*
X97835378Y-31037714D01*
X97821738Y-31070561D01*
X97536216Y-31070313D01*
X97139311Y-31234311D01*
X96835378Y-31537714D01*
X96670687Y-31934332D01*
X96670313Y-32363784D01*
X96834311Y-32760689D01*
X97137714Y-33064622D01*
X97534332Y-33229313D01*
X97963784Y-33229687D01*
X98360689Y-33065689D01*
X98664622Y-32762286D01*
X98678261Y-32729438D01*
X98963784Y-32729687D01*
X99360689Y-32565689D01*
X99664622Y-32262286D01*
X99829313Y-31865668D01*
X99829687Y-31436216D01*
X99829687Y-37426308D01*
X99689311Y-37484311D01*
X99385378Y-37787714D01*
X99220687Y-38184332D01*
X99220313Y-38613784D01*
X99384311Y-39010689D01*
X99687714Y-39314622D01*
X100084332Y-39479313D01*
X100513784Y-39479687D01*
X100910689Y-39315689D01*
X101214622Y-39012286D01*
X101315000Y-38770550D01*
X101315000Y-40000000D01*
X101367143Y-40262138D01*
X101373000Y-40270903D01*
X101373000Y-52315000D01*
X101373000Y-52315000D01*
G37*
X101373000Y-52315000D02*
X99779687Y-52315000D01*
X99779687Y-40986216D01*
X99615689Y-40589311D01*
X99312286Y-40285378D01*
X98915668Y-40120687D01*
X98486216Y-40120313D01*
X98089311Y-40284311D01*
X97929687Y-40443656D01*
X97929687Y-34386216D01*
X97765689Y-33989311D01*
X97462286Y-33685378D01*
X97065668Y-33520687D01*
X96636216Y-33520313D01*
X96239311Y-33684311D01*
X95935378Y-33987714D01*
X95770687Y-34384332D01*
X95770313Y-34813784D01*
X95934311Y-35210689D01*
X96237714Y-35514622D01*
X96634332Y-35679313D01*
X97063784Y-35679687D01*
X97460689Y-35515689D01*
X97764622Y-35212286D01*
X97929313Y-34815668D01*
X97929687Y-34386216D01*
X97929687Y-40443656D01*
X97785378Y-40587714D01*
X97620687Y-40984332D01*
X97620313Y-41413784D01*
X97784311Y-41810689D01*
X98087714Y-42114622D01*
X98484332Y-42279313D01*
X98913784Y-42279687D01*
X99310689Y-42115689D01*
X99614622Y-41812286D01*
X99779313Y-41415668D01*
X99779687Y-40986216D01*
X99779687Y-52315000D01*
X99154687Y-52315000D01*
X99154687Y-43711216D01*
X98990689Y-43314311D01*
X98687286Y-43010378D01*
X98290668Y-42845687D01*
X97861216Y-42845313D01*
X97464311Y-43009311D01*
X97160378Y-43312714D01*
X96995687Y-43709332D01*
X96995313Y-44138784D01*
X97159311Y-44535689D01*
X97248421Y-44624954D01*
X97085378Y-44787714D01*
X96920687Y-45184332D01*
X96920370Y-45547519D01*
X96589311Y-45684311D01*
X96479687Y-45793743D01*
X96479687Y-41486216D01*
X96315689Y-41089311D01*
X96012286Y-40785378D01*
X95615668Y-40620687D01*
X95186216Y-40620313D01*
X94789311Y-40784311D01*
X94485378Y-41087714D01*
X94320687Y-41484332D01*
X94320313Y-41913784D01*
X94484311Y-42310689D01*
X94787714Y-42614622D01*
X95184332Y-42779313D01*
X95613784Y-42779687D01*
X96010689Y-42615689D01*
X96314622Y-42312286D01*
X96479313Y-41915668D01*
X96479687Y-41486216D01*
X96479687Y-45793743D01*
X96285378Y-45987714D01*
X96120687Y-46384332D01*
X96120313Y-46813784D01*
X96164394Y-46920468D01*
X95986216Y-46920313D01*
X95589311Y-47084311D01*
X95285378Y-47387714D01*
X95120687Y-47784332D01*
X95120313Y-48213784D01*
X95284311Y-48610689D01*
X95587714Y-48914622D01*
X95984332Y-49079313D01*
X96413784Y-49079687D01*
X96810689Y-48915689D01*
X97114622Y-48612286D01*
X97279313Y-48215668D01*
X97279687Y-47786216D01*
X97235605Y-47679531D01*
X97413784Y-47679687D01*
X97810689Y-47515689D01*
X98114622Y-47212286D01*
X98279313Y-46815668D01*
X98279629Y-46452480D01*
X98610689Y-46315689D01*
X98914622Y-46012286D01*
X99079313Y-45615668D01*
X99079687Y-45186216D01*
X98915689Y-44789311D01*
X98826578Y-44700045D01*
X98989622Y-44537286D01*
X99154313Y-44140668D01*
X99154687Y-43711216D01*
X99154687Y-52315000D01*
X94279687Y-52315000D01*
X94279687Y-23336216D01*
X94115689Y-22939311D01*
X93812286Y-22635378D01*
X93415668Y-22470687D01*
X92986216Y-22470313D01*
X92589311Y-22634311D01*
X92287932Y-22935163D01*
X92165689Y-22639311D01*
X91862286Y-22335378D01*
X91465668Y-22170687D01*
X91036216Y-22170313D01*
X90639311Y-22334311D01*
X90335378Y-22637714D01*
X90170687Y-23034332D01*
X90170313Y-23463784D01*
X90334311Y-23860689D01*
X90637714Y-24164622D01*
X91034332Y-24329313D01*
X91463784Y-24329687D01*
X91860689Y-24165689D01*
X92162067Y-23864836D01*
X92284311Y-24160689D01*
X92587714Y-24464622D01*
X92984332Y-24629313D01*
X93413784Y-24629687D01*
X93810689Y-24465689D01*
X94114622Y-24162286D01*
X94279313Y-23765668D01*
X94279687Y-23336216D01*
X94279687Y-52315000D01*
X94229687Y-52315000D01*
X94229687Y-36386216D01*
X94065689Y-35989311D01*
X93901687Y-35825023D01*
X94014622Y-35712286D01*
X94179313Y-35315668D01*
X94179687Y-34886216D01*
X94015689Y-34489311D01*
X93712286Y-34185378D01*
X93315668Y-34020687D01*
X92886216Y-34020313D01*
X92489311Y-34184311D01*
X92185378Y-34487714D01*
X92020687Y-34884332D01*
X92020313Y-35313784D01*
X92184311Y-35710689D01*
X92348312Y-35874976D01*
X92235378Y-35987714D01*
X92070687Y-36384332D01*
X92070313Y-36813784D01*
X92234311Y-37210689D01*
X92537714Y-37514622D01*
X92934332Y-37679313D01*
X93363784Y-37679687D01*
X93760689Y-37515689D01*
X94064622Y-37212286D01*
X94229313Y-36815668D01*
X94229687Y-36386216D01*
X94229687Y-52315000D01*
X91979687Y-52315000D01*
X91979687Y-39911216D01*
X91879687Y-39669197D01*
X91879687Y-29136216D01*
X91715689Y-28739311D01*
X91412286Y-28435378D01*
X91015668Y-28270687D01*
X90586216Y-28270313D01*
X90189311Y-28434311D01*
X89885378Y-28737714D01*
X89720687Y-29134332D01*
X89720313Y-29563784D01*
X89884311Y-29960689D01*
X90187714Y-30264622D01*
X90202292Y-30270675D01*
X89786216Y-30270313D01*
X89389311Y-30434311D01*
X89085378Y-30737714D01*
X88920687Y-31134332D01*
X88920313Y-31563784D01*
X89080084Y-31950461D01*
X88920687Y-32334332D01*
X88920313Y-32763784D01*
X89084311Y-33160689D01*
X89387714Y-33464622D01*
X89784332Y-33629313D01*
X90213784Y-33629687D01*
X90610689Y-33465689D01*
X90914622Y-33162286D01*
X91079313Y-32765668D01*
X91079687Y-32336216D01*
X90919915Y-31949538D01*
X91079313Y-31565668D01*
X91079687Y-31136216D01*
X90915689Y-30739311D01*
X90612286Y-30435378D01*
X90597707Y-30429324D01*
X91013784Y-30429687D01*
X91410689Y-30265689D01*
X91714622Y-29962286D01*
X91879313Y-29565668D01*
X91879687Y-29136216D01*
X91879687Y-39669197D01*
X91815689Y-39514311D01*
X91512286Y-39210378D01*
X91129434Y-39051403D01*
X91129687Y-38761216D01*
X90965689Y-38364311D01*
X90662286Y-38060378D01*
X90404606Y-37953379D01*
X90404687Y-37861216D01*
X90240689Y-37464311D01*
X89937286Y-37160378D01*
X89540668Y-36995687D01*
X89111216Y-36995313D01*
X88714311Y-37159311D01*
X88410378Y-37462714D01*
X88401831Y-37483296D01*
X88290689Y-37214311D01*
X87987286Y-36910378D01*
X87590668Y-36745687D01*
X87161216Y-36745313D01*
X86764311Y-36909311D01*
X86488969Y-37184172D01*
X86279687Y-37097270D01*
X86279687Y-32186216D01*
X86179687Y-31944197D01*
X86179687Y-27786216D01*
X86015689Y-27389311D01*
X85712286Y-27085378D01*
X85315668Y-26920687D01*
X84886216Y-26920313D01*
X84489311Y-27084311D01*
X84185378Y-27387714D01*
X84020687Y-27784332D01*
X84020313Y-28213784D01*
X84184311Y-28610689D01*
X84487714Y-28914622D01*
X84884332Y-29079313D01*
X85313784Y-29079687D01*
X85710689Y-28915689D01*
X86014622Y-28612286D01*
X86179313Y-28215668D01*
X86179687Y-27786216D01*
X86179687Y-31944197D01*
X86115689Y-31789311D01*
X85812286Y-31485378D01*
X85415668Y-31320687D01*
X84986216Y-31320313D01*
X84589311Y-31484311D01*
X84285378Y-31787714D01*
X84147248Y-32120366D01*
X84086216Y-32120313D01*
X83689311Y-32284311D01*
X83679687Y-32293918D01*
X83679687Y-30936216D01*
X83629687Y-30815206D01*
X83629687Y-26486216D01*
X83465689Y-26089311D01*
X83218505Y-25841695D01*
X83229313Y-25815668D01*
X83229687Y-25386216D01*
X83065689Y-24989311D01*
X82762286Y-24685378D01*
X82365668Y-24520687D01*
X81936216Y-24520313D01*
X81539311Y-24684311D01*
X81235378Y-24987714D01*
X81159493Y-25170463D01*
X80986216Y-25170313D01*
X80894207Y-25208330D01*
X80865689Y-25139311D01*
X80562286Y-24835378D01*
X80429561Y-24780265D01*
X80429687Y-24636216D01*
X80265689Y-24239311D01*
X79962286Y-23935378D01*
X79565668Y-23770687D01*
X79136216Y-23770313D01*
X78739311Y-23934311D01*
X78435378Y-24237714D01*
X78270687Y-24634332D01*
X78270313Y-25063784D01*
X78434311Y-25460689D01*
X78737714Y-25764622D01*
X78870438Y-25819734D01*
X78870313Y-25963784D01*
X79034311Y-26360689D01*
X79337714Y-26664622D01*
X79734332Y-26829313D01*
X80163784Y-26829687D01*
X80255792Y-26791669D01*
X80284311Y-26860689D01*
X80587714Y-27164622D01*
X80984332Y-27329313D01*
X81413784Y-27329687D01*
X81608856Y-27249084D01*
X81634311Y-27310689D01*
X81937714Y-27614622D01*
X82334332Y-27779313D01*
X82763784Y-27779687D01*
X83160689Y-27615689D01*
X83464622Y-27312286D01*
X83629313Y-26915668D01*
X83629687Y-26486216D01*
X83629687Y-30815206D01*
X83515689Y-30539311D01*
X83212286Y-30235378D01*
X82815668Y-30070687D01*
X82386216Y-30070313D01*
X82179687Y-30155649D01*
X82179687Y-29136216D01*
X82015689Y-28739311D01*
X81712286Y-28435378D01*
X81315668Y-28270687D01*
X80886216Y-28270313D01*
X80489311Y-28434311D01*
X80185378Y-28737714D01*
X80020687Y-29134332D01*
X80020394Y-29470516D01*
X79786216Y-29470313D01*
X79389311Y-29634311D01*
X79085378Y-29937714D01*
X78920687Y-30334332D01*
X78920313Y-30763784D01*
X79084311Y-31160689D01*
X79387714Y-31464622D01*
X79784332Y-31629313D01*
X80213784Y-31629687D01*
X80610689Y-31465689D01*
X80914622Y-31162286D01*
X81079313Y-30765668D01*
X81079605Y-30429483D01*
X81313784Y-30429687D01*
X81710689Y-30265689D01*
X82014622Y-29962286D01*
X82179313Y-29565668D01*
X82179687Y-29136216D01*
X82179687Y-30155649D01*
X81989311Y-30234311D01*
X81685378Y-30537714D01*
X81520687Y-30934332D01*
X81520313Y-31363784D01*
X81684311Y-31760689D01*
X81987714Y-32064622D01*
X82384332Y-32229313D01*
X82813784Y-32229687D01*
X83210689Y-32065689D01*
X83514622Y-31762286D01*
X83679313Y-31365668D01*
X83679687Y-30936216D01*
X83679687Y-32293918D01*
X83385378Y-32587714D01*
X83220687Y-32984332D01*
X83220443Y-33264193D01*
X83115668Y-33220687D01*
X82686216Y-33220313D01*
X82289311Y-33384311D01*
X82281964Y-33391644D01*
X81990668Y-33270687D01*
X81561216Y-33270313D01*
X81164311Y-33434311D01*
X80860378Y-33737714D01*
X80695687Y-34134332D01*
X80695313Y-34563784D01*
X80859311Y-34960689D01*
X81162714Y-35264622D01*
X81559332Y-35429313D01*
X81988784Y-35429687D01*
X82385689Y-35265689D01*
X82393035Y-35258355D01*
X82684332Y-35379313D01*
X83113784Y-35379687D01*
X83420160Y-35253094D01*
X83784332Y-35404313D01*
X84213784Y-35404687D01*
X84610689Y-35240689D01*
X84914622Y-34937286D01*
X85079313Y-34540668D01*
X85079687Y-34111216D01*
X85031644Y-33994944D01*
X85214622Y-33812286D01*
X85352751Y-33479633D01*
X85413784Y-33479687D01*
X85810689Y-33315689D01*
X86114622Y-33012286D01*
X86279313Y-32615668D01*
X86279687Y-32186216D01*
X86279687Y-37097270D01*
X86215668Y-37070687D01*
X85786216Y-37070313D01*
X85389311Y-37234311D01*
X85085378Y-37537714D01*
X84960350Y-37838812D01*
X84615668Y-37695687D01*
X84186216Y-37695313D01*
X83789311Y-37859311D01*
X83650001Y-37998377D01*
X83487286Y-37835378D01*
X83090668Y-37670687D01*
X82846885Y-37670474D01*
X82562286Y-37385378D01*
X82165668Y-37220687D01*
X81736216Y-37220313D01*
X81339311Y-37384311D01*
X81035378Y-37687714D01*
X80870687Y-38084332D01*
X80870313Y-38513784D01*
X81034311Y-38910689D01*
X81050104Y-38926510D01*
X80915668Y-38870687D01*
X80486216Y-38870313D01*
X80089311Y-39034311D01*
X79785378Y-39337714D01*
X79620687Y-39734332D01*
X79620313Y-40163784D01*
X79784311Y-40560689D01*
X79873486Y-40650020D01*
X79635378Y-40887714D01*
X79470687Y-41284332D01*
X79470635Y-41343511D01*
X79415668Y-41320687D01*
X78986216Y-41320313D01*
X78589311Y-41484311D01*
X78285378Y-41787714D01*
X78120687Y-42184332D01*
X78120313Y-42613784D01*
X78123703Y-42621990D01*
X78012286Y-42510378D01*
X77615668Y-42345687D01*
X77186216Y-42345313D01*
X76789311Y-42509311D01*
X76485378Y-42812714D01*
X76320687Y-43209332D01*
X76320313Y-43638784D01*
X76484311Y-44035689D01*
X76787714Y-44339622D01*
X77184332Y-44504313D01*
X77613784Y-44504687D01*
X78010689Y-44340689D01*
X78271689Y-44080143D01*
X78284311Y-44110689D01*
X78587714Y-44414622D01*
X78984332Y-44579313D01*
X79413784Y-44579687D01*
X79810689Y-44415689D01*
X80114622Y-44112286D01*
X80123168Y-44091703D01*
X80234311Y-44360689D01*
X80537714Y-44664622D01*
X80934332Y-44829313D01*
X81363784Y-44829687D01*
X81760689Y-44665689D01*
X82064622Y-44362286D01*
X82220510Y-43986866D01*
X82220313Y-44213784D01*
X82384311Y-44610689D01*
X82687714Y-44914622D01*
X82722755Y-44929172D01*
X82589311Y-44984311D01*
X82285378Y-45287714D01*
X82120687Y-45684332D01*
X82120313Y-46113784D01*
X82284311Y-46510689D01*
X82448355Y-46675020D01*
X82285378Y-46837714D01*
X82120687Y-47234332D01*
X82120313Y-47663784D01*
X82284311Y-48060689D01*
X82587714Y-48364622D01*
X82984332Y-48529313D01*
X83413784Y-48529687D01*
X83810689Y-48365689D01*
X84114622Y-48062286D01*
X84279313Y-47665668D01*
X84279687Y-47236216D01*
X84115689Y-46839311D01*
X83951644Y-46674979D01*
X84114622Y-46512286D01*
X84279313Y-46115668D01*
X84279687Y-45686216D01*
X84115689Y-45289311D01*
X83812286Y-44985378D01*
X83777244Y-44970827D01*
X83910689Y-44915689D01*
X84214622Y-44612286D01*
X84379313Y-44215668D01*
X84379687Y-43786216D01*
X84215689Y-43389311D01*
X83912286Y-43085378D01*
X83515668Y-42920687D01*
X83086216Y-42920313D01*
X82689311Y-43084311D01*
X82385378Y-43387714D01*
X82229489Y-43763133D01*
X82229687Y-43536216D01*
X82065689Y-43139311D01*
X81762286Y-42835378D01*
X81365668Y-42670687D01*
X80936216Y-42670313D01*
X80539311Y-42834311D01*
X80235378Y-43137714D01*
X80226831Y-43158296D01*
X80140625Y-42949662D01*
X80279313Y-42615668D01*
X80279364Y-42556488D01*
X80334332Y-42579313D01*
X80763784Y-42579687D01*
X81160689Y-42415689D01*
X81464622Y-42112286D01*
X81629313Y-41715668D01*
X81629687Y-41286216D01*
X81465689Y-40889311D01*
X81376513Y-40799979D01*
X81614622Y-40562286D01*
X81779313Y-40165668D01*
X81779687Y-39736216D01*
X81615689Y-39339311D01*
X81599895Y-39323489D01*
X81734332Y-39379313D01*
X81978114Y-39379525D01*
X82262714Y-39664622D01*
X82659332Y-39829313D01*
X83088784Y-39829687D01*
X83485689Y-39665689D01*
X83624998Y-39526622D01*
X83787714Y-39689622D01*
X84184332Y-39854313D01*
X84613784Y-39854687D01*
X85010689Y-39690689D01*
X85314622Y-39387286D01*
X85439649Y-39086187D01*
X85784332Y-39229313D01*
X86213784Y-39229687D01*
X86370333Y-39165001D01*
X86370313Y-39188784D01*
X86534311Y-39585689D01*
X86837714Y-39889622D01*
X87234332Y-40054313D01*
X87663784Y-40054687D01*
X87832968Y-39984781D01*
X87887714Y-40039622D01*
X88284332Y-40204313D01*
X88713784Y-40204687D01*
X89110689Y-40040689D01*
X89350020Y-39801775D01*
X89437714Y-39889622D01*
X89820565Y-40048596D01*
X89820313Y-40338784D01*
X89984311Y-40735689D01*
X90287714Y-41039622D01*
X90684332Y-41204313D01*
X91113784Y-41204687D01*
X91510689Y-41040689D01*
X91814622Y-40737286D01*
X91979313Y-40340668D01*
X91979687Y-39911216D01*
X91979687Y-52315000D01*
X90685000Y-52315000D01*
X90685000Y-52000000D01*
X90632857Y-51737862D01*
X90629687Y-51733117D01*
X90629687Y-46411216D01*
X90465689Y-46014311D01*
X90162286Y-45710378D01*
X89947437Y-45621164D01*
X89960689Y-45615689D01*
X90264622Y-45312286D01*
X90429313Y-44915668D01*
X90429687Y-44486216D01*
X90265689Y-44089311D01*
X89962286Y-43785378D01*
X89679615Y-43668002D01*
X89679687Y-43586216D01*
X89515689Y-43189311D01*
X89212286Y-42885378D01*
X88815668Y-42720687D01*
X88386216Y-42720313D01*
X87989311Y-42884311D01*
X87685378Y-43187714D01*
X87520687Y-43584332D01*
X87520655Y-43620647D01*
X87136216Y-43620313D01*
X86739311Y-43784311D01*
X86435378Y-44087714D01*
X86270687Y-44484332D01*
X86270313Y-44913784D01*
X86434311Y-45310689D01*
X86737714Y-45614622D01*
X87134332Y-45779313D01*
X87563784Y-45779687D01*
X87960689Y-45615689D01*
X88264622Y-45312286D01*
X88350006Y-45106657D01*
X88434311Y-45310689D01*
X88706586Y-45583439D01*
X88615668Y-45545687D01*
X88186216Y-45545313D01*
X87789311Y-45709311D01*
X87485378Y-46012714D01*
X87320687Y-46409332D01*
X87320313Y-46838784D01*
X87484311Y-47235689D01*
X87787714Y-47539622D01*
X88184332Y-47704313D01*
X88613784Y-47704687D01*
X88975399Y-47555270D01*
X89334332Y-47704313D01*
X89763784Y-47704687D01*
X90160689Y-47540689D01*
X90464622Y-47237286D01*
X90629313Y-46840668D01*
X90629687Y-46411216D01*
X90629687Y-51733117D01*
X90627000Y-51729096D01*
X90627000Y-51373000D01*
X90270903Y-51373000D01*
X90262138Y-51367143D01*
X90000000Y-51315000D01*
X83561903Y-51315000D01*
X83564622Y-51312286D01*
X83729313Y-50915668D01*
X83729687Y-50486216D01*
X83572978Y-50106953D01*
X83704313Y-49790668D01*
X83704687Y-49361216D01*
X83540689Y-48964311D01*
X83237286Y-48660378D01*
X82840668Y-48495687D01*
X82411216Y-48495313D01*
X82014311Y-48659311D01*
X81710378Y-48962714D01*
X81545687Y-49359332D01*
X81545313Y-49788784D01*
X81702021Y-50168046D01*
X81570687Y-50484332D01*
X81570313Y-50913784D01*
X81734311Y-51310689D01*
X81781918Y-51358379D01*
X81737862Y-51367143D01*
X81729096Y-51373000D01*
X81373000Y-51373000D01*
X81373000Y-51729096D01*
X81367143Y-51737862D01*
X81315000Y-52000000D01*
X81315000Y-52315000D01*
X79554687Y-52315000D01*
X79554687Y-48661216D01*
X79390689Y-48264311D01*
X79087286Y-47960378D01*
X78690668Y-47795687D01*
X78261216Y-47795313D01*
X77924662Y-47934374D01*
X77590668Y-47795687D01*
X77161216Y-47795313D01*
X76764311Y-47959311D01*
X76460378Y-48262714D01*
X76295687Y-48659332D01*
X76295313Y-49088784D01*
X76459311Y-49485689D01*
X76762714Y-49789622D01*
X77159332Y-49954313D01*
X77588784Y-49954687D01*
X77925337Y-49815625D01*
X78259332Y-49954313D01*
X78688784Y-49954687D01*
X79085689Y-49790689D01*
X79389622Y-49487286D01*
X79554313Y-49090668D01*
X79554687Y-48661216D01*
X79554687Y-52315000D01*
X78411684Y-52315000D01*
X78539622Y-52187286D01*
X78704313Y-51790668D01*
X78704687Y-51361216D01*
X78540689Y-50964311D01*
X78237286Y-50660378D01*
X77840668Y-50495687D01*
X77411216Y-50495313D01*
X77029668Y-50652965D01*
X76912286Y-50535378D01*
X76515668Y-50370687D01*
X76086216Y-50370313D01*
X75689311Y-50534311D01*
X75612632Y-50610855D01*
X75537286Y-50535378D01*
X75301229Y-50437358D01*
X75301229Y-39301131D01*
X75301229Y-38698869D01*
X75301229Y-34301131D01*
X75152563Y-34127000D01*
X74327000Y-34127000D01*
X74327000Y-35092734D01*
X74497938Y-35219268D01*
X74871821Y-35035552D01*
X75159568Y-34711049D01*
X75301229Y-34301131D01*
X75301229Y-38698869D01*
X75159568Y-38288951D01*
X74871821Y-37964448D01*
X74497938Y-37780732D01*
X74327000Y-37907266D01*
X74327000Y-38873000D01*
X75152563Y-38873000D01*
X75301229Y-38698869D01*
X75301229Y-39301131D01*
X75152563Y-39127000D01*
X74327000Y-39127000D01*
X74327000Y-40092734D01*
X74497938Y-40219268D01*
X74871821Y-40035552D01*
X75159568Y-39711049D01*
X75301229Y-39301131D01*
X75301229Y-50437358D01*
X75140668Y-50370687D01*
X75104687Y-50370655D01*
X75104687Y-48911216D01*
X74940689Y-48514311D01*
X74637286Y-48210378D01*
X74240668Y-48045687D01*
X74073000Y-48045540D01*
X74073000Y-40092734D01*
X74073000Y-39127000D01*
X74073000Y-38873000D01*
X74073000Y-37907266D01*
X74073000Y-35092734D01*
X74073000Y-34127000D01*
X73247437Y-34127000D01*
X73098771Y-34301131D01*
X73240432Y-34711049D01*
X73528179Y-35035552D01*
X73902062Y-35219268D01*
X74073000Y-35092734D01*
X74073000Y-37907266D01*
X73902062Y-37780732D01*
X73879529Y-37791803D01*
X73879687Y-37611216D01*
X73715689Y-37214311D01*
X73412286Y-36910378D01*
X73015668Y-36745687D01*
X72869119Y-36745559D01*
X72586216Y-36745313D01*
X72189311Y-36909311D01*
X71885378Y-37212714D01*
X71720687Y-37609332D01*
X71720313Y-38038784D01*
X71884311Y-38435689D01*
X72187714Y-38739622D01*
X72584332Y-38904313D01*
X73013784Y-38904687D01*
X73206504Y-38825056D01*
X73247437Y-38873000D01*
X74073000Y-38873000D01*
X74073000Y-39127000D01*
X73247437Y-39127000D01*
X73098771Y-39301131D01*
X73240432Y-39711049D01*
X73528179Y-40035552D01*
X73902062Y-40219268D01*
X74073000Y-40092734D01*
X74073000Y-48045540D01*
X73811216Y-48045313D01*
X73414311Y-48209311D01*
X73400241Y-48223356D01*
X73387286Y-48210378D01*
X73104687Y-48093032D01*
X73104687Y-43561216D01*
X72940689Y-43164311D01*
X72861084Y-43084567D01*
X72879313Y-43040668D01*
X72879687Y-42611216D01*
X72869119Y-42585639D01*
X72869119Y-40301874D01*
X72869119Y-39698126D01*
X72667368Y-39287237D01*
X72326678Y-38999998D01*
X71902000Y-38865000D01*
X71627000Y-38865000D01*
X71627000Y-39873000D01*
X72742954Y-39873000D01*
X72869119Y-39698126D01*
X72869119Y-40301874D01*
X72742954Y-40127000D01*
X71627000Y-40127000D01*
X71627000Y-41135000D01*
X71902000Y-41135000D01*
X72326678Y-41000002D01*
X72667368Y-40712763D01*
X72869119Y-40301874D01*
X72869119Y-42585639D01*
X72715689Y-42214311D01*
X72412286Y-41910378D01*
X72015668Y-41745687D01*
X71586216Y-41745313D01*
X71189311Y-41909311D01*
X70885378Y-42212714D01*
X70720687Y-42609332D01*
X70720313Y-43038784D01*
X70884311Y-43435689D01*
X70963915Y-43515432D01*
X70945687Y-43559332D01*
X70945313Y-43988784D01*
X71109311Y-44385689D01*
X71412714Y-44689622D01*
X71809332Y-44854313D01*
X72238784Y-44854687D01*
X72635689Y-44690689D01*
X72939622Y-44387286D01*
X73104313Y-43990668D01*
X73104687Y-43561216D01*
X73104687Y-48093032D01*
X72990668Y-48045687D01*
X72561216Y-48045313D01*
X72164311Y-48209311D01*
X71860378Y-48512714D01*
X71695687Y-48909332D01*
X71695313Y-49338784D01*
X71859311Y-49735689D01*
X72162714Y-50039622D01*
X72559332Y-50204313D01*
X72988784Y-50204687D01*
X73385689Y-50040689D01*
X73399758Y-50026643D01*
X73412714Y-50039622D01*
X73809332Y-50204313D01*
X74238784Y-50204687D01*
X74635689Y-50040689D01*
X74939622Y-49737286D01*
X75104313Y-49340668D01*
X75104687Y-48911216D01*
X75104687Y-50370655D01*
X74711216Y-50370313D01*
X74314311Y-50534311D01*
X74010378Y-50837714D01*
X73845687Y-51234332D01*
X73845313Y-51663784D01*
X74009311Y-52060689D01*
X74263178Y-52315000D01*
X70685000Y-52315000D01*
X70685000Y-41003714D01*
X71098000Y-41135000D01*
X71373000Y-41135000D01*
X71373000Y-40127000D01*
X71353000Y-40127000D01*
X71353000Y-39873000D01*
X71373000Y-39873000D01*
X71373000Y-38865000D01*
X71098000Y-38865000D01*
X70685000Y-38996285D01*
X70685000Y-34003714D01*
X71098000Y-34135000D01*
X71373000Y-34135000D01*
X71373000Y-33127000D01*
X71353000Y-33127000D01*
X71353000Y-32873000D01*
X71373000Y-32873000D01*
X71373000Y-32853000D01*
X71627000Y-32853000D01*
X71627000Y-32873000D01*
X71647000Y-32873000D01*
X71647000Y-33127000D01*
X71627000Y-33127000D01*
X71627000Y-34135000D01*
X71902000Y-34135000D01*
X72326678Y-34000002D01*
X72667368Y-33712763D01*
X72869119Y-33301874D01*
X72742955Y-33127002D01*
X72910000Y-33127002D01*
X72910000Y-33123875D01*
X73258492Y-33268583D01*
X73240432Y-33288951D01*
X73098771Y-33698869D01*
X73247437Y-33873000D01*
X74073000Y-33873000D01*
X74073000Y-33853000D01*
X74327000Y-33853000D01*
X74327000Y-33873000D01*
X75152563Y-33873000D01*
X75301229Y-33698869D01*
X75159568Y-33288951D01*
X75079876Y-33199080D01*
X75160689Y-33165689D01*
X75249673Y-33076859D01*
X75284311Y-33160689D01*
X75587714Y-33464622D01*
X75984332Y-33629313D01*
X76413784Y-33629687D01*
X76800461Y-33469915D01*
X77184332Y-33629313D01*
X77613784Y-33629687D01*
X78010689Y-33465689D01*
X78314622Y-33162286D01*
X78479313Y-32765668D01*
X78479687Y-32336216D01*
X78315689Y-31939311D01*
X78012286Y-31635378D01*
X77615668Y-31470687D01*
X77186216Y-31470313D01*
X76799538Y-31630084D01*
X76415668Y-31470687D01*
X75986216Y-31470313D01*
X75979687Y-31473010D01*
X75979687Y-23286216D01*
X75815689Y-22889311D01*
X75512286Y-22585378D01*
X75115668Y-22420687D01*
X74686216Y-22420313D01*
X74289311Y-22584311D01*
X74289308Y-22584313D01*
X74015668Y-22470687D01*
X73586216Y-22470313D01*
X73189311Y-22634311D01*
X72885378Y-22937714D01*
X72720687Y-23334332D01*
X72720313Y-23763784D01*
X72884311Y-24160689D01*
X73187714Y-24464622D01*
X73584332Y-24629313D01*
X74013784Y-24629687D01*
X74410689Y-24465689D01*
X74410691Y-24465686D01*
X74684332Y-24579313D01*
X75113784Y-24579687D01*
X75510689Y-24415689D01*
X75814622Y-24112286D01*
X75979313Y-23715668D01*
X75979687Y-23286216D01*
X75979687Y-31473010D01*
X75589311Y-31634311D01*
X75500326Y-31723140D01*
X75465689Y-31639311D01*
X75162286Y-31335378D01*
X74765668Y-31170687D01*
X74336216Y-31170313D01*
X74085079Y-31274080D01*
X73715668Y-31120687D01*
X73286216Y-31120313D01*
X72889311Y-31284311D01*
X72585378Y-31587714D01*
X72420687Y-31984332D01*
X72420604Y-32079188D01*
X72326678Y-31999998D01*
X72129337Y-31937266D01*
X72129687Y-31536216D01*
X71965689Y-31139311D01*
X71662286Y-30835378D01*
X71265668Y-30670687D01*
X70836216Y-30670313D01*
X70685000Y-30732794D01*
X70685000Y-30317304D01*
X70834332Y-30379313D01*
X71263784Y-30379687D01*
X71660689Y-30215689D01*
X71964622Y-29912286D01*
X72129313Y-29515668D01*
X72129687Y-29086216D01*
X72000981Y-28774724D01*
X72129313Y-28465668D01*
X72129687Y-28036216D01*
X71965689Y-27639311D01*
X71951024Y-27624620D01*
X72079313Y-27315668D01*
X72079687Y-26886216D01*
X71950981Y-26574724D01*
X72079313Y-26265668D01*
X72079687Y-25836216D01*
X71950981Y-25524724D01*
X72079313Y-25215668D01*
X72079687Y-24786216D01*
X71915689Y-24389311D01*
X71612286Y-24085378D01*
X71215668Y-23920687D01*
X70786216Y-23920313D01*
X70685000Y-23962134D01*
X70685000Y-20685000D01*
X72955937Y-20685000D01*
X72815518Y-21023168D01*
X72815124Y-21474850D01*
X72987611Y-21892301D01*
X73306719Y-22211967D01*
X73723868Y-22385182D01*
X74175550Y-22385576D01*
X74593001Y-22213089D01*
X74699906Y-22106370D01*
X74805319Y-22211967D01*
X75222468Y-22385182D01*
X75674150Y-22385576D01*
X76091601Y-22213089D01*
X76411267Y-21893981D01*
X76584482Y-21476832D01*
X76584876Y-21025150D01*
X76444329Y-20685000D01*
X85794981Y-20685000D01*
X85670687Y-20984332D01*
X85670313Y-21413784D01*
X85834311Y-21810689D01*
X86137714Y-22114622D01*
X86534332Y-22279313D01*
X86963784Y-22279687D01*
X87360689Y-22115689D01*
X87664622Y-21812286D01*
X87829313Y-21415668D01*
X87829687Y-20986216D01*
X87705226Y-20685000D01*
X101315000Y-20685000D01*
X101315000Y-24803457D01*
X101115668Y-24720687D01*
X100686216Y-24720313D01*
X100289311Y-24884311D01*
X99985378Y-25187714D01*
X99820687Y-25584332D01*
X99820313Y-26013784D01*
X99984311Y-26410689D01*
X100287714Y-26714622D01*
X100684332Y-26879313D01*
X101113784Y-26879687D01*
X101315000Y-26796546D01*
X101315000Y-38029661D01*
X101215689Y-37789311D01*
X100912286Y-37485378D01*
X100515668Y-37320687D01*
X100086216Y-37320313D01*
X99829687Y-37426308D01*
X99829687Y-31436216D01*
X99665689Y-31039311D01*
X99362286Y-30735378D01*
X98965668Y-30570687D01*
X98536216Y-30570313D01*
X98139311Y-30734311D01*
X97835378Y-31037714D01*
X97821738Y-31070561D01*
X97536216Y-31070313D01*
X97139311Y-31234311D01*
X96835378Y-31537714D01*
X96670687Y-31934332D01*
X96670313Y-32363784D01*
X96834311Y-32760689D01*
X97137714Y-33064622D01*
X97534332Y-33229313D01*
X97963784Y-33229687D01*
X98360689Y-33065689D01*
X98664622Y-32762286D01*
X98678261Y-32729438D01*
X98963784Y-32729687D01*
X99360689Y-32565689D01*
X99664622Y-32262286D01*
X99829313Y-31865668D01*
X99829687Y-31436216D01*
X99829687Y-37426308D01*
X99689311Y-37484311D01*
X99385378Y-37787714D01*
X99220687Y-38184332D01*
X99220313Y-38613784D01*
X99384311Y-39010689D01*
X99687714Y-39314622D01*
X100084332Y-39479313D01*
X100513784Y-39479687D01*
X100910689Y-39315689D01*
X101214622Y-39012286D01*
X101315000Y-38770550D01*
X101315000Y-40000000D01*
X101367143Y-40262138D01*
X101373000Y-40270903D01*
X101373000Y-52315000D01*
G36*
X113315000Y-52315000D02*
X102627000Y-52315000D01*
X102627000Y-40685000D01*
X113315000Y-40685000D01*
X113315000Y-52315000D01*
X113315000Y-52315000D01*
G37*
X113315000Y-52315000D02*
X102627000Y-52315000D01*
X102627000Y-40685000D01*
X113315000Y-40685000D01*
X113315000Y-52315000D01*
M02*
