G04 #@! TF.FileFunction,Legend,Top*
%FSLAX46Y46*%
G04 Gerber Fmt 4.6, Leading zero omitted, Abs format (unit mm)*
G04 Created by KiCad (PCBNEW (2015-01-16 BZR 5376)-product) date 07/04/2015 12:08:15*
%MOMM*%
G01*
G04 APERTURE LIST*
%ADD10C,0.100000*%
%ADD11C,0.300000*%
%ADD12C,0.250000*%
%ADD13C,0.150000*%
%ADD14C,0.200000*%
G04 APERTURE END LIST*
D10*
D11*
X95021429Y-52078571D02*
X94521429Y-51364286D01*
X94164286Y-52078571D02*
X94164286Y-50578571D01*
X94735714Y-50578571D01*
X94878572Y-50650000D01*
X94950000Y-50721429D01*
X95021429Y-50864286D01*
X95021429Y-51078571D01*
X94950000Y-51221429D01*
X94878572Y-51292857D01*
X94735714Y-51364286D01*
X94164286Y-51364286D01*
X96164286Y-51292857D02*
X95664286Y-51292857D01*
X95664286Y-52078571D02*
X95664286Y-50578571D01*
X96378572Y-50578571D01*
D12*
X110738095Y-42052381D02*
X110738095Y-41052381D01*
X111119048Y-41052381D01*
X111214286Y-41100000D01*
X111261905Y-41147619D01*
X111309524Y-41242857D01*
X111309524Y-41385714D01*
X111261905Y-41480952D01*
X111214286Y-41528571D01*
X111119048Y-41576190D01*
X110738095Y-41576190D01*
X105114286Y-42052381D02*
X105114286Y-41052381D01*
X105685715Y-42052381D01*
X105685715Y-41052381D01*
X106166667Y-51252381D02*
X106500000Y-52252381D01*
X106833334Y-51252381D01*
X107738095Y-52252381D02*
X107738095Y-51252381D01*
X108119048Y-51252381D01*
X108214286Y-51300000D01*
X108261905Y-51347619D01*
X108309524Y-51442857D01*
X108309524Y-51585714D01*
X108261905Y-51680952D01*
X108214286Y-51728571D01*
X108119048Y-51776190D01*
X107738095Y-51776190D01*
X109214286Y-52252381D02*
X109214286Y-51252381D01*
X109785715Y-52252381D01*
X109785715Y-51252381D01*
X102804762Y-49461905D02*
X102852381Y-49319048D01*
X102852381Y-49080952D01*
X102804762Y-48985714D01*
X102757143Y-48938095D01*
X102661905Y-48890476D01*
X102566667Y-48890476D01*
X102471429Y-48938095D01*
X102423810Y-48985714D01*
X102376190Y-49080952D01*
X102328571Y-49271429D01*
X102280952Y-49366667D01*
X102233333Y-49414286D01*
X102138095Y-49461905D01*
X102042857Y-49461905D01*
X101947619Y-49414286D01*
X101900000Y-49366667D01*
X101852381Y-49271429D01*
X101852381Y-49033333D01*
X101900000Y-48890476D01*
X102328571Y-48461905D02*
X102328571Y-48128571D01*
X102852381Y-47985714D02*
X102852381Y-48461905D01*
X101852381Y-48461905D01*
X101852381Y-47985714D01*
X102852381Y-47557143D02*
X101852381Y-47557143D01*
X102852381Y-46985714D01*
X101852381Y-46985714D01*
X102804762Y-46557143D02*
X102852381Y-46414286D01*
X102852381Y-46176190D01*
X102804762Y-46080952D01*
X102757143Y-46033333D01*
X102661905Y-45985714D01*
X102566667Y-45985714D01*
X102471429Y-46033333D01*
X102423810Y-46080952D01*
X102376190Y-46176190D01*
X102328571Y-46366667D01*
X102280952Y-46461905D01*
X102233333Y-46509524D01*
X102138095Y-46557143D01*
X102042857Y-46557143D01*
X101947619Y-46509524D01*
X101900000Y-46461905D01*
X101852381Y-46366667D01*
X101852381Y-46128571D01*
X101900000Y-45985714D01*
X101852381Y-45366667D02*
X101852381Y-45176190D01*
X101900000Y-45080952D01*
X101995238Y-44985714D01*
X102185714Y-44938095D01*
X102519048Y-44938095D01*
X102709524Y-44985714D01*
X102804762Y-45080952D01*
X102852381Y-45176190D01*
X102852381Y-45366667D01*
X102804762Y-45461905D01*
X102709524Y-45557143D01*
X102519048Y-45604762D01*
X102185714Y-45604762D01*
X101995238Y-45557143D01*
X101900000Y-45461905D01*
X101852381Y-45366667D01*
X102852381Y-43938095D02*
X102376190Y-44271429D01*
X102852381Y-44509524D02*
X101852381Y-44509524D01*
X101852381Y-44128571D01*
X101900000Y-44033333D01*
X101947619Y-43985714D01*
X102042857Y-43938095D01*
X102185714Y-43938095D01*
X102280952Y-43985714D01*
X102328571Y-44033333D01*
X102376190Y-44128571D01*
X102376190Y-44509524D01*
D13*
X79500000Y-46650000D02*
X79500000Y-45600000D01*
X74600000Y-46650000D02*
X74600000Y-45600000D01*
X79500000Y-44850000D02*
X79500000Y-44500000D01*
X79500000Y-44500000D02*
X79100000Y-44500000D01*
X79150000Y-47750000D02*
X79100000Y-47750000D01*
X79500000Y-47350000D02*
X79500000Y-47750000D01*
X79500000Y-47750000D02*
X79150000Y-47750000D01*
X74600000Y-47350000D02*
X74600000Y-47750000D01*
X74600000Y-47750000D02*
X75000000Y-47750000D01*
X74950000Y-44500000D02*
X74600000Y-44850000D01*
X90750000Y-27450000D02*
X90750000Y-26750000D01*
X91950000Y-26750000D02*
X91950000Y-27450000D01*
X78025000Y-35700000D02*
X77325000Y-35700000D01*
X77325000Y-34500000D02*
X78025000Y-34500000D01*
X76875000Y-38250000D02*
X76875000Y-38950000D01*
X75675000Y-38950000D02*
X75675000Y-38250000D01*
X78925000Y-39100000D02*
X78925000Y-39800000D01*
X77725000Y-39800000D02*
X77725000Y-39100000D01*
X84350000Y-26050000D02*
X85050000Y-26050000D01*
X85050000Y-27250000D02*
X84350000Y-27250000D01*
X84350000Y-24500000D02*
X85050000Y-24500000D01*
X85050000Y-25700000D02*
X84350000Y-25700000D01*
X84350000Y-22900000D02*
X85050000Y-22900000D01*
X85050000Y-24100000D02*
X84350000Y-24100000D01*
X85050000Y-42250000D02*
X85750000Y-42250000D01*
X85750000Y-43450000D02*
X85050000Y-43450000D01*
X85050000Y-43800000D02*
X85750000Y-43800000D01*
X85750000Y-45000000D02*
X85050000Y-45000000D01*
X85050000Y-45300000D02*
X85750000Y-45300000D01*
X85750000Y-46500000D02*
X85050000Y-46500000D01*
X85050000Y-46850000D02*
X85750000Y-46850000D01*
X85750000Y-48050000D02*
X85050000Y-48050000D01*
X72425000Y-44825000D02*
X73125000Y-44825000D01*
X73125000Y-46025000D02*
X72425000Y-46025000D01*
X70900000Y-37550000D02*
X70900000Y-36850000D01*
X72100000Y-36850000D02*
X72100000Y-37550000D01*
X73375000Y-50925000D02*
X72675000Y-50925000D01*
X72675000Y-49725000D02*
X73375000Y-49725000D01*
X96000000Y-29250000D02*
X95300000Y-29250000D01*
X95300000Y-28050000D02*
X96000000Y-28050000D01*
X96000000Y-30850000D02*
X95300000Y-30850000D01*
X95300000Y-29650000D02*
X96000000Y-29650000D01*
X89000000Y-24400000D02*
X88300000Y-24400000D01*
X88300000Y-23200000D02*
X89000000Y-23200000D01*
X90450000Y-25750000D02*
X90450000Y-26450000D01*
X89250000Y-26450000D02*
X89250000Y-25750000D01*
X99300000Y-24350000D02*
X99300000Y-23650000D01*
X100500000Y-23650000D02*
X100500000Y-24350000D01*
X97650000Y-20750000D02*
X98350000Y-20750000D01*
X98350000Y-21950000D02*
X97650000Y-21950000D01*
X92400000Y-27450000D02*
X92400000Y-26750000D01*
X93600000Y-26750000D02*
X93600000Y-27450000D01*
X93650000Y-21900000D02*
X92950000Y-21900000D01*
X92950000Y-20700000D02*
X93650000Y-20700000D01*
X76650000Y-22300000D02*
X76650000Y-21600000D01*
X77850000Y-21600000D02*
X77850000Y-22300000D01*
X78250000Y-22300000D02*
X78250000Y-21600000D01*
X79450000Y-21600000D02*
X79450000Y-22300000D01*
X79850000Y-22300000D02*
X79850000Y-21600000D01*
X81050000Y-21600000D02*
X81050000Y-22300000D01*
X98650000Y-42100000D02*
X99350000Y-42100000D01*
X99350000Y-43300000D02*
X98650000Y-43300000D01*
X94700000Y-36800000D02*
X95400000Y-36800000D01*
X95400000Y-38000000D02*
X94700000Y-38000000D01*
X98350000Y-38000000D02*
X97650000Y-38000000D01*
X97650000Y-36800000D02*
X98350000Y-36800000D01*
X94700000Y-38450000D02*
X95400000Y-38450000D01*
X95400000Y-39650000D02*
X94700000Y-39650000D01*
X97950000Y-50900000D02*
X98650000Y-50900000D01*
X98650000Y-52100000D02*
X97950000Y-52100000D01*
X100000000Y-51150000D02*
X100000000Y-50450000D01*
X101200000Y-50450000D02*
X101200000Y-51150000D01*
X89850000Y-51350000D02*
X89150000Y-51350000D01*
X89150000Y-50150000D02*
X89850000Y-50150000D01*
X85750000Y-51375000D02*
X84750000Y-51375000D01*
X84750000Y-50025000D02*
X85750000Y-50025000D01*
X82750000Y-23100000D02*
X82750000Y-23800000D01*
X81550000Y-23800000D02*
X81550000Y-23100000D01*
X73275000Y-48475000D02*
X72275000Y-48475000D01*
X72275000Y-47125000D02*
X73275000Y-47125000D01*
X98500000Y-39725000D02*
X97500000Y-39725000D01*
X97500000Y-38375000D02*
X98500000Y-38375000D01*
X97250000Y-41425000D02*
X96250000Y-41425000D01*
X96250000Y-40075000D02*
X97250000Y-40075000D01*
X92800000Y-51725000D02*
X91800000Y-51725000D01*
X91800000Y-50375000D02*
X92800000Y-50375000D01*
X94300000Y-50075000D02*
X93300000Y-50075000D01*
X93300000Y-48725000D02*
X94300000Y-48725000D01*
X96050000Y-48725000D02*
X97050000Y-48725000D01*
X97050000Y-50075000D02*
X96050000Y-50075000D01*
X85200000Y-22525000D02*
X84200000Y-22525000D01*
X84200000Y-21175000D02*
X85200000Y-21175000D01*
X76175000Y-43900000D02*
X75175000Y-43900000D01*
X75175000Y-42550000D02*
X76175000Y-42550000D01*
X80025000Y-46700000D02*
X80025000Y-45700000D01*
X81375000Y-45700000D02*
X81375000Y-46700000D01*
X79325000Y-51175000D02*
X78325000Y-51175000D01*
X78325000Y-49825000D02*
X79325000Y-49825000D01*
X98200000Y-47025000D02*
X99200000Y-47025000D01*
X99200000Y-48375000D02*
X98200000Y-48375000D01*
X91025000Y-40525000D02*
X91025000Y-39475000D01*
X80675000Y-40525000D02*
X80675000Y-39475000D01*
X80675000Y-30175000D02*
X80675000Y-31225000D01*
X91025000Y-30175000D02*
X91025000Y-31225000D01*
X91025000Y-40525000D02*
X89975000Y-40525000D01*
X91025000Y-30175000D02*
X89975000Y-30175000D01*
X80675000Y-30175000D02*
X81725000Y-30175000D01*
X80675000Y-40525000D02*
X81725000Y-40525000D01*
X91025000Y-39475000D02*
X92300000Y-39475000D01*
D14*
X76800000Y-51075000D02*
X77300000Y-50575000D01*
X77300000Y-50575000D02*
X77300000Y-49075000D01*
X77300000Y-49075000D02*
X75300000Y-49075000D01*
X75300000Y-49075000D02*
X75300000Y-51075000D01*
X75300000Y-51075000D02*
X76800000Y-51075000D01*
D13*
X95425000Y-31225000D02*
X95425000Y-31370000D01*
X99575000Y-31225000D02*
X99575000Y-31370000D01*
X99575000Y-36375000D02*
X99575000Y-36230000D01*
X95425000Y-36375000D02*
X95425000Y-36230000D01*
X95425000Y-31225000D02*
X99575000Y-31225000D01*
X95425000Y-36375000D02*
X99575000Y-36375000D01*
X95425000Y-31370000D02*
X94025000Y-31370000D01*
D14*
X72050000Y-25000000D02*
X72300000Y-24750000D01*
X77800000Y-24750000D02*
X78050000Y-24750000D01*
X78050000Y-24750000D02*
X78050000Y-25000000D01*
X72300000Y-30750000D02*
X72050000Y-30750000D01*
X72050000Y-30750000D02*
X72050000Y-30500000D01*
X77800000Y-30750000D02*
X78050000Y-30750000D01*
X78050000Y-30750000D02*
X78050000Y-30500000D01*
D13*
X95450000Y-42650000D02*
X95700000Y-42900000D01*
X95450000Y-47500000D02*
X95700000Y-47500000D01*
X95700000Y-47500000D02*
X95700000Y-47200000D01*
X90900000Y-47150000D02*
X90900000Y-47500000D01*
X90900000Y-47500000D02*
X91200000Y-47500000D01*
X91200000Y-42650000D02*
X90900000Y-42650000D01*
X90900000Y-42650000D02*
X90900000Y-42950000D01*
X98100000Y-26500000D02*
X98500000Y-26100000D01*
X94500000Y-26500000D02*
X94900000Y-26500000D01*
X94500000Y-26500000D02*
X94500000Y-26100000D01*
X94900000Y-22500000D02*
X94500000Y-22500000D01*
X94500000Y-22500000D02*
X94500000Y-22900000D01*
X98500000Y-22900000D02*
X98500000Y-22500000D01*
X98500000Y-22500000D02*
X98100000Y-22500000D01*
X105300000Y-46500000D02*
X105900000Y-46500000D01*
X105900000Y-46500000D02*
X105900000Y-45900000D01*
X105900000Y-45900000D02*
X110700000Y-45900000D01*
X110700000Y-45900000D02*
X110700000Y-46900000D01*
X110700000Y-46900000D02*
X111300000Y-46900000D01*
X105900000Y-49900000D02*
X105900000Y-49300000D01*
X105900000Y-49300000D02*
X105400000Y-49300000D01*
X111300000Y-48900000D02*
X110600000Y-48900000D01*
X110600000Y-48900000D02*
X110600000Y-49900000D01*
X110600000Y-49900000D02*
X105900000Y-49900000D01*
X108700000Y-45375000D02*
X107700000Y-45375000D01*
X107700000Y-44025000D02*
X108700000Y-44025000D01*
M02*
