G04 #@! TF.FileFunction,Legend,Bot*
%FSLAX46Y46*%
G04 Gerber Fmt 4.6, Leading zero omitted, Abs format (unit mm)*
G04 Created by KiCad (PCBNEW (2015-01-16 BZR 5376)-product) date 07/04/2015 12:08:15*
%MOMM*%
G01*
G04 APERTURE LIST*
%ADD10C,0.100000*%
%ADD11C,0.200000*%
%ADD12C,0.250000*%
%ADD13C,0.150000*%
G04 APERTURE END LIST*
D10*
D11*
X97400000Y-23000000D02*
X96600000Y-23800000D01*
X96600000Y-23000000D02*
X97400000Y-23800000D01*
X97670820Y-23400000D02*
G75*
G03X97670820Y-23400000I-670820J0D01*
G01*
X97100000Y-24700000D02*
X97100000Y-25000000D01*
X97100000Y-24700000D02*
X97400000Y-24400000D01*
X96800000Y-24400000D02*
X97100000Y-24700000D01*
X96000000Y-23000000D02*
X95500000Y-23500000D01*
X95500000Y-23000000D02*
X96000000Y-23500000D01*
X94800000Y-22600000D02*
X95200000Y-23000000D01*
X94800000Y-22600000D02*
X95200000Y-22200000D01*
X97800000Y-22600000D02*
X94800000Y-22600000D01*
X97800000Y-25600000D02*
X98200000Y-25200000D01*
X97800000Y-25600000D02*
X97400000Y-25200000D01*
X97800000Y-22600000D02*
X97800000Y-25600000D01*
D12*
X89535715Y-27916667D02*
X89059524Y-27916667D01*
X89630953Y-28202381D02*
X89297620Y-27202381D01*
X88964286Y-28202381D01*
X88630953Y-27535714D02*
X88630953Y-28535714D01*
X88630953Y-27583333D02*
X88535715Y-27535714D01*
X88345238Y-27535714D01*
X88250000Y-27583333D01*
X88202381Y-27630952D01*
X88154762Y-27726190D01*
X88154762Y-28011905D01*
X88202381Y-28107143D01*
X88250000Y-28154762D01*
X88345238Y-28202381D01*
X88535715Y-28202381D01*
X88630953Y-28154762D01*
X87726191Y-28202381D02*
X87726191Y-27535714D01*
X87726191Y-27726190D02*
X87678572Y-27630952D01*
X87630953Y-27583333D01*
X87535715Y-27535714D01*
X87440476Y-27535714D01*
X86392857Y-27297619D02*
X86345238Y-27250000D01*
X86250000Y-27202381D01*
X86011904Y-27202381D01*
X85916666Y-27250000D01*
X85869047Y-27297619D01*
X85821428Y-27392857D01*
X85821428Y-27488095D01*
X85869047Y-27630952D01*
X86440476Y-28202381D01*
X85821428Y-28202381D01*
X85202381Y-27202381D02*
X85107142Y-27202381D01*
X85011904Y-27250000D01*
X84964285Y-27297619D01*
X84916666Y-27392857D01*
X84869047Y-27583333D01*
X84869047Y-27821429D01*
X84916666Y-28011905D01*
X84964285Y-28107143D01*
X85011904Y-28154762D01*
X85107142Y-28202381D01*
X85202381Y-28202381D01*
X85297619Y-28154762D01*
X85345238Y-28107143D01*
X85392857Y-28011905D01*
X85440476Y-27821429D01*
X85440476Y-27583333D01*
X85392857Y-27392857D01*
X85345238Y-27297619D01*
X85297619Y-27250000D01*
X85202381Y-27202381D01*
X83916666Y-28202381D02*
X84488095Y-28202381D01*
X84202381Y-28202381D02*
X84202381Y-27202381D01*
X84297619Y-27345238D01*
X84392857Y-27440476D01*
X84488095Y-27488095D01*
X83011904Y-27202381D02*
X83488095Y-27202381D01*
X83535714Y-27678571D01*
X83488095Y-27630952D01*
X83392857Y-27583333D01*
X83154761Y-27583333D01*
X83059523Y-27630952D01*
X83011904Y-27678571D01*
X82964285Y-27773810D01*
X82964285Y-28011905D01*
X83011904Y-28107143D01*
X83059523Y-28154762D01*
X83154761Y-28202381D01*
X83392857Y-28202381D01*
X83488095Y-28154762D01*
X83535714Y-28107143D01*
X89904762Y-29904762D02*
X89809524Y-29952381D01*
X89619048Y-29952381D01*
X89523809Y-29904762D01*
X89476190Y-29809524D01*
X89476190Y-29761905D01*
X89523809Y-29666667D01*
X89619048Y-29619048D01*
X89761905Y-29619048D01*
X89857143Y-29571429D01*
X89904762Y-29476190D01*
X89904762Y-29428571D01*
X89857143Y-29333333D01*
X89761905Y-29285714D01*
X89619048Y-29285714D01*
X89523809Y-29333333D01*
X88619047Y-29285714D02*
X88619047Y-29952381D01*
X89047619Y-29285714D02*
X89047619Y-29809524D01*
X89000000Y-29904762D01*
X88904762Y-29952381D01*
X88761904Y-29952381D01*
X88666666Y-29904762D01*
X88619047Y-29857143D01*
X88142857Y-29952381D02*
X88142857Y-29285714D01*
X88142857Y-29380952D02*
X88095238Y-29333333D01*
X88000000Y-29285714D01*
X87857142Y-29285714D01*
X87761904Y-29333333D01*
X87714285Y-29428571D01*
X87714285Y-29952381D01*
X87714285Y-29428571D02*
X87666666Y-29333333D01*
X87571428Y-29285714D01*
X87428571Y-29285714D01*
X87333333Y-29333333D01*
X87285714Y-29428571D01*
X87285714Y-29952381D01*
X86380952Y-29952381D02*
X86380952Y-29428571D01*
X86428571Y-29333333D01*
X86523809Y-29285714D01*
X86714286Y-29285714D01*
X86809524Y-29333333D01*
X86380952Y-29904762D02*
X86476190Y-29952381D01*
X86714286Y-29952381D01*
X86809524Y-29904762D01*
X86857143Y-29809524D01*
X86857143Y-29714286D01*
X86809524Y-29619048D01*
X86714286Y-29571429D01*
X86476190Y-29571429D01*
X86380952Y-29523810D01*
X85904762Y-29285714D02*
X85904762Y-29952381D01*
X85904762Y-29380952D02*
X85857143Y-29333333D01*
X85761905Y-29285714D01*
X85619047Y-29285714D01*
X85523809Y-29333333D01*
X85476190Y-29428571D01*
X85476190Y-29952381D01*
X84571428Y-29285714D02*
X84571428Y-30095238D01*
X84619047Y-30190476D01*
X84666666Y-30238095D01*
X84761905Y-30285714D01*
X84904762Y-30285714D01*
X85000000Y-30238095D01*
X84571428Y-29904762D02*
X84666666Y-29952381D01*
X84857143Y-29952381D01*
X84952381Y-29904762D01*
X85000000Y-29857143D01*
X85047619Y-29761905D01*
X85047619Y-29476190D01*
X85000000Y-29380952D01*
X84952381Y-29333333D01*
X84857143Y-29285714D01*
X84666666Y-29285714D01*
X84571428Y-29333333D01*
X83666666Y-29285714D02*
X83666666Y-29952381D01*
X84095238Y-29285714D02*
X84095238Y-29809524D01*
X84047619Y-29904762D01*
X83952381Y-29952381D01*
X83809523Y-29952381D01*
X83714285Y-29904762D01*
X83666666Y-29857143D01*
X83190476Y-29952381D02*
X83190476Y-29285714D01*
X83190476Y-29476190D02*
X83142857Y-29380952D01*
X83095238Y-29333333D01*
X83000000Y-29285714D01*
X82904761Y-29285714D01*
X82142856Y-29285714D02*
X82142856Y-29952381D01*
X82571428Y-29285714D02*
X82571428Y-29809524D01*
X82523809Y-29904762D01*
X82428571Y-29952381D01*
X82285713Y-29952381D01*
X82190475Y-29904762D01*
X82142856Y-29857143D01*
X89773809Y-25452381D02*
X89440476Y-26452381D01*
X89107142Y-25452381D01*
X88583333Y-25452381D02*
X88488094Y-25452381D01*
X88392856Y-25500000D01*
X88345237Y-25547619D01*
X88297618Y-25642857D01*
X88249999Y-25833333D01*
X88249999Y-26071429D01*
X88297618Y-26261905D01*
X88345237Y-26357143D01*
X88392856Y-26404762D01*
X88488094Y-26452381D01*
X88583333Y-26452381D01*
X88678571Y-26404762D01*
X88726190Y-26357143D01*
X88773809Y-26261905D01*
X88821428Y-26071429D01*
X88821428Y-25833333D01*
X88773809Y-25642857D01*
X88726190Y-25547619D01*
X88678571Y-25500000D01*
X88583333Y-25452381D01*
X87821428Y-26357143D02*
X87773809Y-26404762D01*
X87821428Y-26452381D01*
X87869047Y-26404762D01*
X87821428Y-26357143D01*
X87821428Y-26452381D01*
X86869047Y-25452381D02*
X87345238Y-25452381D01*
X87392857Y-25928571D01*
X87345238Y-25880952D01*
X87250000Y-25833333D01*
X87011904Y-25833333D01*
X86916666Y-25880952D01*
X86869047Y-25928571D01*
X86821428Y-26023810D01*
X86821428Y-26261905D01*
X86869047Y-26357143D01*
X86916666Y-26404762D01*
X87011904Y-26452381D01*
X87250000Y-26452381D01*
X87345238Y-26404762D01*
X87392857Y-26357143D01*
X89821429Y-24654762D02*
X89678572Y-24702381D01*
X89440476Y-24702381D01*
X89345238Y-24654762D01*
X89297619Y-24607143D01*
X89250000Y-24511905D01*
X89250000Y-24416667D01*
X89297619Y-24321429D01*
X89345238Y-24273810D01*
X89440476Y-24226190D01*
X89630953Y-24178571D01*
X89726191Y-24130952D01*
X89773810Y-24083333D01*
X89821429Y-23988095D01*
X89821429Y-23892857D01*
X89773810Y-23797619D01*
X89726191Y-23750000D01*
X89630953Y-23702381D01*
X89392857Y-23702381D01*
X89250000Y-23750000D01*
X88821429Y-24702381D02*
X88821429Y-23702381D01*
X88488095Y-24416667D01*
X88154762Y-23702381D01*
X88154762Y-24702381D01*
X87726191Y-24416667D02*
X87250000Y-24416667D01*
X87821429Y-24702381D02*
X87488096Y-23702381D01*
X87154762Y-24702381D01*
X86250000Y-24702381D02*
X86583334Y-24226190D01*
X86821429Y-24702381D02*
X86821429Y-23702381D01*
X86440476Y-23702381D01*
X86345238Y-23750000D01*
X86297619Y-23797619D01*
X86250000Y-23892857D01*
X86250000Y-24035714D01*
X86297619Y-24130952D01*
X86345238Y-24178571D01*
X86440476Y-24226190D01*
X86821429Y-24226190D01*
X85964286Y-23702381D02*
X85392857Y-23702381D01*
X85678572Y-24702381D02*
X85678572Y-23702381D01*
X85154762Y-23702381D02*
X84916667Y-24702381D01*
X84726190Y-23988095D01*
X84535714Y-24702381D01*
X84297619Y-23702381D01*
X83964286Y-24416667D02*
X83488095Y-24416667D01*
X84059524Y-24702381D02*
X83726191Y-23702381D01*
X83392857Y-24702381D01*
X83202381Y-23702381D02*
X82630952Y-23702381D01*
X82916667Y-24702381D02*
X82916667Y-23702381D01*
X81726190Y-24607143D02*
X81773809Y-24654762D01*
X81916666Y-24702381D01*
X82011904Y-24702381D01*
X82154762Y-24654762D01*
X82250000Y-24559524D01*
X82297619Y-24464286D01*
X82345238Y-24273810D01*
X82345238Y-24130952D01*
X82297619Y-23940476D01*
X82250000Y-23845238D01*
X82154762Y-23750000D01*
X82011904Y-23702381D01*
X81916666Y-23702381D01*
X81773809Y-23750000D01*
X81726190Y-23797619D01*
X81297619Y-24702381D02*
X81297619Y-23702381D01*
X81297619Y-24178571D02*
X80726190Y-24178571D01*
X80726190Y-24702381D02*
X80726190Y-23702381D01*
D13*
X75200000Y-40850000D02*
X70250000Y-40850000D01*
X70250000Y-32150000D02*
X75250000Y-32150000D01*
X75225000Y-40850000D02*
X75225000Y-32150000D01*
X70250000Y-32150000D02*
X70250000Y-40850000D01*
X76800000Y-47550000D02*
X76800000Y-46850000D01*
X75600000Y-46850000D02*
X75600000Y-47550000D01*
X86675000Y-36600000D02*
X86675000Y-35900000D01*
X85475000Y-35900000D02*
X85475000Y-36600000D01*
X85175000Y-36975000D02*
X85175000Y-36275000D01*
X83975000Y-36275000D02*
X83975000Y-36975000D01*
X77400000Y-33350000D02*
X76700000Y-33350000D01*
X76700000Y-34550000D02*
X77400000Y-34550000D01*
X75350000Y-26950000D02*
X76050000Y-26950000D01*
X76050000Y-25750000D02*
X75350000Y-25750000D01*
X81150000Y-23950000D02*
X81150000Y-23250000D01*
X79950000Y-23250000D02*
X79950000Y-23950000D01*
X71700000Y-31050000D02*
X72400000Y-31050000D01*
X72400000Y-29850000D02*
X71700000Y-29850000D01*
X73850000Y-29550000D02*
X74550000Y-29550000D01*
X74550000Y-28350000D02*
X73850000Y-28350000D01*
X71800000Y-21650000D02*
X71800000Y-22350000D01*
X73000000Y-22350000D02*
X73000000Y-21650000D01*
X76350000Y-21700000D02*
X76350000Y-22400000D01*
X77550000Y-22400000D02*
X77550000Y-21700000D01*
X93825000Y-40775000D02*
X93125000Y-40775000D01*
X93125000Y-41975000D02*
X93825000Y-41975000D01*
X92450000Y-40350000D02*
X93150000Y-40350000D01*
X93150000Y-39150000D02*
X92450000Y-39150000D01*
X100350000Y-43950000D02*
X99650000Y-43950000D01*
X99650000Y-45150000D02*
X100350000Y-45150000D01*
X98650000Y-43250000D02*
X99350000Y-43250000D01*
X99350000Y-42050000D02*
X98650000Y-42050000D01*
D11*
X88350000Y-39600000D02*
X83350000Y-39600000D01*
X88350000Y-41800000D02*
X83350000Y-41800000D01*
X88350000Y-41800000D02*
X88350000Y-43200000D01*
X83350000Y-41800000D02*
X83350000Y-43200000D01*
X88350000Y-43200000D02*
X91050000Y-43200000D01*
X83350000Y-43200000D02*
X80650000Y-43200000D01*
X91050000Y-43200000D02*
X91050000Y-40600000D01*
X80650000Y-43200000D02*
X80650000Y-40600000D01*
X91050000Y-40600000D02*
X88350000Y-40600000D01*
X80650000Y-40600000D02*
X83350000Y-40600000D01*
X88350000Y-40600000D02*
X88350000Y-39600000D01*
X83350000Y-40600000D02*
X83350000Y-39600000D01*
D13*
X77050000Y-36700000D02*
X78050000Y-36700000D01*
X78050000Y-35350000D02*
X77050000Y-35350000D01*
X76200000Y-38350000D02*
X77200000Y-38350000D01*
X77200000Y-37000000D02*
X76200000Y-37000000D01*
X79950000Y-26625000D02*
X78950000Y-26625000D01*
X78950000Y-27975000D02*
X79950000Y-27975000D01*
D11*
X78950000Y-41725000D02*
X78950000Y-42250000D01*
X78950000Y-42250000D02*
X78425000Y-42775000D01*
X78425000Y-42775000D02*
X78000000Y-42775000D01*
X77950000Y-42775000D02*
X75500000Y-42775000D01*
X75500000Y-42775000D02*
X75500000Y-38575000D01*
X75500000Y-38575000D02*
X78950000Y-38575000D01*
X78950000Y-38575000D02*
X78950000Y-41775000D01*
D13*
X76300200Y-22499680D02*
X76300200Y-31100120D01*
X76300200Y-31100120D02*
X73099800Y-31100120D01*
X73099800Y-31100120D02*
X73099800Y-22499680D01*
X73849100Y-22499680D02*
X73099800Y-22499680D01*
X75599160Y-22499680D02*
X76300200Y-22499680D01*
X74400280Y-22499680D02*
X74301220Y-22199960D01*
X74999720Y-22499680D02*
X75098780Y-22199960D01*
X75599160Y-22499680D02*
X73800840Y-22499680D01*
X91631220Y-49389860D02*
X91270540Y-50860520D01*
X91270540Y-50860520D02*
X90991140Y-49798800D01*
X90991140Y-49798800D02*
X90681260Y-50870680D01*
X90681260Y-50870680D02*
X90340900Y-49420340D01*
X93051080Y-50080740D02*
X92261140Y-50070580D01*
X92261140Y-50070580D02*
X92250980Y-50080740D01*
X92250980Y-50080740D02*
X92250980Y-50070580D01*
X92210340Y-49359380D02*
X92210340Y-50901160D01*
X93099340Y-49349220D02*
X93099340Y-50918940D01*
X93099340Y-50918940D02*
X93089180Y-50908780D01*
X93650520Y-49450820D02*
X94001040Y-49369540D01*
X94001040Y-49369540D02*
X94321080Y-49359380D01*
X94321080Y-49359380D02*
X94559840Y-49560040D01*
X94559840Y-49560040D02*
X94590320Y-49829280D01*
X94590320Y-49829280D02*
X94349020Y-50070580D01*
X94349020Y-50070580D02*
X93960400Y-50200120D01*
X93960400Y-50200120D02*
X93780060Y-50360140D01*
X93780060Y-50360140D02*
X93739420Y-50659860D01*
X93739420Y-50659860D02*
X93970560Y-50880840D01*
X93970560Y-50880840D02*
X94290600Y-50908780D01*
X94290600Y-50908780D02*
X94641120Y-50799560D01*
X95679980Y-49349220D02*
X95928900Y-49369540D01*
X95928900Y-49369540D02*
X96170200Y-49610840D01*
X96170200Y-49610840D02*
X96259100Y-50101060D01*
X96259100Y-50101060D02*
X96231160Y-50449040D01*
X96231160Y-50449040D02*
X96030500Y-50769080D01*
X96030500Y-50769080D02*
X95779040Y-50891000D01*
X95779040Y-50891000D02*
X95469160Y-50819880D01*
X95469160Y-50819880D02*
X95250720Y-50639540D01*
X95250720Y-50639540D02*
X95179600Y-50179800D01*
X95179600Y-50179800D02*
X95230400Y-49770860D01*
X95230400Y-49770860D02*
X95339620Y-49488920D01*
X95339620Y-49488920D02*
X95700300Y-49359380D01*
X95080540Y-47629640D02*
X95339620Y-48190980D01*
X95339620Y-48190980D02*
X94801140Y-48709140D01*
X94801140Y-48709140D02*
X94280440Y-48439900D01*
X94280440Y-48439900D02*
X94001040Y-48599920D01*
X92560860Y-48579600D02*
X92230660Y-48389100D01*
X92230660Y-48389100D02*
X91791240Y-48719300D01*
X91791240Y-48719300D02*
X91318800Y-48229080D01*
X91318800Y-48229080D02*
X91600740Y-47749020D01*
X91600740Y-47749020D02*
X91410240Y-47279120D01*
X91410240Y-47279120D02*
X90800640Y-47091160D01*
X90800640Y-47091160D02*
X90800640Y-46410440D01*
X90800640Y-46410440D02*
X91359440Y-46270740D01*
X91359440Y-46270740D02*
X91560100Y-45699240D01*
X91560100Y-45699240D02*
X91290860Y-45229340D01*
X91290860Y-45229340D02*
X91760760Y-44718800D01*
X91760760Y-44718800D02*
X92278920Y-44980420D01*
X92278920Y-44980420D02*
X92748820Y-44779760D01*
X92748820Y-44779760D02*
X92919000Y-44238740D01*
X92919000Y-44238740D02*
X93609880Y-44220960D01*
X93609880Y-44220960D02*
X93820700Y-44769600D01*
X93820700Y-44769600D02*
X94239800Y-44939780D01*
X94239800Y-44939780D02*
X94790980Y-44670540D01*
X94790980Y-44670540D02*
X95309140Y-45198860D01*
X95309140Y-45198860D02*
X95060220Y-45739880D01*
X95060220Y-45739880D02*
X95230400Y-46219940D01*
X95230400Y-46219940D02*
X95779040Y-46319000D01*
X95779040Y-46319000D02*
X95789200Y-47020040D01*
X95789200Y-47020040D02*
X95230400Y-47220700D01*
X95230400Y-47220700D02*
X95090700Y-47619480D01*
X92949480Y-47599160D02*
X92649760Y-47449300D01*
X92649760Y-47449300D02*
X92449100Y-47251180D01*
X92449100Y-47251180D02*
X92299240Y-46849860D01*
X92299240Y-46849860D02*
X92299240Y-46451080D01*
X92299240Y-46451080D02*
X92449100Y-46100560D01*
X92449100Y-46100560D02*
X92901220Y-45750040D01*
X92901220Y-45750040D02*
X93350800Y-45699240D01*
X93350800Y-45699240D02*
X93749580Y-45800840D01*
X93749580Y-45800840D02*
X94150900Y-46148820D01*
X94150900Y-46148820D02*
X94300760Y-46600940D01*
X94300760Y-46600940D02*
X94249960Y-47098780D01*
X94249960Y-47098780D02*
X94001040Y-47401040D01*
X94001040Y-47401040D02*
X93650520Y-47599160D01*
X93650520Y-47599160D02*
X94001040Y-48599920D01*
X92949480Y-47599160D02*
X92550700Y-48599920D01*
X75280952Y-47771429D02*
X74519047Y-47771429D01*
X74899999Y-48152381D02*
X74899999Y-47390476D01*
M02*
