G04 #@! TF.FileFunction,Copper,L3,Inr,Plane*
%FSLAX46Y46*%
G04 Gerber Fmt 4.6, Leading zero omitted, Abs format (unit mm)*
G04 Created by KiCad (PCBNEW (2015-01-16 BZR 5376)-product) date 07/04/2015 12:08:15*
%MOMM*%
G01*
G04 APERTURE LIST*
%ADD10C,0.100000*%
%ADD11O,0.950000X1.250000*%
%ADD12O,1.550000X1.000000*%
%ADD13C,1.000760*%
%ADD14C,0.889000*%
%ADD15C,0.203200*%
%ADD16C,0.254000*%
G04 APERTURE END LIST*
D10*
D11*
X74200000Y-39000000D03*
X74200000Y-34000000D03*
D12*
X71500000Y-40000000D03*
X71500000Y-33000000D03*
D13*
X73950700Y-21250000D03*
X75449300Y-21250000D03*
D14*
X74025000Y-49125000D03*
X97400000Y-36250000D03*
X74175000Y-42450000D03*
X74900000Y-41825000D03*
X75050000Y-48800000D03*
X100700000Y-48600000D03*
X98650000Y-33000000D03*
X78350000Y-24000000D03*
X76350000Y-29050000D03*
X72100000Y-31750000D03*
X75200000Y-33100000D03*
X82150000Y-21150000D03*
X87500000Y-47450000D03*
X87500000Y-45900000D03*
X93300000Y-45050000D03*
X98900000Y-50000000D03*
X96900000Y-42600000D03*
X87100000Y-31550000D03*
X86800000Y-22550000D03*
X92150000Y-25050000D03*
X91150000Y-21300000D03*
X89350000Y-34550000D03*
X75050000Y-27750000D03*
X71950000Y-23900000D03*
X72275000Y-51475000D03*
X74850000Y-46125000D03*
X71625000Y-35200000D03*
X72700000Y-35200000D03*
X100200000Y-41200000D03*
X91600000Y-41300000D03*
X87300000Y-34550000D03*
X87650000Y-50750000D03*
X79225000Y-46150000D03*
X96150000Y-25200000D03*
X96850000Y-33450000D03*
X99700000Y-25900000D03*
X98800000Y-49000000D03*
X75625000Y-35200000D03*
X79625000Y-39975000D03*
X97650000Y-29650000D03*
X89450000Y-22350000D03*
X96400000Y-35800000D03*
X80800000Y-50500000D03*
X100750000Y-21350000D03*
X72800000Y-37825000D03*
X77400000Y-43425000D03*
X96200000Y-48000000D03*
X97200000Y-46600000D03*
X71800000Y-42825000D03*
X72025000Y-43775000D03*
X83200000Y-45900000D03*
X85100000Y-28000000D03*
X100900000Y-25800000D03*
X100300000Y-38400000D03*
X84400000Y-38775000D03*
X93200000Y-23550000D03*
X86750000Y-21200000D03*
X98750000Y-31650000D03*
X83200000Y-47450000D03*
X77400000Y-32550000D03*
X76200000Y-32550000D03*
X71050000Y-31750000D03*
X79350000Y-24850000D03*
X95400000Y-41700000D03*
X98700000Y-41200000D03*
X90900000Y-40125000D03*
X82150000Y-25600000D03*
X86000000Y-38150000D03*
X71050000Y-28250000D03*
X71050000Y-29300000D03*
X73800000Y-23550000D03*
X74900000Y-23500000D03*
X98000000Y-45400000D03*
X98075000Y-43925000D03*
X88500000Y-39125000D03*
X87350000Y-44700000D03*
X89350000Y-44700000D03*
X87450000Y-38975000D03*
X87375000Y-37825000D03*
X82875000Y-38750000D03*
X81950000Y-38300000D03*
X97750000Y-32150000D03*
X96850000Y-34600000D03*
X82600000Y-31150000D03*
X82550000Y-26700000D03*
X80000000Y-30550000D03*
X79950000Y-25750000D03*
X82900000Y-34300000D03*
X80550000Y-41500000D03*
X76300000Y-51450000D03*
X80700000Y-39950000D03*
X81775000Y-34350000D03*
X74925000Y-51450000D03*
X77375000Y-48875000D03*
X82625000Y-49575000D03*
X88400000Y-46625000D03*
X89325000Y-38075000D03*
X81150000Y-43750000D03*
X77625000Y-51575000D03*
X84000000Y-34325000D03*
X90800000Y-29350000D03*
X91250000Y-23250000D03*
X81100000Y-29350000D03*
X81200000Y-26250000D03*
X71000000Y-27100000D03*
X71000000Y-25000000D03*
X71000000Y-26050000D03*
X73500000Y-32200000D03*
X74550000Y-32250000D03*
X88600000Y-43800000D03*
X83300000Y-44000000D03*
X89550000Y-46625000D03*
X82650000Y-50700000D03*
X78475000Y-48875000D03*
X90050000Y-38975000D03*
X79200000Y-42400000D03*
X84300000Y-33200000D03*
X79200000Y-43500000D03*
X85200000Y-32400000D03*
X90000000Y-31350000D03*
X90000000Y-32550000D03*
X93100000Y-35100000D03*
X93150000Y-36600000D03*
D15*
X82900000Y-34300000D02*
X82900000Y-35000000D01*
X82900000Y-35000000D02*
X80600000Y-37300000D01*
X80600000Y-37300000D02*
X80600000Y-38850000D01*
X80600000Y-38850000D02*
X81450000Y-39700000D01*
X81450000Y-39700000D02*
X81450000Y-40600000D01*
X81450000Y-40600000D02*
X80550000Y-41500000D01*
X80050000Y-39200000D02*
X80700000Y-39850000D01*
X80050000Y-36800000D02*
X80050000Y-39200000D01*
X80700000Y-39850000D02*
X80700000Y-39950000D01*
X81775000Y-35075000D02*
X80050000Y-36800000D01*
X81775000Y-34350000D02*
X81775000Y-35075000D01*
X77375000Y-48875000D02*
X77375000Y-48375000D01*
X81050000Y-48000000D02*
X82625000Y-49575000D01*
X77750000Y-48000000D02*
X81050000Y-48000000D01*
X77375000Y-48375000D02*
X77750000Y-48000000D01*
X88500000Y-46625000D02*
X90100000Y-45025000D01*
X90100000Y-45025000D02*
X90100000Y-42575000D01*
X88400000Y-46625000D02*
X88500000Y-46625000D01*
X90100000Y-41300000D02*
X90100000Y-42575000D01*
X89325000Y-40525000D02*
X89325000Y-38075000D01*
X90100000Y-41300000D02*
X89325000Y-40525000D01*
X81325000Y-41500000D02*
X81925000Y-40900000D01*
X81325000Y-41500000D02*
X81325000Y-42025000D01*
X81325000Y-42025000D02*
X81150000Y-42200000D01*
X81150000Y-42200000D02*
X81150000Y-43750000D01*
X84000000Y-34975000D02*
X81050000Y-37925000D01*
X81050000Y-37925000D02*
X81050000Y-38525000D01*
X81925000Y-39400000D02*
X81925000Y-40900000D01*
X81050000Y-38525000D02*
X81925000Y-39400000D01*
X84000000Y-34975000D02*
X84000000Y-34325000D01*
X82650000Y-50675000D02*
X82650000Y-50700000D01*
X78475000Y-48875000D02*
X80850000Y-48875000D01*
X80850000Y-48875000D02*
X82650000Y-50675000D01*
X89550000Y-46625000D02*
X90275000Y-45900000D01*
X90525000Y-45650000D02*
X90525000Y-40900000D01*
X90525000Y-45650000D02*
X90275000Y-45900000D01*
X90050000Y-40425000D02*
X90050000Y-38975000D01*
X90525000Y-40900000D02*
X90050000Y-40425000D01*
X79200000Y-42400000D02*
X79200000Y-40800000D01*
X81800000Y-33200000D02*
X84300000Y-33200000D01*
X78500000Y-36500000D02*
X81800000Y-33200000D01*
X78500000Y-40100000D02*
X78500000Y-36500000D01*
X79200000Y-40800000D02*
X78500000Y-40100000D01*
X79200000Y-43500000D02*
X79000000Y-43500000D01*
X79000000Y-43500000D02*
X78000000Y-42500000D01*
X78000000Y-42500000D02*
X78000000Y-36300000D01*
X78000000Y-36300000D02*
X81900000Y-32400000D01*
X81900000Y-32400000D02*
X85200000Y-32400000D01*
D16*
G36*
X101373000Y-52315000D02*
X94379687Y-52315000D01*
X94379687Y-44836216D01*
X94229687Y-44473188D01*
X94229687Y-36386216D01*
X94065689Y-35989311D01*
X93901687Y-35825023D01*
X94014622Y-35712286D01*
X94179313Y-35315668D01*
X94179687Y-34886216D01*
X94015689Y-34489311D01*
X93712286Y-34185378D01*
X93315668Y-34020687D01*
X92886216Y-34020313D01*
X92489311Y-34184311D01*
X92185378Y-34487714D01*
X92020687Y-34884332D01*
X92020313Y-35313784D01*
X92184311Y-35710689D01*
X92348312Y-35874976D01*
X92235378Y-35987714D01*
X92070687Y-36384332D01*
X92070313Y-36813784D01*
X92234311Y-37210689D01*
X92537714Y-37514622D01*
X92934332Y-37679313D01*
X93363784Y-37679687D01*
X93760689Y-37515689D01*
X94064622Y-37212286D01*
X94229313Y-36815668D01*
X94229687Y-36386216D01*
X94229687Y-44473188D01*
X94215689Y-44439311D01*
X93912286Y-44135378D01*
X93515668Y-43970687D01*
X93086216Y-43970313D01*
X92689311Y-44134311D01*
X92679687Y-44143918D01*
X92679687Y-41086216D01*
X92515689Y-40689311D01*
X92212286Y-40385378D01*
X91879687Y-40247270D01*
X91879687Y-29136216D01*
X91715689Y-28739311D01*
X91412286Y-28435378D01*
X91015668Y-28270687D01*
X90586216Y-28270313D01*
X90189311Y-28434311D01*
X89885378Y-28737714D01*
X89720687Y-29134332D01*
X89720313Y-29563784D01*
X89884311Y-29960689D01*
X90187714Y-30264622D01*
X90202292Y-30270675D01*
X89786216Y-30270313D01*
X89389311Y-30434311D01*
X89085378Y-30737714D01*
X88920687Y-31134332D01*
X88920313Y-31563784D01*
X89080084Y-31950461D01*
X88920687Y-32334332D01*
X88920313Y-32763784D01*
X89084311Y-33160689D01*
X89387714Y-33464622D01*
X89401976Y-33470544D01*
X89136216Y-33470313D01*
X88739311Y-33634311D01*
X88435378Y-33937714D01*
X88324931Y-34203697D01*
X88215689Y-33939311D01*
X88179687Y-33903246D01*
X88179687Y-31336216D01*
X88015689Y-30939311D01*
X87879687Y-30803071D01*
X87879687Y-22336216D01*
X87715689Y-21939311D01*
X87412286Y-21635378D01*
X87015668Y-21470687D01*
X86586216Y-21470313D01*
X86189311Y-21634311D01*
X85885378Y-21937714D01*
X85720687Y-22334332D01*
X85720313Y-22763784D01*
X85884311Y-23160689D01*
X86187714Y-23464622D01*
X86584332Y-23629313D01*
X87013784Y-23629687D01*
X87410689Y-23465689D01*
X87714622Y-23162286D01*
X87879313Y-22765668D01*
X87879687Y-22336216D01*
X87879687Y-30803071D01*
X87712286Y-30635378D01*
X87315668Y-30470687D01*
X86886216Y-30470313D01*
X86489311Y-30634311D01*
X86185378Y-30937714D01*
X86020687Y-31334332D01*
X86020373Y-31693829D01*
X85812286Y-31485378D01*
X85415668Y-31320687D01*
X84986216Y-31320313D01*
X84589311Y-31484311D01*
X84409909Y-31663400D01*
X83555683Y-31663400D01*
X83679313Y-31365668D01*
X83679687Y-30936216D01*
X83629687Y-30815206D01*
X83629687Y-26486216D01*
X83465689Y-26089311D01*
X83162286Y-25785378D01*
X82765668Y-25620687D01*
X82336216Y-25620313D01*
X82141143Y-25700915D01*
X82115689Y-25639311D01*
X81812286Y-25335378D01*
X81415668Y-25170687D01*
X80986216Y-25170313D01*
X80894207Y-25208330D01*
X80865689Y-25139311D01*
X80562286Y-24835378D01*
X80165668Y-24670687D01*
X79736216Y-24670313D01*
X79429687Y-24796968D01*
X79429687Y-23786216D01*
X79265689Y-23389311D01*
X78962286Y-23085378D01*
X78565668Y-22920687D01*
X78136216Y-22920313D01*
X77739311Y-23084311D01*
X77435378Y-23387714D01*
X77270687Y-23784332D01*
X77270313Y-24213784D01*
X77434311Y-24610689D01*
X77737714Y-24914622D01*
X78134332Y-25079313D01*
X78563784Y-25079687D01*
X78960689Y-24915689D01*
X79264622Y-24612286D01*
X79429313Y-24215668D01*
X79429687Y-23786216D01*
X79429687Y-24796968D01*
X79339311Y-24834311D01*
X79035378Y-25137714D01*
X78870687Y-25534332D01*
X78870313Y-25963784D01*
X79034311Y-26360689D01*
X79337714Y-26664622D01*
X79734332Y-26829313D01*
X80163784Y-26829687D01*
X80255792Y-26791669D01*
X80284311Y-26860689D01*
X80587714Y-27164622D01*
X80984332Y-27329313D01*
X81413784Y-27329687D01*
X81608856Y-27249084D01*
X81634311Y-27310689D01*
X81937714Y-27614622D01*
X82334332Y-27779313D01*
X82763784Y-27779687D01*
X83160689Y-27615689D01*
X83464622Y-27312286D01*
X83629313Y-26915668D01*
X83629687Y-26486216D01*
X83629687Y-30815206D01*
X83515689Y-30539311D01*
X83212286Y-30235378D01*
X82815668Y-30070687D01*
X82386216Y-30070313D01*
X82179687Y-30155649D01*
X82179687Y-29136216D01*
X82015689Y-28739311D01*
X81712286Y-28435378D01*
X81315668Y-28270687D01*
X80886216Y-28270313D01*
X80489311Y-28434311D01*
X80185378Y-28737714D01*
X80020687Y-29134332D01*
X80020394Y-29470516D01*
X79786216Y-29470313D01*
X79389311Y-29634311D01*
X79085378Y-29937714D01*
X78920687Y-30334332D01*
X78920313Y-30763784D01*
X79084311Y-31160689D01*
X79387714Y-31464622D01*
X79784332Y-31629313D01*
X80213784Y-31629687D01*
X80610689Y-31465689D01*
X80914622Y-31162286D01*
X81079313Y-30765668D01*
X81079605Y-30429483D01*
X81313784Y-30429687D01*
X81710689Y-30265689D01*
X82014622Y-29962286D01*
X82179313Y-29565668D01*
X82179687Y-29136216D01*
X82179687Y-30155649D01*
X81989311Y-30234311D01*
X81685378Y-30537714D01*
X81520687Y-30934332D01*
X81520313Y-31363784D01*
X81663545Y-31710433D01*
X81618115Y-31719470D01*
X81379145Y-31879145D01*
X77479145Y-35779145D01*
X77429687Y-35853163D01*
X77429687Y-28836216D01*
X77265689Y-28439311D01*
X76962286Y-28135378D01*
X76565668Y-27970687D01*
X76136216Y-27970313D01*
X76125555Y-27974718D01*
X76129313Y-27965668D01*
X76129687Y-27536216D01*
X75965689Y-27139311D01*
X75662286Y-26835378D01*
X75265668Y-26670687D01*
X74836216Y-26670313D01*
X74439311Y-26834311D01*
X74135378Y-27137714D01*
X73970687Y-27534332D01*
X73970313Y-27963784D01*
X74134311Y-28360689D01*
X74437714Y-28664622D01*
X74834332Y-28829313D01*
X75263784Y-28829687D01*
X75274444Y-28825281D01*
X75270687Y-28834332D01*
X75270313Y-29263784D01*
X75434311Y-29660689D01*
X75737714Y-29964622D01*
X76134332Y-30129313D01*
X76563784Y-30129687D01*
X76960689Y-29965689D01*
X77264622Y-29662286D01*
X77429313Y-29265668D01*
X77429687Y-28836216D01*
X77429687Y-35853163D01*
X77319470Y-36018115D01*
X77263400Y-36300000D01*
X77263400Y-42345380D01*
X77186216Y-42345313D01*
X76789311Y-42509311D01*
X76485378Y-42812714D01*
X76320687Y-43209332D01*
X76320313Y-43638784D01*
X76484311Y-44035689D01*
X76787714Y-44339622D01*
X77184332Y-44504313D01*
X77613784Y-44504687D01*
X78010689Y-44340689D01*
X78271689Y-44080143D01*
X78284311Y-44110689D01*
X78587714Y-44414622D01*
X78984332Y-44579313D01*
X79413784Y-44579687D01*
X79810689Y-44415689D01*
X80114622Y-44112286D01*
X80123168Y-44091703D01*
X80234311Y-44360689D01*
X80537714Y-44664622D01*
X80934332Y-44829313D01*
X81363784Y-44829687D01*
X81760689Y-44665689D01*
X82064622Y-44362286D01*
X82220510Y-43986866D01*
X82220313Y-44213784D01*
X82384311Y-44610689D01*
X82687714Y-44914622D01*
X83084332Y-45079313D01*
X83513784Y-45079687D01*
X83910689Y-44915689D01*
X84214622Y-44612286D01*
X84379313Y-44215668D01*
X84379687Y-43786216D01*
X84215689Y-43389311D01*
X83912286Y-43085378D01*
X83515668Y-42920687D01*
X83086216Y-42920313D01*
X82689311Y-43084311D01*
X82385378Y-43387714D01*
X82229489Y-43763133D01*
X82229687Y-43536216D01*
X82065689Y-43139311D01*
X81886600Y-42959909D01*
X81886600Y-42484875D01*
X82005530Y-42306885D01*
X82061600Y-42025000D01*
X82061600Y-41805110D01*
X82445855Y-41420855D01*
X82605530Y-41181885D01*
X82661600Y-40900000D01*
X82661600Y-39829314D01*
X83088784Y-39829687D01*
X83485689Y-39665689D01*
X83789622Y-39362286D01*
X83954313Y-38965668D01*
X83954687Y-38536216D01*
X83790689Y-38139311D01*
X83487286Y-37835378D01*
X83090668Y-37670687D01*
X82846885Y-37670474D01*
X82596778Y-37419931D01*
X84520855Y-35495855D01*
X84680530Y-35256885D01*
X84701853Y-35149683D01*
X84914622Y-34937286D01*
X85079313Y-34540668D01*
X85079687Y-34111216D01*
X85031644Y-33994944D01*
X85214622Y-33812286D01*
X85352751Y-33479633D01*
X85413784Y-33479687D01*
X85810689Y-33315689D01*
X86114622Y-33012286D01*
X86279313Y-32615668D01*
X86279626Y-32256170D01*
X86487714Y-32464622D01*
X86884332Y-32629313D01*
X87313784Y-32629687D01*
X87710689Y-32465689D01*
X88014622Y-32162286D01*
X88179313Y-31765668D01*
X88179687Y-31336216D01*
X88179687Y-33903246D01*
X87912286Y-33635378D01*
X87515668Y-33470687D01*
X87086216Y-33470313D01*
X86689311Y-33634311D01*
X86385378Y-33937714D01*
X86220687Y-34334332D01*
X86220313Y-34763784D01*
X86384311Y-35160689D01*
X86687714Y-35464622D01*
X87084332Y-35629313D01*
X87513784Y-35629687D01*
X87910689Y-35465689D01*
X88214622Y-35162286D01*
X88325068Y-34896302D01*
X88434311Y-35160689D01*
X88737714Y-35464622D01*
X89134332Y-35629313D01*
X89563784Y-35629687D01*
X89960689Y-35465689D01*
X90264622Y-35162286D01*
X90429313Y-34765668D01*
X90429687Y-34336216D01*
X90265689Y-33939311D01*
X89962286Y-33635378D01*
X89948023Y-33629455D01*
X90213784Y-33629687D01*
X90610689Y-33465689D01*
X90914622Y-33162286D01*
X91079313Y-32765668D01*
X91079687Y-32336216D01*
X90919915Y-31949538D01*
X91079313Y-31565668D01*
X91079687Y-31136216D01*
X90915689Y-30739311D01*
X90612286Y-30435378D01*
X90597707Y-30429324D01*
X91013784Y-30429687D01*
X91410689Y-30265689D01*
X91714622Y-29962286D01*
X91879313Y-29565668D01*
X91879687Y-29136216D01*
X91879687Y-40247270D01*
X91815668Y-40220687D01*
X91386216Y-40220313D01*
X91032978Y-40366268D01*
X90786600Y-40119890D01*
X90786600Y-39764997D01*
X90964622Y-39587286D01*
X91129313Y-39190668D01*
X91129687Y-38761216D01*
X90965689Y-38364311D01*
X90662286Y-38060378D01*
X90404606Y-37953379D01*
X90404687Y-37861216D01*
X90240689Y-37464311D01*
X89937286Y-37160378D01*
X89540668Y-36995687D01*
X89111216Y-36995313D01*
X88714311Y-37159311D01*
X88410378Y-37462714D01*
X88401831Y-37483296D01*
X88290689Y-37214311D01*
X87987286Y-36910378D01*
X87590668Y-36745687D01*
X87161216Y-36745313D01*
X86764311Y-36909311D01*
X86488969Y-37184172D01*
X86215668Y-37070687D01*
X85786216Y-37070313D01*
X85389311Y-37234311D01*
X85085378Y-37537714D01*
X84920687Y-37934332D01*
X84920313Y-38363784D01*
X85084311Y-38760689D01*
X85387714Y-39064622D01*
X85784332Y-39229313D01*
X86213784Y-39229687D01*
X86370333Y-39165001D01*
X86370313Y-39188784D01*
X86534311Y-39585689D01*
X86837714Y-39889622D01*
X87234332Y-40054313D01*
X87663784Y-40054687D01*
X87832968Y-39984781D01*
X87887714Y-40039622D01*
X88284332Y-40204313D01*
X88588400Y-40204577D01*
X88588400Y-40525000D01*
X88644470Y-40806885D01*
X88804145Y-41045855D01*
X89363400Y-41605110D01*
X89363400Y-42575000D01*
X89363400Y-43036755D01*
X89212286Y-42885378D01*
X88815668Y-42720687D01*
X88386216Y-42720313D01*
X87989311Y-42884311D01*
X87685378Y-43187714D01*
X87520687Y-43584332D01*
X87520655Y-43620647D01*
X87136216Y-43620313D01*
X86739311Y-43784311D01*
X86435378Y-44087714D01*
X86270687Y-44484332D01*
X86270313Y-44913784D01*
X86434311Y-45310689D01*
X86534261Y-45410814D01*
X86420687Y-45684332D01*
X86420313Y-46113784D01*
X86584311Y-46510689D01*
X86748355Y-46675020D01*
X86585378Y-46837714D01*
X86420687Y-47234332D01*
X86420313Y-47663784D01*
X86584311Y-48060689D01*
X86887714Y-48364622D01*
X87284332Y-48529313D01*
X87713784Y-48529687D01*
X88110689Y-48365689D01*
X88414622Y-48062286D01*
X88563129Y-47704642D01*
X88613784Y-47704687D01*
X88975399Y-47555270D01*
X89334332Y-47704313D01*
X89763784Y-47704687D01*
X90160689Y-47540689D01*
X90464622Y-47237286D01*
X90629313Y-46840668D01*
X90629533Y-46587176D01*
X90795855Y-46420855D01*
X91045855Y-46170855D01*
X91205530Y-45931885D01*
X91261600Y-45650000D01*
X91261600Y-42328349D01*
X91384332Y-42379313D01*
X91813784Y-42379687D01*
X92210689Y-42215689D01*
X92514622Y-41912286D01*
X92679313Y-41515668D01*
X92679687Y-41086216D01*
X92679687Y-44143918D01*
X92385378Y-44437714D01*
X92220687Y-44834332D01*
X92220313Y-45263784D01*
X92384311Y-45660689D01*
X92687714Y-45964622D01*
X93084332Y-46129313D01*
X93513784Y-46129687D01*
X93910689Y-45965689D01*
X94214622Y-45662286D01*
X94379313Y-45265668D01*
X94379687Y-44836216D01*
X94379687Y-52315000D01*
X90685000Y-52315000D01*
X90685000Y-52000000D01*
X90632857Y-51737862D01*
X90627000Y-51729096D01*
X90627000Y-51373000D01*
X90270903Y-51373000D01*
X90262138Y-51367143D01*
X90000000Y-51315000D01*
X88584256Y-51315000D01*
X88729313Y-50965668D01*
X88729687Y-50536216D01*
X88565689Y-50139311D01*
X88262286Y-49835378D01*
X87865668Y-49670687D01*
X87436216Y-49670313D01*
X87039311Y-49834311D01*
X86735378Y-50137714D01*
X86570687Y-50534332D01*
X86570313Y-50963784D01*
X86715432Y-51315000D01*
X83561903Y-51315000D01*
X83564622Y-51312286D01*
X83729313Y-50915668D01*
X83729687Y-50486216D01*
X83572978Y-50106953D01*
X83704313Y-49790668D01*
X83704687Y-49361216D01*
X83540689Y-48964311D01*
X83237286Y-48660378D01*
X82840668Y-48495687D01*
X82587176Y-48495466D01*
X81570855Y-47479145D01*
X81331885Y-47319470D01*
X81050000Y-47263400D01*
X80304687Y-47263400D01*
X80304687Y-45936216D01*
X80140689Y-45539311D01*
X79837286Y-45235378D01*
X79440668Y-45070687D01*
X79011216Y-45070313D01*
X78614311Y-45234311D01*
X78310378Y-45537714D01*
X78145687Y-45934332D01*
X78145313Y-46363784D01*
X78309311Y-46760689D01*
X78612714Y-47064622D01*
X79009332Y-47229313D01*
X79438784Y-47229687D01*
X79835689Y-47065689D01*
X80139622Y-46762286D01*
X80304313Y-46365668D01*
X80304687Y-45936216D01*
X80304687Y-47263400D01*
X77750000Y-47263400D01*
X77468115Y-47319470D01*
X77229145Y-47479145D01*
X76854145Y-47854145D01*
X76791336Y-47948144D01*
X76764311Y-47959311D01*
X76460378Y-48262714D01*
X76295687Y-48659332D01*
X76295313Y-49088784D01*
X76459311Y-49485689D01*
X76762714Y-49789622D01*
X77159332Y-49954313D01*
X77588784Y-49954687D01*
X77925337Y-49815625D01*
X78259332Y-49954313D01*
X78688784Y-49954687D01*
X79085689Y-49790689D01*
X79265090Y-49611600D01*
X80161974Y-49611600D01*
X79885378Y-49887714D01*
X79720687Y-50284332D01*
X79720313Y-50713784D01*
X79884311Y-51110689D01*
X80187714Y-51414622D01*
X80584332Y-51579313D01*
X81013784Y-51579687D01*
X81373000Y-51431261D01*
X81373000Y-51729096D01*
X81367143Y-51737862D01*
X81315000Y-52000000D01*
X81315000Y-52315000D01*
X78411684Y-52315000D01*
X78539622Y-52187286D01*
X78704313Y-51790668D01*
X78704687Y-51361216D01*
X78540689Y-50964311D01*
X78237286Y-50660378D01*
X77840668Y-50495687D01*
X77411216Y-50495313D01*
X77029668Y-50652965D01*
X76912286Y-50535378D01*
X76515668Y-50370687D01*
X76129687Y-50370350D01*
X76129687Y-48586216D01*
X75979687Y-48223188D01*
X75979687Y-41611216D01*
X75815689Y-41214311D01*
X75512286Y-40910378D01*
X75310000Y-40826381D01*
X75310000Y-39174685D01*
X75310000Y-38825315D01*
X75225506Y-38400536D01*
X74984889Y-38040426D01*
X74624779Y-37799809D01*
X74200000Y-37715315D01*
X73879540Y-37779058D01*
X73879687Y-37611216D01*
X73715689Y-37214311D01*
X73412286Y-36910378D01*
X73015668Y-36745687D01*
X72586216Y-36745313D01*
X72189311Y-36909311D01*
X71885378Y-37212714D01*
X71720687Y-37609332D01*
X71720313Y-38038784D01*
X71884311Y-38435689D01*
X72187714Y-38739622D01*
X72584332Y-38904313D01*
X73013784Y-38904687D01*
X73090000Y-38873195D01*
X73090000Y-39174685D01*
X73174494Y-39599464D01*
X73415111Y-39959574D01*
X73775221Y-40200191D01*
X74200000Y-40284685D01*
X74624779Y-40200191D01*
X74984889Y-39959574D01*
X75225506Y-39599464D01*
X75310000Y-39174685D01*
X75310000Y-40826381D01*
X75115668Y-40745687D01*
X74686216Y-40745313D01*
X74289311Y-40909311D01*
X73985378Y-41212714D01*
X73911387Y-41390901D01*
X73564311Y-41534311D01*
X73260378Y-41837714D01*
X73095687Y-42234332D01*
X73095313Y-42663784D01*
X73259311Y-43060689D01*
X73562714Y-43364622D01*
X73959332Y-43529313D01*
X74388784Y-43529687D01*
X74785689Y-43365689D01*
X75089622Y-43062286D01*
X75163612Y-42884098D01*
X75510689Y-42740689D01*
X75814622Y-42437286D01*
X75979313Y-42040668D01*
X75979687Y-41611216D01*
X75979687Y-48223188D01*
X75965689Y-48189311D01*
X75929687Y-48153246D01*
X75929687Y-45911216D01*
X75765689Y-45514311D01*
X75462286Y-45210378D01*
X75065668Y-45045687D01*
X74636216Y-45045313D01*
X74239311Y-45209311D01*
X73935378Y-45512714D01*
X73770687Y-45909332D01*
X73770313Y-46338784D01*
X73934311Y-46735689D01*
X74237714Y-47039622D01*
X74634332Y-47204313D01*
X75063784Y-47204687D01*
X75460689Y-47040689D01*
X75764622Y-46737286D01*
X75929313Y-46340668D01*
X75929687Y-45911216D01*
X75929687Y-48153246D01*
X75662286Y-47885378D01*
X75265668Y-47720687D01*
X74836216Y-47720313D01*
X74439311Y-47884311D01*
X74266788Y-48056533D01*
X74240668Y-48045687D01*
X73811216Y-48045313D01*
X73414311Y-48209311D01*
X73400241Y-48223356D01*
X73387286Y-48210378D01*
X72990668Y-48045687D01*
X72561216Y-48045313D01*
X72164311Y-48209311D01*
X71860378Y-48512714D01*
X71695687Y-48909332D01*
X71695313Y-49338784D01*
X71859311Y-49735689D01*
X72162714Y-50039622D01*
X72559332Y-50204313D01*
X72988784Y-50204687D01*
X73385689Y-50040689D01*
X73399758Y-50026643D01*
X73412714Y-50039622D01*
X73809332Y-50204313D01*
X74238784Y-50204687D01*
X74635689Y-50040689D01*
X74808211Y-49868466D01*
X74834332Y-49879313D01*
X75263784Y-49879687D01*
X75660689Y-49715689D01*
X75964622Y-49412286D01*
X76129313Y-49015668D01*
X76129687Y-48586216D01*
X76129687Y-50370350D01*
X76086216Y-50370313D01*
X75689311Y-50534311D01*
X75612632Y-50610855D01*
X75537286Y-50535378D01*
X75140668Y-50370687D01*
X74711216Y-50370313D01*
X74314311Y-50534311D01*
X74010378Y-50837714D01*
X73845687Y-51234332D01*
X73845313Y-51663784D01*
X74009311Y-52060689D01*
X74263178Y-52315000D01*
X72961510Y-52315000D01*
X73189622Y-52087286D01*
X73354313Y-51690668D01*
X73354687Y-51261216D01*
X73190689Y-50864311D01*
X72887286Y-50560378D01*
X72490668Y-50395687D01*
X72061216Y-50395313D01*
X71664311Y-50559311D01*
X71360378Y-50862714D01*
X71195687Y-51259332D01*
X71195313Y-51688784D01*
X71359311Y-52085689D01*
X71588222Y-52315000D01*
X70685000Y-52315000D01*
X70685000Y-40996464D01*
X70763030Y-41048603D01*
X71197376Y-41135000D01*
X71802624Y-41135000D01*
X72236970Y-41048603D01*
X72605190Y-40802566D01*
X72851227Y-40434346D01*
X72937624Y-40000000D01*
X72851227Y-39565654D01*
X72605190Y-39197434D01*
X72236970Y-38951397D01*
X71802624Y-38865000D01*
X71197376Y-38865000D01*
X70763030Y-38951397D01*
X70685000Y-39003535D01*
X70685000Y-35751851D01*
X70709311Y-35810689D01*
X71012714Y-36114622D01*
X71409332Y-36279313D01*
X71838784Y-36279687D01*
X72162806Y-36145803D01*
X72484332Y-36279313D01*
X72913784Y-36279687D01*
X73310689Y-36115689D01*
X73614622Y-35812286D01*
X73779313Y-35415668D01*
X73779499Y-35201042D01*
X74200000Y-35284685D01*
X74545485Y-35215963D01*
X74545313Y-35413784D01*
X74709311Y-35810689D01*
X75012714Y-36114622D01*
X75409332Y-36279313D01*
X75838784Y-36279687D01*
X76235689Y-36115689D01*
X76539622Y-35812286D01*
X76704313Y-35415668D01*
X76704687Y-34986216D01*
X76540689Y-34589311D01*
X76237286Y-34285378D01*
X75840668Y-34120687D01*
X75557172Y-34120440D01*
X75810689Y-34015689D01*
X76114622Y-33712286D01*
X76279313Y-33315668D01*
X76279687Y-32886216D01*
X76115689Y-32489311D01*
X75812286Y-32185378D01*
X75629623Y-32109529D01*
X75629687Y-32036216D01*
X75465689Y-31639311D01*
X75162286Y-31335378D01*
X74765668Y-31170687D01*
X74336216Y-31170313D01*
X74085079Y-31274080D01*
X73715668Y-31120687D01*
X73286216Y-31120313D01*
X73048434Y-31218562D01*
X73015689Y-31139311D01*
X72712286Y-30835378D01*
X72315668Y-30670687D01*
X71886216Y-30670313D01*
X71489311Y-30834311D01*
X71185378Y-31137714D01*
X71020687Y-31534332D01*
X71020368Y-31900209D01*
X70763030Y-31951397D01*
X70685000Y-32003535D01*
X70685000Y-30317304D01*
X70834332Y-30379313D01*
X71263784Y-30379687D01*
X71660689Y-30215689D01*
X71964622Y-29912286D01*
X72129313Y-29515668D01*
X72129687Y-29086216D01*
X72000981Y-28774724D01*
X72129313Y-28465668D01*
X72129687Y-28036216D01*
X71965689Y-27639311D01*
X71951024Y-27624620D01*
X72079313Y-27315668D01*
X72079687Y-26886216D01*
X71950981Y-26574724D01*
X72079313Y-26265668D01*
X72079687Y-25836216D01*
X71950981Y-25524724D01*
X72079313Y-25215668D01*
X72079518Y-24979613D01*
X72163784Y-24979687D01*
X72560689Y-24815689D01*
X72864622Y-24512286D01*
X72973513Y-24250047D01*
X73187714Y-24464622D01*
X73584332Y-24629313D01*
X74013784Y-24629687D01*
X74410689Y-24465689D01*
X74410691Y-24465686D01*
X74684332Y-24579313D01*
X75113784Y-24579687D01*
X75510689Y-24415689D01*
X75814622Y-24112286D01*
X75979313Y-23715668D01*
X75979687Y-23286216D01*
X75815689Y-22889311D01*
X75512286Y-22585378D01*
X75115668Y-22420687D01*
X74686216Y-22420313D01*
X74289311Y-22584311D01*
X74289308Y-22584313D01*
X74015668Y-22470687D01*
X73586216Y-22470313D01*
X73189311Y-22634311D01*
X72885378Y-22937714D01*
X72776486Y-23199952D01*
X72562286Y-22985378D01*
X72165668Y-22820687D01*
X71736216Y-22820313D01*
X71339311Y-22984311D01*
X71035378Y-23287714D01*
X70870687Y-23684332D01*
X70870481Y-23920386D01*
X70786216Y-23920313D01*
X70685000Y-23962134D01*
X70685000Y-20685000D01*
X72955937Y-20685000D01*
X72815518Y-21023168D01*
X72815124Y-21474850D01*
X72987611Y-21892301D01*
X73306719Y-22211967D01*
X73723868Y-22385182D01*
X74175550Y-22385576D01*
X74593001Y-22213089D01*
X74699906Y-22106370D01*
X74805319Y-22211967D01*
X75222468Y-22385182D01*
X75674150Y-22385576D01*
X76091601Y-22213089D01*
X76411267Y-21893981D01*
X76584482Y-21476832D01*
X76584876Y-21025150D01*
X76444329Y-20685000D01*
X81174219Y-20685000D01*
X81070687Y-20934332D01*
X81070313Y-21363784D01*
X81234311Y-21760689D01*
X81537714Y-22064622D01*
X81934332Y-22229313D01*
X82363784Y-22229687D01*
X82760689Y-22065689D01*
X83064622Y-21762286D01*
X83229313Y-21365668D01*
X83229687Y-20936216D01*
X83125886Y-20685000D01*
X90238096Y-20685000D01*
X90235378Y-20687714D01*
X90070687Y-21084332D01*
X90070374Y-21443480D01*
X90062286Y-21435378D01*
X89665668Y-21270687D01*
X89236216Y-21270313D01*
X88839311Y-21434311D01*
X88535378Y-21737714D01*
X88370687Y-22134332D01*
X88370313Y-22563784D01*
X88534311Y-22960689D01*
X88837714Y-23264622D01*
X89234332Y-23429313D01*
X89663784Y-23429687D01*
X90060689Y-23265689D01*
X90170581Y-23155988D01*
X90170313Y-23463784D01*
X90334311Y-23860689D01*
X90637714Y-24164622D01*
X91034332Y-24329313D01*
X91343698Y-24329582D01*
X91235378Y-24437714D01*
X91070687Y-24834332D01*
X91070313Y-25263784D01*
X91234311Y-25660689D01*
X91537714Y-25964622D01*
X91934332Y-26129313D01*
X92363784Y-26129687D01*
X92760689Y-25965689D01*
X93064622Y-25662286D01*
X93229313Y-25265668D01*
X93229687Y-24836216D01*
X93065689Y-24439311D01*
X92762286Y-24135378D01*
X92365668Y-23970687D01*
X92056301Y-23970417D01*
X92164622Y-23862286D01*
X92329313Y-23465668D01*
X92329687Y-23036216D01*
X92165689Y-22639311D01*
X91862286Y-22335378D01*
X91667136Y-22254344D01*
X91760689Y-22215689D01*
X92064622Y-21912286D01*
X92229313Y-21515668D01*
X92229687Y-21086216D01*
X92065689Y-20689311D01*
X92061385Y-20685000D01*
X99888184Y-20685000D01*
X99835378Y-20737714D01*
X99670687Y-21134332D01*
X99670313Y-21563784D01*
X99834311Y-21960689D01*
X100137714Y-22264622D01*
X100534332Y-22429313D01*
X100963784Y-22429687D01*
X101315000Y-22284567D01*
X101315000Y-40000000D01*
X101367143Y-40262138D01*
X101373000Y-40270903D01*
X101373000Y-47746198D01*
X101312286Y-47685378D01*
X101279687Y-47671841D01*
X101279687Y-40986216D01*
X101115689Y-40589311D01*
X100812286Y-40285378D01*
X100779687Y-40271841D01*
X100779687Y-25686216D01*
X100615689Y-25289311D01*
X100312286Y-24985378D01*
X99915668Y-24820687D01*
X99486216Y-24820313D01*
X99089311Y-24984311D01*
X98785378Y-25287714D01*
X98620687Y-25684332D01*
X98620313Y-26113784D01*
X98784311Y-26510689D01*
X99087714Y-26814622D01*
X99484332Y-26979313D01*
X99913784Y-26979687D01*
X100310689Y-26815689D01*
X100614622Y-26512286D01*
X100779313Y-26115668D01*
X100779687Y-25686216D01*
X100779687Y-40271841D01*
X100415668Y-40120687D01*
X99986216Y-40120313D01*
X99729687Y-40226308D01*
X99729687Y-32786216D01*
X99565689Y-32389311D01*
X99262286Y-32085378D01*
X98865668Y-31920687D01*
X98823255Y-31920650D01*
X98729687Y-31694198D01*
X98729687Y-29436216D01*
X98565689Y-29039311D01*
X98262286Y-28735378D01*
X97865668Y-28570687D01*
X97436216Y-28570313D01*
X97229687Y-28655649D01*
X97229687Y-24986216D01*
X97065689Y-24589311D01*
X96762286Y-24285378D01*
X96365668Y-24120687D01*
X95936216Y-24120313D01*
X95539311Y-24284311D01*
X95235378Y-24587714D01*
X95070687Y-24984332D01*
X95070313Y-25413784D01*
X95234311Y-25810689D01*
X95537714Y-26114622D01*
X95934332Y-26279313D01*
X96363784Y-26279687D01*
X96760689Y-26115689D01*
X97064622Y-25812286D01*
X97229313Y-25415668D01*
X97229687Y-24986216D01*
X97229687Y-28655649D01*
X97039311Y-28734311D01*
X96735378Y-29037714D01*
X96570687Y-29434332D01*
X96570313Y-29863784D01*
X96734311Y-30260689D01*
X97037714Y-30564622D01*
X97434332Y-30729313D01*
X97863784Y-30729687D01*
X98260689Y-30565689D01*
X98564622Y-30262286D01*
X98729313Y-29865668D01*
X98729687Y-29436216D01*
X98729687Y-31694198D01*
X98665689Y-31539311D01*
X98362286Y-31235378D01*
X97965668Y-31070687D01*
X97536216Y-31070313D01*
X97139311Y-31234311D01*
X96835378Y-31537714D01*
X96670687Y-31934332D01*
X96670313Y-32363784D01*
X96673023Y-32370345D01*
X96636216Y-32370313D01*
X96239311Y-32534311D01*
X95935378Y-32837714D01*
X95770687Y-33234332D01*
X95770313Y-33663784D01*
X95919729Y-34025399D01*
X95770687Y-34384332D01*
X95770313Y-34813784D01*
X95797975Y-34880731D01*
X95789311Y-34884311D01*
X95485378Y-35187714D01*
X95320687Y-35584332D01*
X95320313Y-36013784D01*
X95484311Y-36410689D01*
X95787714Y-36714622D01*
X96184332Y-36879313D01*
X96503179Y-36879590D01*
X96787714Y-37164622D01*
X97184332Y-37329313D01*
X97613784Y-37329687D01*
X98010689Y-37165689D01*
X98314622Y-36862286D01*
X98479313Y-36465668D01*
X98479687Y-36036216D01*
X98315689Y-35639311D01*
X98012286Y-35335378D01*
X97750294Y-35226588D01*
X97764622Y-35212286D01*
X97929313Y-34815668D01*
X97929687Y-34386216D01*
X97780270Y-34024600D01*
X97888150Y-33764797D01*
X98037714Y-33914622D01*
X98434332Y-34079313D01*
X98863784Y-34079687D01*
X99260689Y-33915689D01*
X99564622Y-33612286D01*
X99729313Y-33215668D01*
X99729687Y-32786216D01*
X99729687Y-40226308D01*
X99589311Y-40284311D01*
X99285378Y-40587714D01*
X99120687Y-40984332D01*
X99120313Y-41413784D01*
X99284311Y-41810689D01*
X99587714Y-42114622D01*
X99984332Y-42279313D01*
X100413784Y-42279687D01*
X100810689Y-42115689D01*
X101114622Y-41812286D01*
X101279313Y-41415668D01*
X101279687Y-40986216D01*
X101279687Y-47671841D01*
X100915668Y-47520687D01*
X100486216Y-47520313D01*
X100089311Y-47684311D01*
X99785378Y-47987714D01*
X99647135Y-48320637D01*
X99412286Y-48085378D01*
X99154687Y-47978413D01*
X99154687Y-43711216D01*
X98990689Y-43314311D01*
X98687286Y-43010378D01*
X98290668Y-42845687D01*
X97966965Y-42845405D01*
X97979313Y-42815668D01*
X97979687Y-42386216D01*
X97815689Y-41989311D01*
X97512286Y-41685378D01*
X97115668Y-41520687D01*
X96686216Y-41520313D01*
X96289311Y-41684311D01*
X95985378Y-41987714D01*
X95820687Y-42384332D01*
X95820313Y-42813784D01*
X95984311Y-43210689D01*
X96287714Y-43514622D01*
X96684332Y-43679313D01*
X97008034Y-43679594D01*
X96995687Y-43709332D01*
X96995313Y-44138784D01*
X97159311Y-44535689D01*
X97248421Y-44624954D01*
X97085378Y-44787714D01*
X96920687Y-45184332D01*
X96920313Y-45613784D01*
X97084311Y-46010689D01*
X97387714Y-46314622D01*
X97784332Y-46479313D01*
X98213784Y-46479687D01*
X98610689Y-46315689D01*
X98914622Y-46012286D01*
X99079313Y-45615668D01*
X99079687Y-45186216D01*
X98915689Y-44789311D01*
X98826578Y-44700045D01*
X98989622Y-44537286D01*
X99154313Y-44140668D01*
X99154687Y-43711216D01*
X99154687Y-47978413D01*
X99015668Y-47920687D01*
X98586216Y-47920313D01*
X98189311Y-48084311D01*
X97885378Y-48387714D01*
X97720687Y-48784332D01*
X97720313Y-49213784D01*
X97884311Y-49610689D01*
X97890299Y-49616687D01*
X97820687Y-49784332D01*
X97820313Y-50213784D01*
X97984311Y-50610689D01*
X98287714Y-50914622D01*
X98684332Y-51079313D01*
X99113784Y-51079687D01*
X99510689Y-50915689D01*
X99814622Y-50612286D01*
X99979313Y-50215668D01*
X99979687Y-49786216D01*
X99815689Y-49389311D01*
X99809700Y-49383312D01*
X99852864Y-49279362D01*
X100087714Y-49514622D01*
X100484332Y-49679313D01*
X100913784Y-49679687D01*
X101310689Y-49515689D01*
X101373000Y-49453486D01*
X101373000Y-52315000D01*
X101373000Y-52315000D01*
G37*
X101373000Y-52315000D02*
X94379687Y-52315000D01*
X94379687Y-44836216D01*
X94229687Y-44473188D01*
X94229687Y-36386216D01*
X94065689Y-35989311D01*
X93901687Y-35825023D01*
X94014622Y-35712286D01*
X94179313Y-35315668D01*
X94179687Y-34886216D01*
X94015689Y-34489311D01*
X93712286Y-34185378D01*
X93315668Y-34020687D01*
X92886216Y-34020313D01*
X92489311Y-34184311D01*
X92185378Y-34487714D01*
X92020687Y-34884332D01*
X92020313Y-35313784D01*
X92184311Y-35710689D01*
X92348312Y-35874976D01*
X92235378Y-35987714D01*
X92070687Y-36384332D01*
X92070313Y-36813784D01*
X92234311Y-37210689D01*
X92537714Y-37514622D01*
X92934332Y-37679313D01*
X93363784Y-37679687D01*
X93760689Y-37515689D01*
X94064622Y-37212286D01*
X94229313Y-36815668D01*
X94229687Y-36386216D01*
X94229687Y-44473188D01*
X94215689Y-44439311D01*
X93912286Y-44135378D01*
X93515668Y-43970687D01*
X93086216Y-43970313D01*
X92689311Y-44134311D01*
X92679687Y-44143918D01*
X92679687Y-41086216D01*
X92515689Y-40689311D01*
X92212286Y-40385378D01*
X91879687Y-40247270D01*
X91879687Y-29136216D01*
X91715689Y-28739311D01*
X91412286Y-28435378D01*
X91015668Y-28270687D01*
X90586216Y-28270313D01*
X90189311Y-28434311D01*
X89885378Y-28737714D01*
X89720687Y-29134332D01*
X89720313Y-29563784D01*
X89884311Y-29960689D01*
X90187714Y-30264622D01*
X90202292Y-30270675D01*
X89786216Y-30270313D01*
X89389311Y-30434311D01*
X89085378Y-30737714D01*
X88920687Y-31134332D01*
X88920313Y-31563784D01*
X89080084Y-31950461D01*
X88920687Y-32334332D01*
X88920313Y-32763784D01*
X89084311Y-33160689D01*
X89387714Y-33464622D01*
X89401976Y-33470544D01*
X89136216Y-33470313D01*
X88739311Y-33634311D01*
X88435378Y-33937714D01*
X88324931Y-34203697D01*
X88215689Y-33939311D01*
X88179687Y-33903246D01*
X88179687Y-31336216D01*
X88015689Y-30939311D01*
X87879687Y-30803071D01*
X87879687Y-22336216D01*
X87715689Y-21939311D01*
X87412286Y-21635378D01*
X87015668Y-21470687D01*
X86586216Y-21470313D01*
X86189311Y-21634311D01*
X85885378Y-21937714D01*
X85720687Y-22334332D01*
X85720313Y-22763784D01*
X85884311Y-23160689D01*
X86187714Y-23464622D01*
X86584332Y-23629313D01*
X87013784Y-23629687D01*
X87410689Y-23465689D01*
X87714622Y-23162286D01*
X87879313Y-22765668D01*
X87879687Y-22336216D01*
X87879687Y-30803071D01*
X87712286Y-30635378D01*
X87315668Y-30470687D01*
X86886216Y-30470313D01*
X86489311Y-30634311D01*
X86185378Y-30937714D01*
X86020687Y-31334332D01*
X86020373Y-31693829D01*
X85812286Y-31485378D01*
X85415668Y-31320687D01*
X84986216Y-31320313D01*
X84589311Y-31484311D01*
X84409909Y-31663400D01*
X83555683Y-31663400D01*
X83679313Y-31365668D01*
X83679687Y-30936216D01*
X83629687Y-30815206D01*
X83629687Y-26486216D01*
X83465689Y-26089311D01*
X83162286Y-25785378D01*
X82765668Y-25620687D01*
X82336216Y-25620313D01*
X82141143Y-25700915D01*
X82115689Y-25639311D01*
X81812286Y-25335378D01*
X81415668Y-25170687D01*
X80986216Y-25170313D01*
X80894207Y-25208330D01*
X80865689Y-25139311D01*
X80562286Y-24835378D01*
X80165668Y-24670687D01*
X79736216Y-24670313D01*
X79429687Y-24796968D01*
X79429687Y-23786216D01*
X79265689Y-23389311D01*
X78962286Y-23085378D01*
X78565668Y-22920687D01*
X78136216Y-22920313D01*
X77739311Y-23084311D01*
X77435378Y-23387714D01*
X77270687Y-23784332D01*
X77270313Y-24213784D01*
X77434311Y-24610689D01*
X77737714Y-24914622D01*
X78134332Y-25079313D01*
X78563784Y-25079687D01*
X78960689Y-24915689D01*
X79264622Y-24612286D01*
X79429313Y-24215668D01*
X79429687Y-23786216D01*
X79429687Y-24796968D01*
X79339311Y-24834311D01*
X79035378Y-25137714D01*
X78870687Y-25534332D01*
X78870313Y-25963784D01*
X79034311Y-26360689D01*
X79337714Y-26664622D01*
X79734332Y-26829313D01*
X80163784Y-26829687D01*
X80255792Y-26791669D01*
X80284311Y-26860689D01*
X80587714Y-27164622D01*
X80984332Y-27329313D01*
X81413784Y-27329687D01*
X81608856Y-27249084D01*
X81634311Y-27310689D01*
X81937714Y-27614622D01*
X82334332Y-27779313D01*
X82763784Y-27779687D01*
X83160689Y-27615689D01*
X83464622Y-27312286D01*
X83629313Y-26915668D01*
X83629687Y-26486216D01*
X83629687Y-30815206D01*
X83515689Y-30539311D01*
X83212286Y-30235378D01*
X82815668Y-30070687D01*
X82386216Y-30070313D01*
X82179687Y-30155649D01*
X82179687Y-29136216D01*
X82015689Y-28739311D01*
X81712286Y-28435378D01*
X81315668Y-28270687D01*
X80886216Y-28270313D01*
X80489311Y-28434311D01*
X80185378Y-28737714D01*
X80020687Y-29134332D01*
X80020394Y-29470516D01*
X79786216Y-29470313D01*
X79389311Y-29634311D01*
X79085378Y-29937714D01*
X78920687Y-30334332D01*
X78920313Y-30763784D01*
X79084311Y-31160689D01*
X79387714Y-31464622D01*
X79784332Y-31629313D01*
X80213784Y-31629687D01*
X80610689Y-31465689D01*
X80914622Y-31162286D01*
X81079313Y-30765668D01*
X81079605Y-30429483D01*
X81313784Y-30429687D01*
X81710689Y-30265689D01*
X82014622Y-29962286D01*
X82179313Y-29565668D01*
X82179687Y-29136216D01*
X82179687Y-30155649D01*
X81989311Y-30234311D01*
X81685378Y-30537714D01*
X81520687Y-30934332D01*
X81520313Y-31363784D01*
X81663545Y-31710433D01*
X81618115Y-31719470D01*
X81379145Y-31879145D01*
X77479145Y-35779145D01*
X77429687Y-35853163D01*
X77429687Y-28836216D01*
X77265689Y-28439311D01*
X76962286Y-28135378D01*
X76565668Y-27970687D01*
X76136216Y-27970313D01*
X76125555Y-27974718D01*
X76129313Y-27965668D01*
X76129687Y-27536216D01*
X75965689Y-27139311D01*
X75662286Y-26835378D01*
X75265668Y-26670687D01*
X74836216Y-26670313D01*
X74439311Y-26834311D01*
X74135378Y-27137714D01*
X73970687Y-27534332D01*
X73970313Y-27963784D01*
X74134311Y-28360689D01*
X74437714Y-28664622D01*
X74834332Y-28829313D01*
X75263784Y-28829687D01*
X75274444Y-28825281D01*
X75270687Y-28834332D01*
X75270313Y-29263784D01*
X75434311Y-29660689D01*
X75737714Y-29964622D01*
X76134332Y-30129313D01*
X76563784Y-30129687D01*
X76960689Y-29965689D01*
X77264622Y-29662286D01*
X77429313Y-29265668D01*
X77429687Y-28836216D01*
X77429687Y-35853163D01*
X77319470Y-36018115D01*
X77263400Y-36300000D01*
X77263400Y-42345380D01*
X77186216Y-42345313D01*
X76789311Y-42509311D01*
X76485378Y-42812714D01*
X76320687Y-43209332D01*
X76320313Y-43638784D01*
X76484311Y-44035689D01*
X76787714Y-44339622D01*
X77184332Y-44504313D01*
X77613784Y-44504687D01*
X78010689Y-44340689D01*
X78271689Y-44080143D01*
X78284311Y-44110689D01*
X78587714Y-44414622D01*
X78984332Y-44579313D01*
X79413784Y-44579687D01*
X79810689Y-44415689D01*
X80114622Y-44112286D01*
X80123168Y-44091703D01*
X80234311Y-44360689D01*
X80537714Y-44664622D01*
X80934332Y-44829313D01*
X81363784Y-44829687D01*
X81760689Y-44665689D01*
X82064622Y-44362286D01*
X82220510Y-43986866D01*
X82220313Y-44213784D01*
X82384311Y-44610689D01*
X82687714Y-44914622D01*
X83084332Y-45079313D01*
X83513784Y-45079687D01*
X83910689Y-44915689D01*
X84214622Y-44612286D01*
X84379313Y-44215668D01*
X84379687Y-43786216D01*
X84215689Y-43389311D01*
X83912286Y-43085378D01*
X83515668Y-42920687D01*
X83086216Y-42920313D01*
X82689311Y-43084311D01*
X82385378Y-43387714D01*
X82229489Y-43763133D01*
X82229687Y-43536216D01*
X82065689Y-43139311D01*
X81886600Y-42959909D01*
X81886600Y-42484875D01*
X82005530Y-42306885D01*
X82061600Y-42025000D01*
X82061600Y-41805110D01*
X82445855Y-41420855D01*
X82605530Y-41181885D01*
X82661600Y-40900000D01*
X82661600Y-39829314D01*
X83088784Y-39829687D01*
X83485689Y-39665689D01*
X83789622Y-39362286D01*
X83954313Y-38965668D01*
X83954687Y-38536216D01*
X83790689Y-38139311D01*
X83487286Y-37835378D01*
X83090668Y-37670687D01*
X82846885Y-37670474D01*
X82596778Y-37419931D01*
X84520855Y-35495855D01*
X84680530Y-35256885D01*
X84701853Y-35149683D01*
X84914622Y-34937286D01*
X85079313Y-34540668D01*
X85079687Y-34111216D01*
X85031644Y-33994944D01*
X85214622Y-33812286D01*
X85352751Y-33479633D01*
X85413784Y-33479687D01*
X85810689Y-33315689D01*
X86114622Y-33012286D01*
X86279313Y-32615668D01*
X86279626Y-32256170D01*
X86487714Y-32464622D01*
X86884332Y-32629313D01*
X87313784Y-32629687D01*
X87710689Y-32465689D01*
X88014622Y-32162286D01*
X88179313Y-31765668D01*
X88179687Y-31336216D01*
X88179687Y-33903246D01*
X87912286Y-33635378D01*
X87515668Y-33470687D01*
X87086216Y-33470313D01*
X86689311Y-33634311D01*
X86385378Y-33937714D01*
X86220687Y-34334332D01*
X86220313Y-34763784D01*
X86384311Y-35160689D01*
X86687714Y-35464622D01*
X87084332Y-35629313D01*
X87513784Y-35629687D01*
X87910689Y-35465689D01*
X88214622Y-35162286D01*
X88325068Y-34896302D01*
X88434311Y-35160689D01*
X88737714Y-35464622D01*
X89134332Y-35629313D01*
X89563784Y-35629687D01*
X89960689Y-35465689D01*
X90264622Y-35162286D01*
X90429313Y-34765668D01*
X90429687Y-34336216D01*
X90265689Y-33939311D01*
X89962286Y-33635378D01*
X89948023Y-33629455D01*
X90213784Y-33629687D01*
X90610689Y-33465689D01*
X90914622Y-33162286D01*
X91079313Y-32765668D01*
X91079687Y-32336216D01*
X90919915Y-31949538D01*
X91079313Y-31565668D01*
X91079687Y-31136216D01*
X90915689Y-30739311D01*
X90612286Y-30435378D01*
X90597707Y-30429324D01*
X91013784Y-30429687D01*
X91410689Y-30265689D01*
X91714622Y-29962286D01*
X91879313Y-29565668D01*
X91879687Y-29136216D01*
X91879687Y-40247270D01*
X91815668Y-40220687D01*
X91386216Y-40220313D01*
X91032978Y-40366268D01*
X90786600Y-40119890D01*
X90786600Y-39764997D01*
X90964622Y-39587286D01*
X91129313Y-39190668D01*
X91129687Y-38761216D01*
X90965689Y-38364311D01*
X90662286Y-38060378D01*
X90404606Y-37953379D01*
X90404687Y-37861216D01*
X90240689Y-37464311D01*
X89937286Y-37160378D01*
X89540668Y-36995687D01*
X89111216Y-36995313D01*
X88714311Y-37159311D01*
X88410378Y-37462714D01*
X88401831Y-37483296D01*
X88290689Y-37214311D01*
X87987286Y-36910378D01*
X87590668Y-36745687D01*
X87161216Y-36745313D01*
X86764311Y-36909311D01*
X86488969Y-37184172D01*
X86215668Y-37070687D01*
X85786216Y-37070313D01*
X85389311Y-37234311D01*
X85085378Y-37537714D01*
X84920687Y-37934332D01*
X84920313Y-38363784D01*
X85084311Y-38760689D01*
X85387714Y-39064622D01*
X85784332Y-39229313D01*
X86213784Y-39229687D01*
X86370333Y-39165001D01*
X86370313Y-39188784D01*
X86534311Y-39585689D01*
X86837714Y-39889622D01*
X87234332Y-40054313D01*
X87663784Y-40054687D01*
X87832968Y-39984781D01*
X87887714Y-40039622D01*
X88284332Y-40204313D01*
X88588400Y-40204577D01*
X88588400Y-40525000D01*
X88644470Y-40806885D01*
X88804145Y-41045855D01*
X89363400Y-41605110D01*
X89363400Y-42575000D01*
X89363400Y-43036755D01*
X89212286Y-42885378D01*
X88815668Y-42720687D01*
X88386216Y-42720313D01*
X87989311Y-42884311D01*
X87685378Y-43187714D01*
X87520687Y-43584332D01*
X87520655Y-43620647D01*
X87136216Y-43620313D01*
X86739311Y-43784311D01*
X86435378Y-44087714D01*
X86270687Y-44484332D01*
X86270313Y-44913784D01*
X86434311Y-45310689D01*
X86534261Y-45410814D01*
X86420687Y-45684332D01*
X86420313Y-46113784D01*
X86584311Y-46510689D01*
X86748355Y-46675020D01*
X86585378Y-46837714D01*
X86420687Y-47234332D01*
X86420313Y-47663784D01*
X86584311Y-48060689D01*
X86887714Y-48364622D01*
X87284332Y-48529313D01*
X87713784Y-48529687D01*
X88110689Y-48365689D01*
X88414622Y-48062286D01*
X88563129Y-47704642D01*
X88613784Y-47704687D01*
X88975399Y-47555270D01*
X89334332Y-47704313D01*
X89763784Y-47704687D01*
X90160689Y-47540689D01*
X90464622Y-47237286D01*
X90629313Y-46840668D01*
X90629533Y-46587176D01*
X90795855Y-46420855D01*
X91045855Y-46170855D01*
X91205530Y-45931885D01*
X91261600Y-45650000D01*
X91261600Y-42328349D01*
X91384332Y-42379313D01*
X91813784Y-42379687D01*
X92210689Y-42215689D01*
X92514622Y-41912286D01*
X92679313Y-41515668D01*
X92679687Y-41086216D01*
X92679687Y-44143918D01*
X92385378Y-44437714D01*
X92220687Y-44834332D01*
X92220313Y-45263784D01*
X92384311Y-45660689D01*
X92687714Y-45964622D01*
X93084332Y-46129313D01*
X93513784Y-46129687D01*
X93910689Y-45965689D01*
X94214622Y-45662286D01*
X94379313Y-45265668D01*
X94379687Y-44836216D01*
X94379687Y-52315000D01*
X90685000Y-52315000D01*
X90685000Y-52000000D01*
X90632857Y-51737862D01*
X90627000Y-51729096D01*
X90627000Y-51373000D01*
X90270903Y-51373000D01*
X90262138Y-51367143D01*
X90000000Y-51315000D01*
X88584256Y-51315000D01*
X88729313Y-50965668D01*
X88729687Y-50536216D01*
X88565689Y-50139311D01*
X88262286Y-49835378D01*
X87865668Y-49670687D01*
X87436216Y-49670313D01*
X87039311Y-49834311D01*
X86735378Y-50137714D01*
X86570687Y-50534332D01*
X86570313Y-50963784D01*
X86715432Y-51315000D01*
X83561903Y-51315000D01*
X83564622Y-51312286D01*
X83729313Y-50915668D01*
X83729687Y-50486216D01*
X83572978Y-50106953D01*
X83704313Y-49790668D01*
X83704687Y-49361216D01*
X83540689Y-48964311D01*
X83237286Y-48660378D01*
X82840668Y-48495687D01*
X82587176Y-48495466D01*
X81570855Y-47479145D01*
X81331885Y-47319470D01*
X81050000Y-47263400D01*
X80304687Y-47263400D01*
X80304687Y-45936216D01*
X80140689Y-45539311D01*
X79837286Y-45235378D01*
X79440668Y-45070687D01*
X79011216Y-45070313D01*
X78614311Y-45234311D01*
X78310378Y-45537714D01*
X78145687Y-45934332D01*
X78145313Y-46363784D01*
X78309311Y-46760689D01*
X78612714Y-47064622D01*
X79009332Y-47229313D01*
X79438784Y-47229687D01*
X79835689Y-47065689D01*
X80139622Y-46762286D01*
X80304313Y-46365668D01*
X80304687Y-45936216D01*
X80304687Y-47263400D01*
X77750000Y-47263400D01*
X77468115Y-47319470D01*
X77229145Y-47479145D01*
X76854145Y-47854145D01*
X76791336Y-47948144D01*
X76764311Y-47959311D01*
X76460378Y-48262714D01*
X76295687Y-48659332D01*
X76295313Y-49088784D01*
X76459311Y-49485689D01*
X76762714Y-49789622D01*
X77159332Y-49954313D01*
X77588784Y-49954687D01*
X77925337Y-49815625D01*
X78259332Y-49954313D01*
X78688784Y-49954687D01*
X79085689Y-49790689D01*
X79265090Y-49611600D01*
X80161974Y-49611600D01*
X79885378Y-49887714D01*
X79720687Y-50284332D01*
X79720313Y-50713784D01*
X79884311Y-51110689D01*
X80187714Y-51414622D01*
X80584332Y-51579313D01*
X81013784Y-51579687D01*
X81373000Y-51431261D01*
X81373000Y-51729096D01*
X81367143Y-51737862D01*
X81315000Y-52000000D01*
X81315000Y-52315000D01*
X78411684Y-52315000D01*
X78539622Y-52187286D01*
X78704313Y-51790668D01*
X78704687Y-51361216D01*
X78540689Y-50964311D01*
X78237286Y-50660378D01*
X77840668Y-50495687D01*
X77411216Y-50495313D01*
X77029668Y-50652965D01*
X76912286Y-50535378D01*
X76515668Y-50370687D01*
X76129687Y-50370350D01*
X76129687Y-48586216D01*
X75979687Y-48223188D01*
X75979687Y-41611216D01*
X75815689Y-41214311D01*
X75512286Y-40910378D01*
X75310000Y-40826381D01*
X75310000Y-39174685D01*
X75310000Y-38825315D01*
X75225506Y-38400536D01*
X74984889Y-38040426D01*
X74624779Y-37799809D01*
X74200000Y-37715315D01*
X73879540Y-37779058D01*
X73879687Y-37611216D01*
X73715689Y-37214311D01*
X73412286Y-36910378D01*
X73015668Y-36745687D01*
X72586216Y-36745313D01*
X72189311Y-36909311D01*
X71885378Y-37212714D01*
X71720687Y-37609332D01*
X71720313Y-38038784D01*
X71884311Y-38435689D01*
X72187714Y-38739622D01*
X72584332Y-38904313D01*
X73013784Y-38904687D01*
X73090000Y-38873195D01*
X73090000Y-39174685D01*
X73174494Y-39599464D01*
X73415111Y-39959574D01*
X73775221Y-40200191D01*
X74200000Y-40284685D01*
X74624779Y-40200191D01*
X74984889Y-39959574D01*
X75225506Y-39599464D01*
X75310000Y-39174685D01*
X75310000Y-40826381D01*
X75115668Y-40745687D01*
X74686216Y-40745313D01*
X74289311Y-40909311D01*
X73985378Y-41212714D01*
X73911387Y-41390901D01*
X73564311Y-41534311D01*
X73260378Y-41837714D01*
X73095687Y-42234332D01*
X73095313Y-42663784D01*
X73259311Y-43060689D01*
X73562714Y-43364622D01*
X73959332Y-43529313D01*
X74388784Y-43529687D01*
X74785689Y-43365689D01*
X75089622Y-43062286D01*
X75163612Y-42884098D01*
X75510689Y-42740689D01*
X75814622Y-42437286D01*
X75979313Y-42040668D01*
X75979687Y-41611216D01*
X75979687Y-48223188D01*
X75965689Y-48189311D01*
X75929687Y-48153246D01*
X75929687Y-45911216D01*
X75765689Y-45514311D01*
X75462286Y-45210378D01*
X75065668Y-45045687D01*
X74636216Y-45045313D01*
X74239311Y-45209311D01*
X73935378Y-45512714D01*
X73770687Y-45909332D01*
X73770313Y-46338784D01*
X73934311Y-46735689D01*
X74237714Y-47039622D01*
X74634332Y-47204313D01*
X75063784Y-47204687D01*
X75460689Y-47040689D01*
X75764622Y-46737286D01*
X75929313Y-46340668D01*
X75929687Y-45911216D01*
X75929687Y-48153246D01*
X75662286Y-47885378D01*
X75265668Y-47720687D01*
X74836216Y-47720313D01*
X74439311Y-47884311D01*
X74266788Y-48056533D01*
X74240668Y-48045687D01*
X73811216Y-48045313D01*
X73414311Y-48209311D01*
X73400241Y-48223356D01*
X73387286Y-48210378D01*
X72990668Y-48045687D01*
X72561216Y-48045313D01*
X72164311Y-48209311D01*
X71860378Y-48512714D01*
X71695687Y-48909332D01*
X71695313Y-49338784D01*
X71859311Y-49735689D01*
X72162714Y-50039622D01*
X72559332Y-50204313D01*
X72988784Y-50204687D01*
X73385689Y-50040689D01*
X73399758Y-50026643D01*
X73412714Y-50039622D01*
X73809332Y-50204313D01*
X74238784Y-50204687D01*
X74635689Y-50040689D01*
X74808211Y-49868466D01*
X74834332Y-49879313D01*
X75263784Y-49879687D01*
X75660689Y-49715689D01*
X75964622Y-49412286D01*
X76129313Y-49015668D01*
X76129687Y-48586216D01*
X76129687Y-50370350D01*
X76086216Y-50370313D01*
X75689311Y-50534311D01*
X75612632Y-50610855D01*
X75537286Y-50535378D01*
X75140668Y-50370687D01*
X74711216Y-50370313D01*
X74314311Y-50534311D01*
X74010378Y-50837714D01*
X73845687Y-51234332D01*
X73845313Y-51663784D01*
X74009311Y-52060689D01*
X74263178Y-52315000D01*
X72961510Y-52315000D01*
X73189622Y-52087286D01*
X73354313Y-51690668D01*
X73354687Y-51261216D01*
X73190689Y-50864311D01*
X72887286Y-50560378D01*
X72490668Y-50395687D01*
X72061216Y-50395313D01*
X71664311Y-50559311D01*
X71360378Y-50862714D01*
X71195687Y-51259332D01*
X71195313Y-51688784D01*
X71359311Y-52085689D01*
X71588222Y-52315000D01*
X70685000Y-52315000D01*
X70685000Y-40996464D01*
X70763030Y-41048603D01*
X71197376Y-41135000D01*
X71802624Y-41135000D01*
X72236970Y-41048603D01*
X72605190Y-40802566D01*
X72851227Y-40434346D01*
X72937624Y-40000000D01*
X72851227Y-39565654D01*
X72605190Y-39197434D01*
X72236970Y-38951397D01*
X71802624Y-38865000D01*
X71197376Y-38865000D01*
X70763030Y-38951397D01*
X70685000Y-39003535D01*
X70685000Y-35751851D01*
X70709311Y-35810689D01*
X71012714Y-36114622D01*
X71409332Y-36279313D01*
X71838784Y-36279687D01*
X72162806Y-36145803D01*
X72484332Y-36279313D01*
X72913784Y-36279687D01*
X73310689Y-36115689D01*
X73614622Y-35812286D01*
X73779313Y-35415668D01*
X73779499Y-35201042D01*
X74200000Y-35284685D01*
X74545485Y-35215963D01*
X74545313Y-35413784D01*
X74709311Y-35810689D01*
X75012714Y-36114622D01*
X75409332Y-36279313D01*
X75838784Y-36279687D01*
X76235689Y-36115689D01*
X76539622Y-35812286D01*
X76704313Y-35415668D01*
X76704687Y-34986216D01*
X76540689Y-34589311D01*
X76237286Y-34285378D01*
X75840668Y-34120687D01*
X75557172Y-34120440D01*
X75810689Y-34015689D01*
X76114622Y-33712286D01*
X76279313Y-33315668D01*
X76279687Y-32886216D01*
X76115689Y-32489311D01*
X75812286Y-32185378D01*
X75629623Y-32109529D01*
X75629687Y-32036216D01*
X75465689Y-31639311D01*
X75162286Y-31335378D01*
X74765668Y-31170687D01*
X74336216Y-31170313D01*
X74085079Y-31274080D01*
X73715668Y-31120687D01*
X73286216Y-31120313D01*
X73048434Y-31218562D01*
X73015689Y-31139311D01*
X72712286Y-30835378D01*
X72315668Y-30670687D01*
X71886216Y-30670313D01*
X71489311Y-30834311D01*
X71185378Y-31137714D01*
X71020687Y-31534332D01*
X71020368Y-31900209D01*
X70763030Y-31951397D01*
X70685000Y-32003535D01*
X70685000Y-30317304D01*
X70834332Y-30379313D01*
X71263784Y-30379687D01*
X71660689Y-30215689D01*
X71964622Y-29912286D01*
X72129313Y-29515668D01*
X72129687Y-29086216D01*
X72000981Y-28774724D01*
X72129313Y-28465668D01*
X72129687Y-28036216D01*
X71965689Y-27639311D01*
X71951024Y-27624620D01*
X72079313Y-27315668D01*
X72079687Y-26886216D01*
X71950981Y-26574724D01*
X72079313Y-26265668D01*
X72079687Y-25836216D01*
X71950981Y-25524724D01*
X72079313Y-25215668D01*
X72079518Y-24979613D01*
X72163784Y-24979687D01*
X72560689Y-24815689D01*
X72864622Y-24512286D01*
X72973513Y-24250047D01*
X73187714Y-24464622D01*
X73584332Y-24629313D01*
X74013784Y-24629687D01*
X74410689Y-24465689D01*
X74410691Y-24465686D01*
X74684332Y-24579313D01*
X75113784Y-24579687D01*
X75510689Y-24415689D01*
X75814622Y-24112286D01*
X75979313Y-23715668D01*
X75979687Y-23286216D01*
X75815689Y-22889311D01*
X75512286Y-22585378D01*
X75115668Y-22420687D01*
X74686216Y-22420313D01*
X74289311Y-22584311D01*
X74289308Y-22584313D01*
X74015668Y-22470687D01*
X73586216Y-22470313D01*
X73189311Y-22634311D01*
X72885378Y-22937714D01*
X72776486Y-23199952D01*
X72562286Y-22985378D01*
X72165668Y-22820687D01*
X71736216Y-22820313D01*
X71339311Y-22984311D01*
X71035378Y-23287714D01*
X70870687Y-23684332D01*
X70870481Y-23920386D01*
X70786216Y-23920313D01*
X70685000Y-23962134D01*
X70685000Y-20685000D01*
X72955937Y-20685000D01*
X72815518Y-21023168D01*
X72815124Y-21474850D01*
X72987611Y-21892301D01*
X73306719Y-22211967D01*
X73723868Y-22385182D01*
X74175550Y-22385576D01*
X74593001Y-22213089D01*
X74699906Y-22106370D01*
X74805319Y-22211967D01*
X75222468Y-22385182D01*
X75674150Y-22385576D01*
X76091601Y-22213089D01*
X76411267Y-21893981D01*
X76584482Y-21476832D01*
X76584876Y-21025150D01*
X76444329Y-20685000D01*
X81174219Y-20685000D01*
X81070687Y-20934332D01*
X81070313Y-21363784D01*
X81234311Y-21760689D01*
X81537714Y-22064622D01*
X81934332Y-22229313D01*
X82363784Y-22229687D01*
X82760689Y-22065689D01*
X83064622Y-21762286D01*
X83229313Y-21365668D01*
X83229687Y-20936216D01*
X83125886Y-20685000D01*
X90238096Y-20685000D01*
X90235378Y-20687714D01*
X90070687Y-21084332D01*
X90070374Y-21443480D01*
X90062286Y-21435378D01*
X89665668Y-21270687D01*
X89236216Y-21270313D01*
X88839311Y-21434311D01*
X88535378Y-21737714D01*
X88370687Y-22134332D01*
X88370313Y-22563784D01*
X88534311Y-22960689D01*
X88837714Y-23264622D01*
X89234332Y-23429313D01*
X89663784Y-23429687D01*
X90060689Y-23265689D01*
X90170581Y-23155988D01*
X90170313Y-23463784D01*
X90334311Y-23860689D01*
X90637714Y-24164622D01*
X91034332Y-24329313D01*
X91343698Y-24329582D01*
X91235378Y-24437714D01*
X91070687Y-24834332D01*
X91070313Y-25263784D01*
X91234311Y-25660689D01*
X91537714Y-25964622D01*
X91934332Y-26129313D01*
X92363784Y-26129687D01*
X92760689Y-25965689D01*
X93064622Y-25662286D01*
X93229313Y-25265668D01*
X93229687Y-24836216D01*
X93065689Y-24439311D01*
X92762286Y-24135378D01*
X92365668Y-23970687D01*
X92056301Y-23970417D01*
X92164622Y-23862286D01*
X92329313Y-23465668D01*
X92329687Y-23036216D01*
X92165689Y-22639311D01*
X91862286Y-22335378D01*
X91667136Y-22254344D01*
X91760689Y-22215689D01*
X92064622Y-21912286D01*
X92229313Y-21515668D01*
X92229687Y-21086216D01*
X92065689Y-20689311D01*
X92061385Y-20685000D01*
X99888184Y-20685000D01*
X99835378Y-20737714D01*
X99670687Y-21134332D01*
X99670313Y-21563784D01*
X99834311Y-21960689D01*
X100137714Y-22264622D01*
X100534332Y-22429313D01*
X100963784Y-22429687D01*
X101315000Y-22284567D01*
X101315000Y-40000000D01*
X101367143Y-40262138D01*
X101373000Y-40270903D01*
X101373000Y-47746198D01*
X101312286Y-47685378D01*
X101279687Y-47671841D01*
X101279687Y-40986216D01*
X101115689Y-40589311D01*
X100812286Y-40285378D01*
X100779687Y-40271841D01*
X100779687Y-25686216D01*
X100615689Y-25289311D01*
X100312286Y-24985378D01*
X99915668Y-24820687D01*
X99486216Y-24820313D01*
X99089311Y-24984311D01*
X98785378Y-25287714D01*
X98620687Y-25684332D01*
X98620313Y-26113784D01*
X98784311Y-26510689D01*
X99087714Y-26814622D01*
X99484332Y-26979313D01*
X99913784Y-26979687D01*
X100310689Y-26815689D01*
X100614622Y-26512286D01*
X100779313Y-26115668D01*
X100779687Y-25686216D01*
X100779687Y-40271841D01*
X100415668Y-40120687D01*
X99986216Y-40120313D01*
X99729687Y-40226308D01*
X99729687Y-32786216D01*
X99565689Y-32389311D01*
X99262286Y-32085378D01*
X98865668Y-31920687D01*
X98823255Y-31920650D01*
X98729687Y-31694198D01*
X98729687Y-29436216D01*
X98565689Y-29039311D01*
X98262286Y-28735378D01*
X97865668Y-28570687D01*
X97436216Y-28570313D01*
X97229687Y-28655649D01*
X97229687Y-24986216D01*
X97065689Y-24589311D01*
X96762286Y-24285378D01*
X96365668Y-24120687D01*
X95936216Y-24120313D01*
X95539311Y-24284311D01*
X95235378Y-24587714D01*
X95070687Y-24984332D01*
X95070313Y-25413784D01*
X95234311Y-25810689D01*
X95537714Y-26114622D01*
X95934332Y-26279313D01*
X96363784Y-26279687D01*
X96760689Y-26115689D01*
X97064622Y-25812286D01*
X97229313Y-25415668D01*
X97229687Y-24986216D01*
X97229687Y-28655649D01*
X97039311Y-28734311D01*
X96735378Y-29037714D01*
X96570687Y-29434332D01*
X96570313Y-29863784D01*
X96734311Y-30260689D01*
X97037714Y-30564622D01*
X97434332Y-30729313D01*
X97863784Y-30729687D01*
X98260689Y-30565689D01*
X98564622Y-30262286D01*
X98729313Y-29865668D01*
X98729687Y-29436216D01*
X98729687Y-31694198D01*
X98665689Y-31539311D01*
X98362286Y-31235378D01*
X97965668Y-31070687D01*
X97536216Y-31070313D01*
X97139311Y-31234311D01*
X96835378Y-31537714D01*
X96670687Y-31934332D01*
X96670313Y-32363784D01*
X96673023Y-32370345D01*
X96636216Y-32370313D01*
X96239311Y-32534311D01*
X95935378Y-32837714D01*
X95770687Y-33234332D01*
X95770313Y-33663784D01*
X95919729Y-34025399D01*
X95770687Y-34384332D01*
X95770313Y-34813784D01*
X95797975Y-34880731D01*
X95789311Y-34884311D01*
X95485378Y-35187714D01*
X95320687Y-35584332D01*
X95320313Y-36013784D01*
X95484311Y-36410689D01*
X95787714Y-36714622D01*
X96184332Y-36879313D01*
X96503179Y-36879590D01*
X96787714Y-37164622D01*
X97184332Y-37329313D01*
X97613784Y-37329687D01*
X98010689Y-37165689D01*
X98314622Y-36862286D01*
X98479313Y-36465668D01*
X98479687Y-36036216D01*
X98315689Y-35639311D01*
X98012286Y-35335378D01*
X97750294Y-35226588D01*
X97764622Y-35212286D01*
X97929313Y-34815668D01*
X97929687Y-34386216D01*
X97780270Y-34024600D01*
X97888150Y-33764797D01*
X98037714Y-33914622D01*
X98434332Y-34079313D01*
X98863784Y-34079687D01*
X99260689Y-33915689D01*
X99564622Y-33612286D01*
X99729313Y-33215668D01*
X99729687Y-32786216D01*
X99729687Y-40226308D01*
X99589311Y-40284311D01*
X99285378Y-40587714D01*
X99120687Y-40984332D01*
X99120313Y-41413784D01*
X99284311Y-41810689D01*
X99587714Y-42114622D01*
X99984332Y-42279313D01*
X100413784Y-42279687D01*
X100810689Y-42115689D01*
X101114622Y-41812286D01*
X101279313Y-41415668D01*
X101279687Y-40986216D01*
X101279687Y-47671841D01*
X100915668Y-47520687D01*
X100486216Y-47520313D01*
X100089311Y-47684311D01*
X99785378Y-47987714D01*
X99647135Y-48320637D01*
X99412286Y-48085378D01*
X99154687Y-47978413D01*
X99154687Y-43711216D01*
X98990689Y-43314311D01*
X98687286Y-43010378D01*
X98290668Y-42845687D01*
X97966965Y-42845405D01*
X97979313Y-42815668D01*
X97979687Y-42386216D01*
X97815689Y-41989311D01*
X97512286Y-41685378D01*
X97115668Y-41520687D01*
X96686216Y-41520313D01*
X96289311Y-41684311D01*
X95985378Y-41987714D01*
X95820687Y-42384332D01*
X95820313Y-42813784D01*
X95984311Y-43210689D01*
X96287714Y-43514622D01*
X96684332Y-43679313D01*
X97008034Y-43679594D01*
X96995687Y-43709332D01*
X96995313Y-44138784D01*
X97159311Y-44535689D01*
X97248421Y-44624954D01*
X97085378Y-44787714D01*
X96920687Y-45184332D01*
X96920313Y-45613784D01*
X97084311Y-46010689D01*
X97387714Y-46314622D01*
X97784332Y-46479313D01*
X98213784Y-46479687D01*
X98610689Y-46315689D01*
X98914622Y-46012286D01*
X99079313Y-45615668D01*
X99079687Y-45186216D01*
X98915689Y-44789311D01*
X98826578Y-44700045D01*
X98989622Y-44537286D01*
X99154313Y-44140668D01*
X99154687Y-43711216D01*
X99154687Y-47978413D01*
X99015668Y-47920687D01*
X98586216Y-47920313D01*
X98189311Y-48084311D01*
X97885378Y-48387714D01*
X97720687Y-48784332D01*
X97720313Y-49213784D01*
X97884311Y-49610689D01*
X97890299Y-49616687D01*
X97820687Y-49784332D01*
X97820313Y-50213784D01*
X97984311Y-50610689D01*
X98287714Y-50914622D01*
X98684332Y-51079313D01*
X99113784Y-51079687D01*
X99510689Y-50915689D01*
X99814622Y-50612286D01*
X99979313Y-50215668D01*
X99979687Y-49786216D01*
X99815689Y-49389311D01*
X99809700Y-49383312D01*
X99852864Y-49279362D01*
X100087714Y-49514622D01*
X100484332Y-49679313D01*
X100913784Y-49679687D01*
X101310689Y-49515689D01*
X101373000Y-49453486D01*
X101373000Y-52315000D01*
M02*
