G04 #@! TF.FileFunction,Soldermask,Bot*
%FSLAX46Y46*%
G04 Gerber Fmt 4.6, Leading zero omitted, Abs format (unit mm)*
G04 Created by KiCad (PCBNEW (2015-01-16 BZR 5376)-product) date 07/04/2015 12:08:15*
%MOMM*%
G01*
G04 APERTURE LIST*
%ADD10C,0.100000*%
%ADD11R,1.350000X0.400000*%
%ADD12O,0.950000X1.250000*%
%ADD13O,1.550000X1.000000*%
%ADD14R,0.750000X0.800000*%
%ADD15R,0.800000X0.750000*%
%ADD16R,0.250000X1.600000*%
%ADD17R,1.500000X2.000000*%
%ADD18R,0.500000X0.900000*%
%ADD19R,0.550000X0.800000*%
%ADD20C,1.000760*%
%ADD21C,0.800000*%
%ADD22R,3.000000X1.000000*%
%ADD23R,1.000000X0.900000*%
%ADD24C,0.889000*%
G04 APERTURE END LIST*
D10*
D11*
X74200000Y-37800000D03*
X74200000Y-37150000D03*
X74200000Y-36500000D03*
X74200000Y-35850000D03*
X74200000Y-35200000D03*
D12*
X74200000Y-39000000D03*
X74200000Y-34000000D03*
D13*
X71500000Y-40000000D03*
X71500000Y-33000000D03*
D14*
X76200000Y-47950000D03*
X76200000Y-46450000D03*
X86075000Y-37000000D03*
X86075000Y-35500000D03*
X84575000Y-37375000D03*
X84575000Y-35875000D03*
D15*
X77800000Y-33950000D03*
X76300000Y-33950000D03*
X74950000Y-26350000D03*
X76450000Y-26350000D03*
D14*
X80550000Y-24350000D03*
X80550000Y-22850000D03*
D15*
X71300000Y-30450000D03*
X72800000Y-30450000D03*
X73450000Y-28950000D03*
X74950000Y-28950000D03*
D14*
X72400000Y-21250000D03*
X72400000Y-22750000D03*
X76950000Y-21300000D03*
X76950000Y-22800000D03*
D15*
X94225000Y-41375000D03*
X92725000Y-41375000D03*
X92050000Y-39750000D03*
X93550000Y-39750000D03*
X100750000Y-44550000D03*
X99250000Y-44550000D03*
X98250000Y-42650000D03*
X99750000Y-42650000D03*
D16*
X88100000Y-40700000D03*
X87600000Y-40700000D03*
X87100000Y-40700000D03*
X86600000Y-40700000D03*
X86100000Y-40700000D03*
X85600000Y-40700000D03*
X85100000Y-40700000D03*
X84600000Y-40700000D03*
X84100000Y-40700000D03*
X83600000Y-40700000D03*
D17*
X89700000Y-42000000D03*
X82000000Y-42000000D03*
D18*
X78300000Y-36025000D03*
X76800000Y-36025000D03*
X77450000Y-37675000D03*
X75950000Y-37675000D03*
X78700000Y-27300000D03*
X80200000Y-27300000D03*
D19*
X78175000Y-41875000D03*
X77225000Y-41875000D03*
X76275000Y-41875000D03*
X78175000Y-39475000D03*
X77225000Y-39475000D03*
X76275000Y-39475000D03*
D20*
X73950700Y-21250000D03*
X75449300Y-21250000D03*
D21*
X72100000Y-27450000D03*
X72050000Y-25100000D03*
X72100000Y-26250000D03*
X74050000Y-31150000D03*
X75350000Y-31150000D03*
D22*
X72700000Y-47825000D03*
X72700000Y-46325000D03*
D23*
X100500000Y-51450000D03*
X100500000Y-47350000D03*
X98900000Y-51450000D03*
X98900000Y-47350000D03*
X100500000Y-39800000D03*
X100500000Y-35700000D03*
X98900000Y-39800000D03*
X98900000Y-35700000D03*
X98900000Y-30100000D03*
X98900000Y-34200000D03*
X100500000Y-30100000D03*
X100500000Y-34200000D03*
X98950000Y-22900000D03*
X98950000Y-27000000D03*
X100550000Y-22900000D03*
X100550000Y-27000000D03*
D24*
X74025000Y-49125000D03*
X97400000Y-36250000D03*
X74175000Y-42450000D03*
X74900000Y-41825000D03*
X75050000Y-48800000D03*
X100700000Y-48600000D03*
X98650000Y-33000000D03*
X78350000Y-24000000D03*
X76350000Y-29050000D03*
X72100000Y-31750000D03*
X75200000Y-33100000D03*
X82150000Y-21150000D03*
X87500000Y-47450000D03*
X87500000Y-45900000D03*
X93300000Y-45050000D03*
X98900000Y-50000000D03*
X96900000Y-42600000D03*
X87100000Y-31550000D03*
X86800000Y-22550000D03*
X92150000Y-25050000D03*
X91150000Y-21300000D03*
X89350000Y-34550000D03*
X75050000Y-27750000D03*
X71950000Y-23900000D03*
X72275000Y-51475000D03*
X74850000Y-46125000D03*
X71625000Y-35200000D03*
X72700000Y-35200000D03*
X100200000Y-41200000D03*
X91600000Y-41300000D03*
X87300000Y-34550000D03*
X87650000Y-50750000D03*
X79225000Y-46150000D03*
X96150000Y-25200000D03*
X96850000Y-33450000D03*
X99700000Y-25900000D03*
X98800000Y-49000000D03*
X75625000Y-35200000D03*
X79625000Y-39975000D03*
X97650000Y-29650000D03*
X89450000Y-22350000D03*
X96400000Y-35800000D03*
X80800000Y-50500000D03*
X100750000Y-21350000D03*
X72800000Y-37825000D03*
X77400000Y-43425000D03*
X96200000Y-48000000D03*
X97200000Y-46600000D03*
X71800000Y-42825000D03*
X72025000Y-43775000D03*
X83200000Y-45900000D03*
X85100000Y-28000000D03*
X100900000Y-25800000D03*
X100300000Y-38400000D03*
X84400000Y-38775000D03*
X93200000Y-23550000D03*
X86750000Y-21200000D03*
X98750000Y-31650000D03*
X83200000Y-47450000D03*
X77400000Y-32550000D03*
X76200000Y-32550000D03*
X71050000Y-31750000D03*
X79350000Y-24850000D03*
X95400000Y-41700000D03*
X98700000Y-41200000D03*
X90900000Y-40125000D03*
X82150000Y-25600000D03*
X86000000Y-38150000D03*
X71050000Y-28250000D03*
X71050000Y-29300000D03*
X73800000Y-23550000D03*
X74900000Y-23500000D03*
X98000000Y-45400000D03*
X98075000Y-43925000D03*
X88500000Y-39125000D03*
X87350000Y-44700000D03*
X89350000Y-44700000D03*
X87450000Y-38975000D03*
X87375000Y-37825000D03*
X82875000Y-38750000D03*
X81950000Y-38300000D03*
X97750000Y-32150000D03*
X96850000Y-34600000D03*
X82600000Y-31150000D03*
X82550000Y-26700000D03*
X80000000Y-30550000D03*
X79950000Y-25750000D03*
X82900000Y-34300000D03*
X80550000Y-41500000D03*
X76300000Y-51450000D03*
X80700000Y-39950000D03*
X81775000Y-34350000D03*
X74925000Y-51450000D03*
X77375000Y-48875000D03*
X82625000Y-49575000D03*
X88400000Y-46625000D03*
X89325000Y-38075000D03*
X81150000Y-43750000D03*
X77625000Y-51575000D03*
X84000000Y-34325000D03*
X90800000Y-29350000D03*
X91250000Y-23250000D03*
X81100000Y-29350000D03*
X81200000Y-26250000D03*
X71000000Y-27100000D03*
X71000000Y-25000000D03*
X71000000Y-26050000D03*
X73500000Y-32200000D03*
X74550000Y-32250000D03*
X88600000Y-43800000D03*
X83300000Y-44000000D03*
X89550000Y-46625000D03*
X82650000Y-50700000D03*
X78475000Y-48875000D03*
X90050000Y-38975000D03*
X79200000Y-42400000D03*
X84300000Y-33200000D03*
X79200000Y-43500000D03*
X85200000Y-32400000D03*
X90000000Y-31350000D03*
X90000000Y-32550000D03*
X93100000Y-35100000D03*
X93150000Y-36600000D03*
M02*
